<?xml version="1.0" standalone="no"?>
<!DOCTYPE svg PUBLIC "-//W3C//DTD SVG 20010904//EN"
 "http://www.w3.org/TR/2001/REC-SVG-20010904/DTD/svg10.dtd">
<svg version="1.0" xmlns="http://www.w3.org/2000/svg"
 width="820.000000pt" height="669.000000pt" viewBox="0 0 820.000000 669.000000"
 preserveAspectRatio="xMidYMid meet">

<g transform="translate(0.000000,669.000000) scale(0.100000,-0.100000)"
fill="#000000" stroke="none">
<path d="M1990 4863 c-24 -21 -37 -48 -55 -113 -30 -103 -31 -136 -5 -177 39
-65 149 -62 184 5 24 46 59 201 51 229 -3 14 -19 38 -35 54 -39 40 -97 40
-140 2z"/>
<path d="M5869 3377 c-85 -309 -152 -566 -148 -571 11 -12 56 1 78 23 22 22
14 -3 167 551 65 234 120 443 122 465 3 30 -2 47 -18 68 -12 15 -27 27 -33 27
-7 0 -75 -227 -168 -563z"/>
<path d="M3378 1683 c-110 -113 -85 -294 51 -365 159 -83 341 28 341 209 0 40
-46 146 -64 147 -5 1 -22 -46 -38 -104 -23 -83 -35 -111 -58 -132 -47 -44
-120 -36 -162 16 -15 17 -18 43 -18 144 0 67 -4 122 -8 122 -4 0 -24 -17 -44
-37z"/>
<path d="M5003 1683 c-105 -105 -87 -277 38 -360 38 -25 51 -28 125 -28 75 0
86 3 125 30 100 70 133 195 79 299 -14 27 -30 51 -35 53 -6 2 -24 -45 -39
-104 -36 -131 -60 -163 -128 -163 -89 0 -111 37 -118 195 l-5 120 -42 -42z"/>
<path d="M3506 1557 c-22 -16 -18 -65 5 -80 47 -29 101 32 64 73 -21 23 -44
25 -69 7z"/>
<path d="M5124 1545 c-15 -23 -15 -27 0 -50 10 -15 26 -25 41 -25 15 0 31 10
41 25 15 23 15 27 0 50 -10 15 -26 25 -41 25 -15 0 -31 -10 -41 -25z"/>
</g>
</svg>
