<?xml version="1.0" standalone="no"?>
<!DOCTYPE svg PUBLIC "-//W3C//DTD SVG 20010904//EN"
 "http://www.w3.org/TR/2001/REC-SVG-20010904/DTD/svg10.dtd">
<svg version="1.0" xmlns="http://www.w3.org/2000/svg"
 width="840.000000pt" height="808.000000pt" viewBox="0 0 840.000000 808.000000"
 preserveAspectRatio="xMidYMid meet">

<g transform="translate(0.000000,808.000000) scale(0.100000,-0.100000)"
fill="#000000" stroke="none">
<path d="M4132 7664 c-100 -26 73 122 -1532 -1314 -919 -821 -1605 -1434
-2007 -1793 -256 -229 -306 -278 -332 -327 -76 -142 -81 -342 -14 -475 28 -55
64 -91 323 -332 211 -196 750 -697 1415 -1318 472 -440 1019 -950 1335 -1244
162 -151 330 -308 372 -348 42 -39 99 -83 126 -97 243 -123 533 22 618 309 39
130 18 312 -47 408 -14 19 -294 290 -624 602 -330 312 -640 607 -690 654 -49
47 -332 316 -629 596 l-538 510 2968 5 2969 5 56 27 c57 29 149 114 195 181
79 118 116 259 97 373 -29 167 -148 309 -308 368 -22 8 -850 12 -3003 16
l-2972 5 78 70 c43 39 251 228 463 420 773 704 1062 968 1449 1320 691 629
719 655 746 701 104 178 77 412 -66 552 -117 115 -299 166 -448 126z"/>
</g>
</svg>
