<?xml version="1.0" encoding="utf-8"?>
<!-- Svg Vector Icons : http://www.onlinewebfonts.com/icon -->
<!DOCTYPE svg PUBLIC "-//W3C//DTD SVG 1.1//EN" "http://www.w3.org/Graphics/SVG/1.1/DTD/svg11.dtd">
<svg version="1.1" xmlns="http://www.w3.org/2000/svg" xmlns:xlink="http://www.w3.org/1999/xlink" x="0px" y="0px" viewBox="0 0 1000 1000" enable-background="new 0 0 1000 1000" xml:space="preserve">
<metadata> Svg Vector Icons : http://www.onlinewebfonts.com/icon </metadata>
<g><path d="M500,9.3C229.4,9.3,10,208.1,10,453.4c0,175.4,112.2,327,275.1,399.2v107.6c0,10.9,5.8,21,15.3,26.5c4.7,2.7,10,4.1,15.3,4.1c5.3,0,10.5-1.4,15.3-4.1l155.3-89.4c4.6,0.1,9.1,0.2,13.7,0.2c270.6,0,490-198.8,490-444.1C990,208.1,770.6,9.3,500,9.3z M805.4,722c-39.4,35.7-85.3,63.7-136.5,83.4c-46.2,17.7-94.9,27.8-145.1,30.3c-7.9,0.4-15.7,0.6-23.7,0.6c-9.7,0-19.3-0.3-28.9-0.9L384.7,885l-38.4,22.1v-32v-59.6c0-1.7-0.1-3.3-0.4-4.9c-4.9-1.7-9.9-3.5-14.7-5.4c-11.5-4.4-22.7-9.2-33.6-14.5c-37.9-18.1-72.4-41.2-103-68.9c-38.9-35.3-69.4-76.2-90.6-121.7c-21.7-46.6-32.8-96-32.8-146.9S82.3,353,104,306.4c21.2-45.5,51.7-86.4,90.6-121.7c39.4-35.7,85.3-63.7,136.5-83.4C384.6,80.9,441.4,70.5,500,70.5s115.4,10.4,168.8,30.8c51.2,19.6,97.2,47.7,136.5,83.4C844.3,220,874.8,261,896,306.4c21.7,46.6,32.8,96,32.8,146.9s-11,100.4-32.8,146.9C874.8,645.7,844.3,686.7,805.4,722z"/><path d="M223.9,439.4c-1.8,33.8,24.1,62.7,57.9,64.6c33.8,1.8,62.7-24.1,64.6-57.9c0.1-2.2,0.1-4.4,0-6.6c1.8-33.8-24.1-62.7-57.9-64.6c-33.8-1.8-62.7,24.1-64.6,57.9C223.8,435,223.8,437.2,223.9,439.4z"/><path d="M438.2,439.5c-1.8,33.8,24.1,62.7,57.9,64.6c33.8,1.8,62.7-24.1,64.6-57.9c0.1-2.2,0.1-4.4,0-6.6c1.8-33.8-24.1-62.7-57.9-64.6c-33.8-1.8-62.7,24.1-64.6,57.9C438.1,435.1,438.1,437.3,438.2,439.5L438.2,439.5z"/><path d="M652.6,439.5c-1.8,33.8,24.1,62.7,57.9,64.6c33.8,1.8,62.7-24.1,64.6-57.9c0.1-2.2,0.1-4.4,0-6.6c1.8-33.8-24.1-62.7-57.9-64.6c-33.8-1.8-62.7,24.1-64.6,57.9C652.5,435.1,652.5,437.3,652.6,439.5z"/></g>
</svg>