<?xml version="1.0" standalone="no"?>
<!DOCTYPE svg PUBLIC "-//W3C//DTD SVG 20010904//EN"
 "http://www.w3.org/TR/2001/REC-SVG-20010904/DTD/svg10.dtd">
<svg version="1.0" xmlns="http://www.w3.org/2000/svg"
 width="512.000000pt" height="512.000000pt" viewBox="0 0 512.000000 512.000000"
 preserveAspectRatio="xMidYMid meet">

<g transform="translate(0.000000,512.000000) scale(0.100000,-0.100000)"
fill="#000000" stroke="none">
<path d="M2560 4517 l0 -604 98 -7 c231 -15 455 -93 661 -230 93 -61 133 -74
184 -57 23 8 138 114 380 354 380 375 381 377 358 464 -13 48 -51 87 -167 173
-312 232 -686 396 -1058 465 -126 23 -325 45 -413 45 l-43 0 0 -603z"/>
<path d="M2533 3150 c-46 -11 -80 -35 -100 -73 -17 -29 -18 -72 -18 -517 0
-470 1 -486 20 -520 12 -19 36 -43 55 -55 34 -19 52 -20 658 -23 l622 -3 -21
-42 c-107 -209 -341 -441 -567 -560 -162 -85 -394 -147 -554 -147 l-68 0 0
-604 0 -605 33 4 c17 2 82 6 142 9 269 13 616 102 882 228 364 172 707 440
939 733 328 414 513 886 555 1410 21 279 -17 662 -73 723 -50 54 7 52 -1280
51 -656 -1 -1208 -4 -1225 -9z"/>
</g>
</svg>
