<?xml version="1.0" standalone="no"?>
<!DOCTYPE svg PUBLIC "-//W3C//DTD SVG 20010904//EN"
 "http://www.w3.org/TR/2001/REC-SVG-20010904/DTD/svg10.dtd">
<svg version="1.0" xmlns="http://www.w3.org/2000/svg"
 width="1200.000000pt" height="1200.000000pt" viewBox="0 0 1200.000000 1200.000000"
 preserveAspectRatio="xMidYMid meet">

<g transform="translate(0.000000,1200.000000) scale(0.100000,-0.100000)"
fill="#000000" stroke="none">
<path d="M3820 11489 c-654 -84 -1175 -575 -1296 -1224 -18 -97 -19 -239 -19
-4275 l0 -4175 23 -105 c75 -341 228 -605 484 -835 187 -169 424 -287 698
-347 l105 -23 2185 0 2185 0 105 23 c612 135 1048 570 1182 1182 l23 105 0
4185 0 4185 -23 105 c-61 275 -177 509 -349 701 -225 251 -487 403 -828 481
l-100 22 -2155 2 c-1185 1 -2184 -2 -2220 -7z m4800 -4989 l0 -3500 -2620 0
-2620 0 0 3500 0 3500 2620 0 2620 0 0 -3500z m-1620 -4750 l0 -250 -1000 0
-1000 0 0 250 0 250 1000 0 1000 0 0 -250z"/>
</g>
</svg>
