<?xml version="1.0" standalone="no"?>
<!DOCTYPE svg PUBLIC "-//W3C//DTD SVG 20010904//EN"
 "http://www.w3.org/TR/2001/REC-SVG-20010904/DTD/svg10.dtd">
<svg version="1.0" xmlns="http://www.w3.org/2000/svg"
 width="512.000000pt" height="512.000000pt" viewBox="0 0 512.000000 512.000000"
 preserveAspectRatio="xMidYMid meet">

<g transform="translate(0.000000,512.000000) scale(0.100000,-0.100000)"
fill="#000000" stroke="none">
<path d="M2370 5114 c-295 -27 -573 -95 -830 -206 -586 -251 -1077 -742 -1328
-1328 -91 -212 -151 -425 -189 -670 -24 -161 -24 -539 0 -700 69 -448 234
-849 486 -1184 417 -552 998 -894 1701 -1003 161 -24 539 -24 700 0 703 109
1284 451 1701 1003 252 335 417 736 486 1184 24 161 24 539 0 700 -90 579
-330 1062 -727 1460 -394 394 -884 639 -1450 725 -101 15 -455 27 -550 19z
m507 -359 c403 -59 798 -235 1102 -490 82 -68 241 -229 308 -310 137 -167 294
-451 366 -661 87 -251 120 -454 120 -734 0 -369 -64 -650 -223 -977 -114 -234
-256 -429 -447 -613 -125 -122 -172 -160 -312 -254 -261 -177 -581 -300 -916
-352 -151 -23 -479 -23 -630 0 -335 52 -655 175 -916 352 -140 94 -187 132
-312 254 -191 184 -333 379 -447 613 -159 327 -223 608 -223 977 0 221 13 340
59 529 77 316 243 644 449 890 68 82 229 241 310 308 167 137 451 294 661 366
174 60 391 106 579 121 94 7 364 -3 472 -19z"/>
<path d="M3600 3344 c-22 -9 -275 -254 -700 -679 l-665 -665 -340 340 c-187
187 -354 347 -371 355 -98 46 -223 -20 -241 -128 -12 -79 -6 -86 436 -531 235
-236 430 -424 448 -432 41 -18 95 -18 136 0 19 8 345 328 779 762 661 663 747
753 753 787 11 55 -2 103 -38 144 -54 61 -125 78 -197 47z"/>
</g>
</svg>
