<?xml version="1.0" standalone="no"?>
<!DOCTYPE svg PUBLIC "-//W3C//DTD SVG 20010904//EN"
 "http://www.w3.org/TR/2001/REC-SVG-20010904/DTD/svg10.dtd">
<svg version="1.0" xmlns="http://www.w3.org/2000/svg"
 width="275.000000pt" height="183.000000pt" viewBox="0 0 275.000000 183.000000"
 preserveAspectRatio="xMidYMid meet">

<g transform="translate(0.000000,183.000000) scale(0.100000,-0.100000)"
fill="#000000" stroke="none">
<path d="M765 1763 c-57 -13 -85 -26 -79 -35 5 -7 2 -8 -5 -4 -14 9 -53 -22
-45 -35 3 -5 -1 -6 -9 -4 -15 6 -71 -59 -87 -101 -6 -15 -8 -36 -5 -48 5 -15
4 -17 -3 -7 -13 18 -25 -607 -20 -969 4 -254 6 -279 25 -322 29 -63 86 -124
147 -156 l51 -27 605 -3 c427 -2 621 0 660 8 107 22 198 111 226 222 11 41 14
172 13 628 -1 391 -4 562 -11 535 -5 -22 -7 -91 -4 -152 3 -83 2 -112 -7 -110
-9 1 -13 -107 -17 -438 -6 -502 -3 -488 -95 -577 -82 -80 -60 -78 -731 -78
-508 0 -597 2 -628 15 -20 9 -34 20 -31 24 3 5 -3 7 -12 5 -25 -6 -87 56 -121
119 l-27 52 -3 590 c-2 413 0 602 8 630 15 53 58 114 100 143 19 13 34 29 32
35 -2 7 0 9 3 5 4 -4 24 0 44 10 32 15 96 18 613 22 317 3 574 2 571 -2 -2 -5
9 -8 26 -8 118 0 249 -141 252 -269 0 -33 1 -32 15 18 13 49 13 58 -3 100 -22
56 -96 133 -160 163 l-48 23 -610 2 c-335 0 -619 -1 -630 -4z m1360 -83 c11
-17 -5 -11 -28 11 l-22 21 22 -11 c12 -6 25 -16 28 -21z m56 -57 c7 -16 15
-31 17 -35 2 -5 -1 -8 -8 -8 -6 0 -9 4 -6 9 3 5 -6 20 -21 35 -17 18 -21 26
-11 26 8 0 21 -12 29 -27z m30 -106 c-10 -9 -11 -8 -5 6 3 10 9 15 12 12 3 -3
0 -11 -7 -18z"/>
<path d="M747 1638 c-44 -24 -68 -46 -95 -87 l-37 -56 -3 -572 c-3 -567 -3
-573 19 -623 12 -27 39 -66 61 -86 80 -72 53 -69 653 -72 389 -3 555 0 595 8
64 14 127 61 168 124 l27 41 0 590 0 590 -30 48 c-16 26 -33 47 -36 47 -4 0
-20 13 -37 28 -55 51 -67 52 -668 52 l-559 -1 -58 -31z m1283 -38 c0 -5 -5
-10 -11 -10 -5 0 -7 5 -4 10 3 6 8 10 11 10 2 0 4 -4 4 -10z m-60 -10 c0 -5
-2 -10 -4 -10 -3 0 -8 5 -11 10 -3 6 -1 10 4 10 6 0 11 -4 11 -10z m-315 -10
c-3 -5 -14 -10 -23 -10 -15 0 -15 2 -2 10 20 13 33 13 25 0z m218 -17 c-24 -2
-62 -2 -85 0 -24 2 -5 4 42 4 47 0 66 -2 43 -4z m124 1 c-3 -3 -12 -4 -19 -1
-8 3 -5 6 6 6 11 1 17 -2 13 -5z m-22 -22 c-3 -3 -11 0 -18 7 -9 10 -8 11 6 5
10 -3 15 -9 12 -12z m-51 1 c4 -4 19 -9 34 -11 15 -2 27 -4 27 -5 0 -1 -2 -42
-6 -92 l-6 -90 1 88 c0 48 -3 87 -7 87 -12 0 -6 -192 7 -212 14 -24 26 -23 26
2 0 12 -7 20 -17 21 -17 1 -17 2 0 6 13 3 17 16 19 51 l1 47 4 -42 c4 -38 7
-43 29 -43 21 0 24 4 24 40 0 22 5 40 10 40 6 0 10 -47 10 -120 l0 -120 -32
-1 -33 -2 35 -6 c44 -8 48 -35 5 -39 -16 -2 -47 -8 -68 -13 l-38 -10 2 -106 2
-105 -104 -1 -104 -2 0 -343 0 -342 -152 0 -153 0 0 345 0 345 -95 0 -96 0 3
113 3 112 93 3 92 3 0 82 c1 45 7 100 15 121 8 22 12 43 9 48 -3 4 0 8 6 8 6
0 8 5 5 10 -3 6 -1 10 5 10 6 0 8 6 4 13 -4 6 -4 9 1 5 4 -4 24 7 43 24 69 60
156 84 313 87 42 0 79 -2 83 -6z m186 -52 c0 -9 -7 -3 -15 13 -19 36 -19 47 0
22 8 -11 15 -27 15 -35z m-596 -22 c-9 -15 -20 -10 -20 10 0 15 3 17 13 9 7
-6 10 -14 7 -19z m-53 -20 c-5 -13 -10 -19 -10 -12 -1 15 10 45 15 40 3 -2 0
-15 -5 -28z m667 -143 c3 -123 1 -144 -12 -149 -10 -4 -16 -1 -16 8 0 8 -3 15
-8 15 -12 0 7 239 21 255 6 8 12 14 12 15 0 0 1 -65 3 -144z m-1381 -122 c-3
-3 -12 -4 -19 -1 -8 3 -5 6 6 6 11 1 17 -2 13 -5z m473 -24 c0 -5 -2 -10 -4
-10 -3 0 -8 5 -11 10 -3 6 -1 10 4 10 6 0 11 -4 11 -10z m17 -76 c-3 -3 -12
-4 -19 -1 -8 3 -5 6 6 6 11 1 17 -2 13 -5z"/>
<path d="M1790 1283 c-14 -9 -27 -18 -29 -19 -11 -9 -9 -85 2 -89 21 -7 192
-12 172 -5 -13 4 -15 9 -7 14 7 4 16 4 22 1 6 -3 7 1 4 10 -5 13 -2 15 20 9
18 -4 26 -2 26 7 0 7 -3 9 -7 6 -3 -4 -13 -1 -21 6 -12 9 -16 9 -19 0 -3 -7
-11 -13 -19 -13 -8 0 -14 -7 -14 -15 0 -23 -43 -18 -58 6 -8 12 -9 18 -3 14 7
-4 11 5 11 24 0 29 3 31 35 31 24 0 35 5 35 15 0 22 -117 21 -150 -2z m44 -1
c2 -4 -4 -8 -14 -8 -10 0 -16 4 -14 8 3 4 9 8 14 8 5 0 11 -4 14 -8z m-4 -92
c-20 -13 -40 -12 -40 1 0 5 4 8 8 5 4 -2 14 -1 22 4 8 5 17 7 19 4 3 -3 -1 -9
-9 -14z"/>
<path d="M1950 1285 c0 -8 4 -15 10 -15 5 0 7 7 4 15 -4 8 -8 15 -10 15 -2 0
-4 -7 -4 -15z"/>
<path d="M1760 1151 c0 -7 32 -11 92 -11 50 0 89 2 87 4 -2 2 -43 7 -91 11
-61 5 -88 3 -88 -4z"/>
<path d="M2013 1153 c9 -2 23 -2 30 0 6 3 -1 5 -18 5 -16 0 -22 -2 -12 -5z"/>
<path d="M1955 1140 c3 -5 8 -10 11 -10 2 0 4 5 4 10 0 6 -5 10 -11 10 -5 0
-7 -4 -4 -10z"/>
</g>
</svg>
