<?xml version="1.0" standalone="no"?>
<!DOCTYPE svg PUBLIC "-//W3C//DTD SVG 20010904//EN"
 "http://www.w3.org/TR/2001/REC-SVG-20010904/DTD/svg10.dtd">
<svg version="1.0" xmlns="http://www.w3.org/2000/svg"
 width="512.000000pt" height="512.000000pt" viewBox="0 0 512.000000 512.000000"
 preserveAspectRatio="xMidYMid meet">

<g transform="translate(0.000000,512.000000) scale(0.100000,-0.100000)"
fill="#000000" stroke="none">
<path d="M167 4494 c-31 -10 -64 -30 -92 -59 -81 -80 -75 66 -75 -1875 0
-1941 -6 -1795 75 -1875 64 -65 110 -75 332 -75 l183 0 2 1480 3 1480 980
-714 c539 -394 982 -715 985 -715 3 0 443 319 978 709 535 391 977 710 983
710 5 0 9 -563 9 -1476 l0 -1476 208 4 c189 3 211 5 247 25 47 25 85 64 111
113 18 34 19 99 22 1784 3 1969 8 1820 -73 1901 -53 54 -118 75 -225 75 l-76
0 -690 -503 c-379 -276 -870 -634 -1091 -795 l-403 -294 -1091 796 -1092 796
-81 -1 c-45 0 -103 -7 -129 -15z"/>
</g>
</svg>
