<?xml version="1.0" standalone="no"?>
<!DOCTYPE svg PUBLIC "-//W3C//DTD SVG 20010904//EN"
 "http://www.w3.org/TR/2001/REC-SVG-20010904/DTD/svg10.dtd">
<svg version="1.0" xmlns="http://www.w3.org/2000/svg"
 width="360.000000pt" height="360.000000pt" viewBox="0 0 360.000000 360.000000"
 preserveAspectRatio="xMidYMid meet">

<g transform="translate(0.000000,360.000000) scale(0.100000,-0.100000)"
fill="#000000" stroke="none">
<path d="M1691 3200 c-131 -18 -243 -69 -294 -132 -28 -35 -30 -43 -28 -115 3
-168 52 -404 88 -426 6 -4 13 21 16 59 7 75 10 79 103 124 99 48 165 62 304
62 155 0 250 -19 339 -68 36 -20 68 -38 70 -40 3 -3 7 -37 10 -77 l6 -72 27
40 c15 22 31 58 37 80 5 22 15 58 20 80 6 22 14 108 18 190 l6 150 -40 36
c-45 41 -113 69 -224 94 -87 19 -362 28 -458 15z m404 -159 c111 -29 130 -46
129 -107 0 -27 -4 -74 -8 -105 l-7 -57 -60 30 c-33 17 -83 36 -112 44 -105 28
-270 12 -414 -41 -38 -13 -66 -19 -69 -13 -4 5 -9 56 -11 113 l-6 102 49 17
c156 51 354 58 509 17z m-633 -385 c7 4 8 2 4 -5 -9 -14 -36 3 -36 23 0 6 5 3
11 -7 6 -9 15 -14 21 -11z m878 15 c0 -5 -7 -12 -16 -15 -14 -5 -15 -4 -4 9
14 17 20 19 20 6z"/>
<path d="M2555 2635 c28 -28 52 -49 54 -47 10 6 -38 58 -70 77 -30 18 -29 14
16 -30z"/>
<path d="M1655 2600 c-3 -5 1 -10 9 -10 9 0 16 -7 16 -15 0 -8 -5 -15 -11 -15
-5 0 -7 -4 -4 -10 3 -5 2 -10 -4 -10 -5 0 -12 10 -14 23 -3 15 -5 12 -6 -11 0
-18 6 -40 14 -48 9 -9 15 -11 15 -4 0 6 4 9 9 6 16 -10 31 20 27 54 -5 40 -36
65 -51 40z"/>
<path d="M2072 2598 c-18 -24 -23 -56 -11 -82 7 -14 16 -26 21 -26 5 0 6 5 3
10 -3 6 -1 10 4 10 6 0 11 -6 11 -12 0 -7 6 -2 14 12 26 50 -10 127 -42 88z
m28 -15 c-1 -12 -26 -43 -36 -43 -4 0 -3 5 3 11 6 6 9 18 6 25 -3 8 1 14 11
14 9 0 16 -3 16 -7z"/>
<path d="M2410 2594 c0 -13 58 -69 65 -63 2 3 -11 21 -30 39 -19 19 -35 29
-35 24z"/>
<path d="M2630 2493 c105 -112 195 -203 201 -203 4 0 -7 15 -24 33 -18 18 -71
74 -119 125 -48 50 -91 92 -95 92 -4 0 13 -21 37 -47z"/>
<path d="M1710 2361 c0 -24 52 -110 78 -127 20 -13 29 -14 47 -4 22 12 66 10
110 -5 33 -10 88 52 110 125 7 22 2 19 -35 -17 -85 -85 -212 -81 -283 8 -15
19 -27 28 -27 20z"/>
<path d="M2875 2296 c17 -7 45 -30 63 -50 17 -20 32 -33 32 -29 0 18 -84 93
-104 93 -17 -1 -16 -3 9 -14z"/>
<path d="M2820 2176 c0 -4 13 -21 30 -39 16 -18 30 -27 30 -21 0 5 -13 23 -30
39 -16 16 -30 25 -30 21z"/>
<path d="M2180 2080 c-14 -4 -71 -8 -126 -9 -69 -1 -111 -6 -130 -16 -37 -19
-54 -19 -82 1 -19 13 -35 14 -102 6 -75 -9 -86 -14 -153 -63 -40 -29 -91 -66
-114 -82 -24 -15 -43 -34 -43 -40 0 -42 101 -167 135 -167 7 0 30 16 51 35 41
37 60 44 51 21 -3 -8 -9 -53 -13 -100 -4 -47 -9 -86 -11 -86 -3 0 -30 25 -61
55 -79 80 -79 80 -135 30 l-47 -43 35 -22 c79 -49 152 -158 175 -262 12 -55
11 -62 -25 -190 -20 -73 -44 -143 -52 -156 -7 -12 -11 -27 -8 -33 4 -5 3 -8
-2 -7 -5 2 -29 -14 -54 -34 -25 -21 -72 -50 -105 -65 -54 -26 -69 -28 -174
-28 -110 0 -118 1 -183 33 -267 131 -328 482 -120 690 86 86 241 142 345 125
36 -5 42 -2 92 46 l54 51 -41 12 c-71 22 -241 16 -319 -10 -228 -78 -378 -288
-378 -529 0 -154 52 -278 164 -388 153 -152 361 -201 565 -132 l69 23 22 -23
c50 -52 184 -56 283 -7 52 26 57 31 57 61 0 17 5 44 12 58 9 19 8 34 -1 63
-12 35 -10 52 24 188 21 82 41 156 46 164 10 19 7 26 54 -160 34 -134 36 -149
25 -193 -8 -33 -9 -51 -2 -60 6 -7 12 -30 14 -52 3 -37 7 -41 59 -68 74 -38
170 -47 233 -23 25 9 50 24 56 31 16 19 5 80 -19 104 -10 10 -20 38 -23 63 -3
25 -15 58 -26 74 -12 16 -44 110 -73 208 -49 169 -51 180 -34 192 16 12 16 19
7 56 -11 41 -48 297 -54 367 -3 31 0 35 27 38 17 3 50 13 74 24 24 10 52 19
62 19 15 0 19 8 21 43 3 67 -2 108 -17 144 -15 35 -33 40 -85 23z m-421 -751
c83 -12 101 -18 55 -20 l-29 -1 30 -9 c27 -7 26 -8 -9 -4 -22 2 -42 8 -45 13
-3 5 -13 9 -21 9 -8 0 -30 3 -47 7 -31 7 -33 6 -35 -21 0 -15 0 -39 1 -53 1
-20 -1 -22 -9 -10 -21 32 -7 115 18 105 8 -3 50 -10 91 -16z m332 -1 c-6 -7
-24 -13 -39 -14 -97 -2 -102 -3 -102 -27 0 -24 -17 -47 -34 -47 -7 0 -6 3 1 8
6 4 13 21 15 37 3 28 7 31 63 41 89 16 112 17 96 2z m-175 -17 c-10 -16 -45
-19 -50 -5 -4 10 3 14 25 14 17 0 28 -4 25 -9z m-206 -5 c0 -2 -9 -6 -20 -9
-11 -3 -20 -1 -20 4 0 5 9 9 20 9 11 0 20 -2 20 -4z m293 -13 c-7 -2 -21 -2
-30 0 -10 3 -4 5 12 5 17 0 24 -2 18 -5z m82 -4 c11 -16 1 -19 -13 -3 -7 8 -8
14 -3 14 5 0 13 -5 16 -11z m-348 -5 c-3 -3 -12 -4 -19 -1 -8 3 -5 6 6 6 11 1
17 -2 13 -5z m225 -36 c-7 -7 -12 -8 -12 -2 0 14 12 26 19 19 2 -3 -1 -11 -7
-17z m-334 -62 c-6 -14 -16 -26 -21 -26 -5 0 -4 7 3 15 6 8 8 20 4 26 -5 8 -3
9 6 4 9 -5 10 -1 6 16 -6 20 -5 21 4 7 7 -12 7 -24 -2 -42z m377 13 c9 -17 14
-33 11 -37 -3 -3 -6 1 -6 9 0 12 -2 11 -11 -1 -8 -12 -9 -11 -5 6 5 14 2 21
-9 21 -12 0 -14 -8 -10 -36 5 -35 5 -35 -6 -8 -12 30 -5 77 11 77 5 0 17 -14
25 -31z m-59 -34 c9 -39 0 -30 -15 15 -6 19 -7 30 -2 25 5 -6 13 -23 17 -40z
m-179 3 c-3 -7 -5 -2 -5 12 0 14 2 19 5 13 2 -7 2 -19 0 -25z m281 -12 c-13
-19 -24 -33 -26 -31 -6 6 31 65 40 65 5 0 -2 -15 -14 -34z m-398 3 c-7 -11
-14 -19 -16 -16 -7 7 7 37 17 37 6 0 5 -9 -1 -21z m137 -34 c-4 -8 -12 -15
-19 -14 -10 0 -10 2 0 6 6 2 12 12 12 21 0 8 3 13 6 9 4 -3 4 -13 1 -22z
m-184 -10 c-3 -9 -8 -14 -10 -11 -3 3 -2 9 2 15 9 16 15 13 8 -4z m367 -40 c5
-11 11 -31 13 -45 4 -24 4 -24 6 3 0 16 5 26 10 23 5 -3 7 -15 4 -26 -3 -12 0
-20 6 -20 7 0 9 -5 5 -11 -4 -8 -9 -7 -15 2 -7 11 -9 11 -9 -2 0 -24 10 -29
38 -18 21 8 23 7 13 -5 -11 -13 -64 -30 -57 -17 5 7 -16 91 -32 132 -6 15 -8
30 -4 34 4 4 8 -1 10 -12 2 -10 7 -27 12 -38z m20 10 c0 -5 -5 -3 -10 5 -5 8
-10 20 -10 25 0 6 5 3 10 -5 5 -8 10 -19 10 -25z m-390 -30 c0 -7 8 -16 18
-18 13 -4 12 -5 -5 -6 -12 0 -24 5 -26 12 -3 7 -6 5 -6 -5 -1 -18 3 -20 49
-21 23 0 23 0 3 -4 -22 -4 -33 -23 -14 -23 35 0 71 14 67 26 -7 18 5 18 29 0
17 -12 14 -14 -34 -25 -70 -15 -96 -14 -111 4 -7 9 -8 15 -2 15 5 0 8 9 5 20
-3 11 -3 27 1 35 7 18 26 11 26 -10z m495 5 c3 -5 1 -10 -4 -10 -6 0 -11 5
-11 10 0 6 2 10 4 10 3 0 8 -4 11 -10z m-345 -30 c18 -12 2 -12 -25 0 -13 6
-15 9 -5 9 8 0 22 -4 30 -9z m287 -6 c-3 -3 -12 -4 -19 -1 -8 3 -5 6 6 6 11 1
17 -2 13 -5z m48 -14 c-3 -5 -12 -10 -18 -10 -7 0 -6 4 3 10 19 12 23 12 15 0z
m35 -9 c0 -5 -7 -12 -16 -15 -14 -5 -15 -4 -4 9 14 17 20 19 20 6z m-546 -29
c2 -4 -4 -8 -14 -8 -10 0 -16 4 -14 8 3 4 9 8 14 8 5 0 11 -4 14 -8z m83 -8
c-3 -3 -12 -4 -19 -1 -8 3 -5 6 6 6 11 1 17 -2 13 -5z m388 -26 c-47 -27 -56
-58 -17 -58 25 0 62 -28 56 -43 -7 -19 -89 -21 -104 -2 -7 8 -10 18 -6 22 3 3
6 1 6 -5 0 -8 19 -12 51 -12 27 0 48 4 45 8 -3 5 -20 7 -38 5 -27 -3 -30 -1
-13 7 19 9 18 10 -5 9 -41 -2 -50 0 -50 12 0 18 57 69 77 69 16 -1 16 -2 -2
-12z m-528 -12 c-4 -10 8 -18 39 -26 24 -7 44 -16 44 -19 0 -4 17 -6 38 -4 20
1 29 0 19 -3 -17 -5 -17 -7 -2 -24 16 -17 14 -17 -21 1 -28 15 -52 19 -86 16
-37 -3 -48 -1 -48 10 0 9 5 11 13 7 9 -6 9 -4 -1 8 -11 14 -8 48 5 48 3 0 3
-6 0 -14z m573 -16 c6 -11 8 -24 5 -29 -3 -5 0 -12 5 -14 6 -3 5 -4 -2 -3 -7
2 -12 10 -10 18 1 10 -8 18 -23 22 -14 4 -23 11 -20 16 10 17 34 11 45 -10z
m-43 -16 c-3 -3 -12 -4 -19 -1 -8 3 -5 6 6 6 11 1 17 -2 13 -5z"/>
<path d="M1580 1000 c0 -5 5 -10 10 -10 6 0 10 5 10 10 0 6 -4 10 -10 10 -5 0
-10 -4 -10 -10z"/>
<path d="M1985 880 c3 -5 8 -10 11 -10 2 0 4 5 4 10 0 6 -5 10 -11 10 -5 0 -7
-4 -4 -10z"/>
<path d="M1091 1599 c-53 -16 -31 -19 29 -4 30 7 44 13 30 13 -14 0 -40 -4
-59 -9z"/>
<path d="M985 1545 c-64 -45 -109 -103 -136 -173 -29 -78 -24 -215 10 -281 50
-96 159 -184 244 -197 26 -3 23 -2 -10 10 -98 32 -179 100 -224 188 -34 65
-38 203 -10 279 25 67 86 140 150 180 25 16 41 29 35 29 -6 0 -32 -16 -59 -35z"/>
<path d="M1355 1563 c87 -47 155 -131 179 -223 8 -30 15 -45 15 -33 1 38 -35
122 -73 167 -35 43 -119 106 -140 106 -6 -1 3 -8 19 -17z"/>
<path d="M1178 1293 c6 -2 18 -2 25 0 6 3 1 5 -13 5 -14 0 -19 -2 -12 -5z"/>
<path d="M1143 1275 c-3 -9 -3 -18 -1 -21 3 -3 8 4 11 16 6 23 -1 27 -10 5z"/>
<path d="M1552 1254 c-1 -17 -4 -47 -7 -65 l-5 -34 11 34 c5 18 8 47 6 65 l-4
31 -1 -31z"/>
<path d="M1221 1213 c-9 -10 -24 -13 -45 -9 -22 4 -27 3 -16 -4 8 -5 22 -10
31 -10 18 0 56 26 49 33 -3 3 -11 -2 -19 -10z"/>
<path d="M1516 1104 c-51 -123 -161 -198 -316 -214 -64 -7 -64 -7 -14 -9 99
-2 225 54 282 127 34 43 74 120 70 133 -2 5 -11 -12 -22 -37z"/>
<path d="M2038 189 c-2 -7 -37 -11 -91 -11 l-87 0 0 -34 c0 -19 5 -34 10 -34
6 0 10 5 10 10 0 6 3 9 8 9 32 -5 52 3 52 21 0 11 5 20 10 20 6 0 10 -9 10
-21 0 -11 5 -17 10 -14 6 3 10 -1 10 -9 0 -10 9 -16 25 -16 20 0 25 5 25 24 0
14 4 27 9 30 5 3 8 -2 7 -11 -2 -27 32 -28 37 -1 4 22 4 22 6 2 1 -27 32 -40
46 -20 10 13 12 13 21 0 13 -22 44 -7 44 21 0 22 -4 23 -67 24 -37 0 -69 5
-71 11 -5 13 -19 13 -24 -1z m-130 -37 c2 -7 -3 -12 -12 -12 -9 0 -16 7 -16
16 0 17 22 14 28 -4z m112 3 c0 -8 -7 -15 -15 -15 -8 0 -15 7 -15 15 0 8 7 15
15 15 8 0 15 -7 15 -15z m107 9 c-3 -3 -12 -4 -19 -1 -8 3 -5 6 6 6 11 1 17
-2 13 -5z m60 0 c-3 -3 -12 -4 -19 -1 -8 3 -5 6 6 6 11 1 17 -2 13 -5z m-60
-20 c-3 -3 -12 -4 -19 -1 -8 3 -5 6 6 6 11 1 17 -2 13 -5z m60 0 c-3 -3 -12
-4 -19 -1 -8 3 -5 6 6 6 11 1 17 -2 13 -5z"/>
<path d="M1410 167 c0 -9 -3 -23 -6 -32 -5 -13 -2 -16 17 -13 18 2 24 9 24 28
0 16 -6 26 -17 28 -11 2 -18 -3 -18 -11z m30 -11 c0 -8 -4 -18 -10 -21 -5 -3
-10 3 -10 14 0 12 5 21 10 21 6 0 10 -6 10 -14z"/>
<path d="M1466 163 c-9 -10 -7 -43 3 -43 5 0 7 10 4 23 -4 18 -3 19 6 7 7 -9
11 -10 11 -3 0 15 -15 25 -24 16z"/>
<path d="M1511 161 c-10 -7 -10 -10 -1 -16 9 -6 9 -10 -1 -16 -11 -7 -11 -9
-1 -9 14 0 26 23 20 39 -2 6 -9 7 -17 2z"/>
<path d="M1661 161 c-16 -10 -8 -41 10 -41 8 0 7 5 -2 17 -10 11 -10 14 -1 9
7 -4 12 -1 12 8 0 18 0 19 -19 7z"/>
<path d="M1704 156 c-14 -11 -16 -17 -7 -26 14 -15 29 -7 36 20 6 24 -2 25
-29 6z m16 -10 c0 -3 -4 -8 -10 -11 -5 -3 -10 -1 -10 4 0 6 5 11 10 11 6 0 10
-2 10 -4z"/>
<path d="M1762 148 c2 -12 8 -23 14 -25 17 -6 27 29 12 39 -22 13 -30 9 -26
-14z m28 -2 c0 -3 -4 -8 -10 -11 -5 -3 -10 -1 -10 4 0 6 5 11 10 11 6 0 10 -2
10 -4z"/>
<path d="M1547 153 c-4 -3 -7 -11 -7 -17 0 -6 5 -4 10 4 8 12 10 11 10 -7 0
-13 4 -23 10 -23 14 0 50 32 50 45 0 5 -5 3 -10 -5 -6 -10 -10 -11 -10 -2 0
12 -42 17 -53 5z m43 -7 c0 -3 -4 -8 -10 -11 -5 -3 -10 -1 -10 4 0 6 5 11 10
11 6 0 10 -2 10 -4z"/>
<path d="M1632 140 c0 -14 2 -19 5 -12 2 6 2 18 0 25 -3 6 -5 1 -5 -13z"/>
<path d="M1807 133 c-6 -30 7 -30 20 0 9 18 8 24 -2 24 -7 0 -15 -11 -18 -24z"/>
</g>
</svg>
