<?xml version="1.0" standalone="no"?>
<!DOCTYPE svg PUBLIC "-//W3C//DTD SVG 20010904//EN"
 "http://www.w3.org/TR/2001/REC-SVG-20010904/DTD/svg10.dtd">
<svg version="1.0" xmlns="http://www.w3.org/2000/svg"
 width="1920.000000pt" height="1200.000000pt" viewBox="0 0 1920.000000 1200.000000"
 preserveAspectRatio="xMidYMid meet">
<metadata>
Created by potrace 1.16, written by Peter Selinger 2001-2019
</metadata>
<g transform="translate(0.000000,1200.000000) scale(0.100000,-0.100000)"
fill="#000000" stroke="none">
<path d="M0 6000 l0 -6000 3173 2 c1744 1 3153 3 3130 5 -24 2 -43 8 -43 13 0
5 -10 11 -22 13 -20 4 -19 4 5 6 40 2 33 21 -7 21 -19 0 -38 -4 -41 -10 -3 -5
0 -10 7 -10 7 0 0 -7 -16 -15 -33 -17 -116 -20 -116 -4 0 7 -16 10 -43 8 -38
-4 -43 -2 -39 14 3 13 7 15 12 7 10 -16 182 -1 187 16 5 14 -100 26 -182 20
-33 -2 -46 -2 -30 1 51 7 63 14 40 23 -19 8 -19 9 3 9 12 1 22 -3 22 -9 0 -13
67 -13 75 0 3 6 31 10 61 10 34 0 53 -4 49 -10 -4 -6 10 -10 34 -10 23 0 41 5
41 10 0 6 25 10 56 10 34 0 53 -4 49 -10 -4 -6 10 -10 34 -10 22 0 43 5 46 10
3 6 31 10 61 10 34 0 53 -4 49 -10 -4 -6 10 -10 35 -10 25 0 39 4 35 10 -4 6
17 10 54 10 34 0 61 -4 61 -10 0 -5 16 -10 35 -10 19 0 35 5 35 10 0 6 27 10
60 10 33 0 60 -4 60 -10 0 -5 16 -10 35 -10 19 0 35 5 35 10 0 6 25 10 55 10
30 0 55 -4 55 -10 0 -5 16 -10 35 -10 19 0 35 5 35 10 0 6 27 10 60 10 33 0
60 -4 60 -10 0 -5 14 -10 30 -10 17 0 30 5 30 10 0 6 27 10 60 10 33 0 60 -4
60 -10 0 -5 16 -10 35 -10 19 0 35 5 35 10 0 6 27 10 61 10 37 0 58 -4 54 -10
-4 -6 10 -10 34 -10 23 0 41 5 41 11 0 10 11 10 138 -7 23 -4 42 -2 42 3 0 5
24 9 54 9 30 0 54 -4 53 -9 -1 -5 12 -11 28 -12 17 -2 55 -8 85 -13 l55 -10
-42 -1 c-41 -1 -57 -14 -30 -24 6 -3 -11 -3 -40 0 -28 3 -60 2 -70 -2 -10 -4
-34 -7 -54 -6 -21 1 -40 -2 -44 -8 -3 -6 -26 -11 -51 -11 -25 0 -44 -5 -44
-11 0 -7 15 -9 43 -5 67 9 135 12 131 5 -2 -4 103 -6 234 -5 150 0 237 5 237
11 0 19 16 35 33 34 12 0 9 -3 -7 -10 -19 -8 -22 -12 -12 -22 17 -17 609 -20
630 -3 11 8 13 8 8 -1 -6 -9 189 -12 817 -12 548 -1 827 2 831 9 3 5 11 10 16
10 6 0 7 -5 4 -10 -5 -7 21 -10 77 -8 45 2 82 7 81 12 -4 15 -50 18 -73 6 -16
-8 -20 -8 -18 2 2 9 -12 13 -49 13 -29 0 -51 4 -50 10 1 6 -18 11 -43 13 -24
2 -50 8 -56 13 -6 5 -50 10 -97 12 -47 1 -83 5 -79 8 11 11 92 15 95 6 4 -12
177 2 177 14 0 18 -39 30 -61 18 -12 -6 -19 -7 -15 -1 4 6 -8 9 -31 7 -21 -1
-28 0 -16 2 38 7 26 23 -17 23 -35 0 -40 -3 -40 -22 0 -16 -3 -19 -9 -10 -5 9
-22 12 -49 9 -29 -4 -42 -1 -46 9 -3 8 -20 14 -42 14 -28 0 -35 -3 -30 -15 3
-8 1 -15 -4 -15 -6 0 -10 6 -10 13 0 8 -3 8 -8 2 -4 -6 -20 -8 -37 -4 l-30 7
32 1 c48 2 52 21 4 21 -35 0 -41 -3 -42 -22 -1 -17 -2 -19 -6 -5 -3 13 -15 17
-49 17 -32 0 -43 -3 -38 -12 5 -7 3 -8 -5 -3 -21 12 1 24 52 26 29 2 44 6 38
12 -5 5 -29 6 -53 3 -23 -4 -59 -8 -78 -10 -29 -3 -30 -2 -2 1 45 6 36 29 -9
25 -19 -2 -35 -7 -37 -11 -1 -3 -21 -5 -43 -3 -22 3 -46 -1 -52 -7 -8 -8 1
-11 35 -11 26 0 49 -3 52 -8 2 -4 -37 -3 -87 3 -57 6 -79 11 -57 13 19 2 39 8
45 13 5 5 32 9 59 9 37 0 47 3 39 11 -7 7 -28 9 -55 5 -106 -15 -148 -11 -148
14 0 16 6 18 31 15 44 -5 49 -15 8 -16 -31 -1 -30 -2 11 -9 25 -4 49 -4 55 1
5 5 28 9 52 9 26 0 43 5 43 11 0 8 -19 10 -62 6 -38 -3 -53 -2 -38 3 24 8 23
8 -7 9 -18 1 -33 5 -33 10 0 10 26 8 105 -8 28 -5 68 -10 90 -10 33 0 37 1 22
10 -10 6 -29 8 -42 5 -13 -3 -27 -2 -30 4 -3 5 -26 10 -50 10 -24 0 -47 4 -50
10 -10 16 -72 12 -78 -4 -4 -10 -1 -13 9 -9 7 3 14 0 14 -6 0 -6 -11 -11 -24
-11 -22 0 -27 11 -16 40 6 15 4 36 -5 42 -6 5 -5 8 3 8 7 0 11 4 8 8 -3 5 -6
24 -7 43 -3 53 13 923 17 930 2 4 -6 9 -19 13 -33 9 -49 7 -42 -4 3 -5 15 -10
26 -10 20 0 20 -5 14 -287 -3 -159 -8 -315 -10 -348 -2 -33 -5 -131 -6 -217 0
-113 -4 -158 -12 -158 -8 0 -8 -3 -2 -8 14 -10 15 -52 1 -52 -6 0 -4 -4 4 -10
8 -5 11 -12 7 -16 -3 -4 -12 -2 -19 3 -7 6 -47 14 -88 18 -41 4 -80 11 -85 15
-6 5 -26 10 -45 13 -35 4 -35 4 6 5 22 1 45 -3 51 -9 13 -13 65 -8 70 7 2 6
-11 11 -29 12 -18 1 -55 6 -83 11 -47 8 -48 9 -12 10 49 1 48 21 -1 21 -21 0
-43 5 -49 11 -13 13 -75 8 -80 -8 -3 -7 4 -10 19 -7 22 4 22 4 -2 -7 l-25 -12
25 -4 c61 -9 67 -12 68 -39 0 -17 -4 -22 -10 -16 -6 6 -18 8 -27 6 -9 -3 -6 1
7 8 28 17 19 28 -24 28 -34 0 -60 -20 -27 -20 17 -1 17 -1 -1 -15 -19 -14 -18
-15 5 -24 14 -6 17 -10 9 -10 -9 -1 -20 3 -25 8 -6 5 -26 11 -45 14 l-35 4 38
1 c48 2 48 20 0 25 l-38 4 38 1 c50 3 48 22 -3 22 -31 0 -40 -4 -40 -17 0 -12
-3 -14 -8 -7 -4 7 -47 15 -97 18 -69 5 -84 4 -65 -5 14 -5 35 -8 48 -6 12 2
25 0 28 -4 3 -5 21 -9 40 -9 19 0 34 -4 34 -8 0 -5 -14 -7 -30 -4 -17 2 -37
-1 -45 -8 -9 -8 -15 -8 -15 -2 0 6 6 12 13 15 6 2 -9 6 -35 8 -31 3 -48 0 -48
-7 0 -6 -20 -12 -47 -12 -114 -3 -143 -7 -143 -19 0 -8 15 -14 38 -15 l37 -1
-35 -4 c-54 -7 -61 -23 -10 -25 41 -1 42 -2 10 -5 -52 -6 -62 -23 -13 -23 23
0 44 -4 47 -9 3 -4 -12 -6 -34 -4 -30 4 -41 1 -46 -11 -8 -20 -106 -24 -101
-3 2 13 -55 22 -81 12 -14 -5 -14 -7 -2 -15 10 -7 -5 -10 -47 -10 -45 0 -62 4
-60 13 1 8 -11 12 -38 12 -22 0 -42 3 -45 7 -8 11 -81 13 -88 3 -9 -13 -92
-17 -92 -5 0 5 -17 11 -37 13 l-38 4 38 1 c25 1 37 7 37 17 0 8 -8 15 -17 16
-12 1 -9 4 7 9 28 8 16 16 -35 23 -23 3 -20 4 13 6 55 1 55 19 0 24 l-43 4 43
1 c24 1 42 7 42 13 0 8 -17 10 -52 6 -33 -3 -46 -2 -33 3 11 5 37 9 57 9 40 1
64 21 26 22 l-23 0 25 12 c24 11 23 11 -17 15 -24 2 -43 7 -43 12 0 5 -12 11
-27 13 l-28 4 28 2 c33 1 36 18 5 24 -13 2 -9 3 7 2 17 -2 39 -5 50 -8 11 -2
29 -1 40 4 l20 8 -20 1 c-11 2 -26 2 -33 1 -20 -3 -42 18 -36 34 4 9 -4 15
-23 18 -15 2 4 3 42 2 39 -1 56 -1 38 2 -17 2 -37 11 -43 19 -15 17 -7 18 19
3 11 -8 28 -9 47 -4 28 9 27 9 -16 14 -42 6 -45 8 -45 36 1 29 3 30 48 33 26
2 47 8 47 14 0 7 -17 9 -46 5 -26 -2 -42 -2 -37 2 6 3 9 16 8 29 -2 27 7 34
60 44 31 5 26 6 -25 4 -36 -2 -55 -1 -42 1 12 2 22 10 23 16 2 29 10 60 20 76
9 14 10 14 5 -1 -4 -15 1 -18 32 -17 30 2 32 3 10 6 -16 2 -28 9 -28 14 0 5
12 10 28 10 21 2 18 3 -13 9 l-40 7 44 2 c49 1 49 9 -1 21 l-33 8 40 2 40 3
-40 7 -40 7 38 2 c46 1 49 18 5 24 -32 4 -31 4 7 7 l40 3 -35 7 -35 7 40 2
c42 1 39 16 -5 24 -21 3 -19 5 10 7 l35 3 -35 7 -35 7 33 2 c37 1 43 17 10 24
-19 4 -18 5 7 7 l30 2 -30 8 -30 8 35 2 35 2 -30 8 -30 8 28 1 c32 1 37 20 5
22 -19 1 -17 3 7 9 28 7 29 8 5 10 l-25 2 25 8 c21 7 22 8 5 10 l-20 1 20 9
c14 6 15 9 5 10 -11 0 -10 4 5 12 19 11 19 11 0 19 -20 7 -20 8 0 9 l20 1 -20
9 c-19 8 -19 9 3 9 13 1 20 5 17 11 -4 6 -11 8 -16 5 -5 -4 -9 -1 -9 4 0 6 8
11 18 12 14 0 14 2 -3 9 -18 8 -18 9 5 10 23 1 23 2 5 9 l-20 8 20 5 c18 5 18
6 -2 7 -13 0 -23 6 -23 12 0 6 6 9 13 6 8 -3 20 -1 28 4 9 7 -6 9 -45 5 -37
-2 -54 -1 -45 5 11 7 10 9 -6 10 -14 1 -10 4 10 9 l30 8 -31 1 c-28 1 -33 5
-42 40 -9 38 -9 40 17 44 24 4 24 4 -5 6 -26 1 -32 6 -41 36 -8 26 -8 35 0 35
8 0 7 4 -2 9 -11 7 -11 9 0 14 9 4 7 6 -6 7 -17 2 -16 3 5 10 l25 8 -25 1
c-24 1 -29 11 -78 159 -28 86 -57 183 -63 215 -7 32 -20 67 -30 78 -16 19 -39
126 -54 247 -4 39 -2 52 7 51 7 0 65 -6 128 -12 104 -11 115 -14 118 -33 2
-16 -5 -23 -30 -30 -29 -8 -33 -14 -36 -47 -2 -28 0 -37 13 -37 17 0 51 -18
73 -37 25 -23 51 -15 69 22 16 33 20 35 64 35 39 0 49 -4 54 -20 3 -11 15 -25
26 -30 16 -9 24 -6 43 15 13 14 31 25 40 25 25 0 23 86 -3 95 -27 8 -34 34
-16 61 24 37 48 38 86 3 44 -41 114 -76 172 -84 37 -6 58 -3 95 13 36 15 65
19 127 17 483 -16 490 -16 535 -35 69 -28 297 -47 369 -30 93 21 218 24 286 6
84 -23 224 -32 266 -17 19 7 129 16 244 21 307 13 408 37 553 133 123 82 194
169 430 524 89 133 170 244 180 247 11 4 25 24 33 49 7 23 56 107 107 187 52
80 107 171 123 202 99 196 182 489 195 692 5 65 11 95 22 104 21 16 32 15 32
-3 0 -19 26 -19 34 0 3 8 17 15 31 15 20 0 29 7 36 30 9 25 37 43 198 125 126
65 210 115 259 156 40 33 159 160 265 282 105 122 217 246 247 276 l55 54 6
-29 c3 -17 0 -38 -9 -53 -9 -15 -12 -37 -8 -59 5 -31 0 -41 -44 -92 -59 -68
-211 -270 -230 -305 -18 -34 -1 -51 66 -65 30 -6 54 -13 54 -16 0 -2 -15 -27
-34 -57 -47 -73 -147 -275 -189 -382 -204 -515 -222 -1144 -50 -1680 69 -213
192 -471 305 -638 21 -31 36 -62 33 -67 -4 -6 -2 -9 3 -8 5 2 49 -46 97 -107
49 -60 97 -118 108 -128 11 -9 16 -17 11 -17 -5 0 1 -7 13 -15 14 -10 20 -21
16 -32 -5 -11 -3 -14 6 -8 8 4 27 -7 52 -31 l40 -39 -28 -7 c-23 -6 -22 -7 8
-4 29 4 41 -1 62 -24 18 -19 23 -30 15 -32 -21 -7 20 -41 42 -35 11 3 26 -3
35 -13 16 -18 15 -19 -12 -23 -19 -3 -17 -4 7 -2 39 2 90 -31 82 -54 -3 -10 1
-12 13 -7 15 5 16 4 5 -9 -11 -13 -7 -15 26 -16 38 -1 38 -2 9 -9 -29 -7 -29
-8 9 -9 24 -1 48 -10 67 -25 33 -28 29 -31 -67 -42 -38 -4 -63 -9 -56 -11 17
-6 15 -23 -3 -23 -8 0 -15 5 -15 10 0 6 -13 10 -30 10 -16 0 -30 -4 -30 -10 0
-5 8 -10 18 -10 14 0 15 -2 2 -10 -8 -5 -30 -10 -49 -10 -19 0 -32 -3 -28 -6
9 -9 207 18 207 28 0 4 -10 8 -22 9 -43 1 12 16 82 22 42 4 56 3 40 -2 -14 -5
-19 -9 -12 -10 6 -1 12 -8 12 -16 0 -10 10 -15 31 -15 34 0 31 19 -4 21 -17 1
-18 2 -5 6 10 2 31 -5 47 -16 16 -12 34 -21 40 -21 8 0 8 -4 -1 -13 -7 -8 -21
-12 -31 -9 -15 4 -16 7 -5 14 8 6 -6 8 -42 4 -154 -16 -155 -16 -130 -7 14 5
40 9 58 10 17 1 32 6 32 12 0 5 -4 7 -10 4 -6 -3 -10 1 -10 9 0 11 -9 16 -30
16 -16 0 -30 -4 -30 -10 0 -5 5 -10 11 -10 5 0 8 -4 5 -9 -3 -5 -37 -12 -76
-16 -38 -4 -70 -11 -70 -16 0 -5 8 -9 18 -9 14 0 15 -2 2 -10 -8 -5 -30 -10
-49 -10 -19 0 -32 -3 -29 -6 4 -3 38 -2 78 2 50 5 68 10 61 17 -14 14 -14 27
-1 27 6 0 10 -7 10 -16 0 -14 8 -16 53 -11 35 4 47 3 37 -3 -8 -5 -30 -10 -47
-10 -18 0 -33 -4 -33 -10 0 -5 8 -7 18 -4 14 5 14 4 2 -5 -25 -18 16 -25 86
-14 35 5 67 6 71 2 5 -4 24 -9 43 -11 26 -3 16 -6 -40 -13 -41 -6 -78 -7 -81
-2 -8 11 -150 -3 -143 -14 3 -5 -2 -6 -10 -3 -25 10 -8 24 30 24 19 0 34 5 34
10 0 6 -12 8 -27 5 -16 -3 -57 -10 -93 -15 -36 -5 -80 -12 -98 -15 -23 -4 -32
-3 -27 4 7 13 -28 13 -95 2 -34 -6 -41 -10 -27 -16 10 -4 29 -3 43 4 32 14 34
14 34 -4 0 -10 11 -15 35 -15 19 0 35 4 35 8 0 4 16 6 35 4 21 -3 35 0 35 7 0
18 18 13 25 -7 5 -17 11 -18 62 -10 31 5 61 7 67 4 6 -2 -2 -5 -17 -5 -16 -1
-26 -5 -23 -9 5 -9 146 8 146 17 0 8 79 5 87 -3 3 -3 24 -6 46 -6 33 0 37 2
28 14 -8 10 -9 16 -1 21 6 4 9 1 8 -7 -2 -8 11 -15 37 -18 35 -5 28 -7 -51
-18 -101 -13 -134 -14 -89 -1 21 6 11 7 -35 4 -36 -3 -74 -7 -85 -9 -11 -3
-32 -5 -47 -5 -16 -1 -28 -6 -28 -12 0 -8 19 -10 63 -6 42 4 56 3 42 -4 -14
-6 6 -8 60 -4 44 2 76 3 70 0 -20 -9 -154 -21 -149 -13 3 4 -11 8 -30 8 -26 0
-36 -4 -36 -16 0 -9 5 -12 12 -8 7 4 8 3 4 -4 -5 -8 6 -12 35 -12 52 0 48 -5
-9 -13 -24 -3 -40 -1 -36 4 3 5 -7 10 -23 10 -17 1 -21 3 -10 6 9 2 17 10 17
17 0 9 -17 9 -70 2 -80 -11 -96 -31 -19 -24 29 3 45 2 37 -3 -11 -7 -11 -9 1
-9 11 0 11 -3 1 -15 -7 -8 -23 -15 -37 -15 -13 0 -22 -4 -19 -9 3 -5 -15 -6
-41 -3 -33 3 -44 2 -39 -7 4 -6 15 -11 24 -11 15 0 15 -2 2 -10 -8 -5 -30 -10
-48 -10 -20 0 -31 -4 -27 -10 7 -12 65 -14 65 -2 0 5 6 9 14 9 8 0 12 -6 9
-13 -2 -7 -35 -15 -79 -19 -41 -4 -74 -11 -74 -16 0 -12 57 -12 64 0 3 5 40
12 81 16 41 4 75 10 75 14 0 4 14 6 30 3 17 -2 36 1 44 7 8 7 17 8 20 3 9 -15
-5 -22 -41 -22 -19 0 -32 -4 -29 -9 3 -5 25 -5 48 -1 66 12 178 20 143 10 -16
-4 -46 -8 -67 -9 -31 -1 -35 -4 -31 -21 4 -16 0 -20 -18 -20 -13 0 -42 -2 -64
-5 -32 -4 -35 -3 -15 4 14 5 40 9 58 10 17 1 32 6 32 11 0 12 -67 13 -74 1 -3
-4 -31 -11 -63 -15 -142 -15 -163 -19 -163 -29 0 -6 23 -8 63 -4 38 4 54 2 42
-3 -11 -5 -37 -9 -57 -9 -21 -1 -38 -6 -38 -12 0 -7 17 -10 45 -7 25 2 45 0
45 -4 0 -5 18 -8 41 -8 33 0 40 3 35 16 -3 9 -6 18 -6 20 0 2 -10 4 -22 4 -12
0 -19 2 -16 5 3 3 29 1 59 -4 41 -6 46 -9 21 -10 -48 -2 -30 -21 21 -22 31 -1
21 -4 -35 -12 -83 -10 -110 -32 -33 -25 25 2 45 0 45 -4 0 -5 -19 -8 -42 -8
l-41 0 19 -21 19 -22 -95 7 c-62 5 -92 4 -85 -2 6 -6 19 -12 30 -15 17 -4 16
-5 -5 -6 -18 -1 -21 -4 -12 -10 8 -5 -8 -6 -39 -3 -37 3 -50 2 -45 -7 4 -6 28
-12 54 -12 37 -1 29 -4 -35 -11 -111 -13 -111 -32 0 -23 45 4 83 11 85 16 2 5
16 8 30 8 21 -1 23 -2 7 -6 -11 -3 -24 -9 -30 -14 -5 -5 -23 -9 -41 -9 -18 0
-35 -6 -37 -12 -3 -7 -6 -8 -6 -3 -1 15 -71 6 -71 -9 0 -7 16 -11 43 -10 27 2
32 1 12 -3 -16 -2 -34 -9 -40 -15 -7 -7 16 -9 75 -5 70 5 77 4 40 -4 -25 -5
-80 -7 -124 -3 -57 4 -77 3 -72 -5 4 -6 25 -11 46 -11 21 0 41 -3 43 -7 3 -5
-15 -6 -40 -4 -32 2 -43 0 -39 -8 4 -6 26 -12 49 -13 l42 -1 -45 -7 c-46 -6
-40 -16 15 -23 27 -4 26 -4 -7 -6 -21 0 -38 -5 -38 -11 0 -5 -5 -10 -11 -10
-8 0 -8 5 1 15 11 13 7 15 -29 15 -28 0 -40 -4 -35 -11 3 -6 15 -9 25 -6 11 3
19 1 19 -4 0 -5 -10 -9 -22 -9 -29 0 -17 -11 24 -20 l33 -8 -35 -1 c-26 -1
-31 -4 -22 -13 7 -7 12 -17 12 -22 0 -6 -5 -3 -11 7 -5 9 -20 17 -32 18 -20 1
-20 2 3 8 38 11 14 18 -85 25 -63 5 -86 4 -75 -3 8 -6 31 -11 50 -12 39 -1 96
-16 68 -18 -35 -2 -17 -21 20 -21 27 0 33 -3 22 -10 -20 -13 -60 -13 -60 0 0
6 -16 10 -35 10 -19 0 -35 -4 -35 -10 0 -5 -25 -10 -55 -10 -30 0 -55 5 -55
10 0 6 -16 10 -35 10 -19 0 -35 -4 -35 -10 0 -5 -24 -10 -54 -10 -30 0 -58 5
-61 10 -9 15 -49 12 -81 -5 l-29 -15 30 0 c89 1 175 -3 143 -7 -21 -2 -38 -7
-38 -11 0 -4 -18 -6 -40 -4 -25 3 -40 0 -40 -7 0 -14 77 -15 85 -1 3 6 17 7
29 4 14 -3 29 0 37 9 15 15 123 21 114 7 -8 -13 30 -22 61 -14 26 7 26 8 9 16
-20 8 -20 8 0 5 11 -1 20 -9 20 -17 0 -10 15 -17 45 -21 l45 -6 -38 -1 c-46
-2 -41 -21 6 -23 30 -2 31 -2 5 -6 -16 -2 -28 -9 -28 -14 0 -5 -18 -9 -40 -9
-22 0 -40 -4 -40 -10 0 -5 5 -10 12 -10 6 0 8 -3 5 -6 -4 -4 -12 -2 -19 3 -7
6 -30 8 -52 5 -141 -17 164 -22 1544 -22 1008 0 1550 4 1540 10 -13 8 -12 10
3 10 9 0 17 -4 17 -10 0 -7 415 -10 1225 -10 l1225 0 0 1489 0 1489 -40 -1
c-22 -1 -40 -5 -40 -10 0 -11 -51 -29 -82 -29 -15 0 -30 -4 -33 -9 -4 -5 -1
-9 6 -9 9 0 10 -3 3 -10 -5 -5 -45 -11 -89 -13 -47 -3 -81 -9 -83 -16 -2 -6
-12 -11 -23 -11 -10 0 -19 -4 -19 -8 0 -5 -39 -17 -87 -26 -98 -19 -115 -26
-87 -37 12 -5 1 -8 -34 -8 -33 -1 -51 3 -47 9 12 19 -3 10 -36 -23 -34 -34
-109 -58 -109 -35 0 6 -9 3 -20 -7 -11 -10 -20 -26 -20 -35 0 -15 -47 -46 -56
-37 -2 2 6 66 18 143 29 190 31 520 4 709 -23 159 -81 396 -131 530 -85 228
-243 513 -391 702 -127 162 -357 379 -532 503 -65 46 -75 60 -43 60 47 0 151
55 151 80 0 19 -82 32 -240 37 -96 3 -177 9 -180 13 -6 9 -132 60 -147 60 -6
0 -16 7 -23 14 -6 8 -37 20 -68 26 -31 7 -69 18 -84 26 -16 9 -50 21 -78 28
-49 13 -49 13 -59 -13 l-10 -26 2 29 c2 26 -2 30 -53 48 -30 10 -64 18 -75 16
-11 -1 -25 0 -30 4 -6 3 -66 18 -135 33 -132 28 -377 53 -495 49 -146 -4 -275
-16 -269 -25 3 -5 -12 -9 -33 -10 -21 0 -54 -2 -73 -4 -39 -3 -70 9 -70 28 0
12 65 37 95 37 10 0 13 5 9 12 -5 8 2 9 26 5 19 -4 50 -1 75 7 39 14 148 22
340 27 44 1 71 4 60 6 -10 3 -28 11 -40 18 -32 20 -199 28 -331 15 -65 -7
-123 -15 -129 -18 -14 -10 -156 -43 -180 -42 -26 0 -155 -31 -155 -37 0 -12
56 -92 67 -97 7 -3 31 1 54 9 44 16 98 20 85 8 -4 -5 -35 -17 -69 -29 -47 -16
-61 -25 -59 -38 6 -34 71 -166 81 -166 6 0 11 -8 11 -19 0 -28 49 -134 69
-147 10 -7 23 -32 30 -56 25 -81 44 -133 55 -147 13 -17 -9 -34 -82 -61 -56
-21 -62 -21 -65 2 -3 19 -56 119 -72 134 -11 11 -22 11 -62 -1 -26 -8 -49 -15
-49 -15 -1 0 -4 8 -6 18 -6 22 7 42 44 66 l27 18 -21 39 c-11 21 -24 42 -29
45 -5 3 -7 9 -4 14 9 14 -24 20 -52 9 -40 -15 -49 4 -14 33 l30 26 -70 153
c-38 85 -92 199 -119 254 -54 108 -100 220 -100 242 0 7 -5 13 -12 13 -9 0 -9
3 0 12 7 7 12 20 12 30 0 11 10 20 28 24 52 11 59 14 80 35 21 19 32 66 12 54
-5 -3 -43 -14 -84 -25 -66 -17 -80 -17 -113 -6 -34 12 -38 17 -38 49 0 20 -6
41 -12 48 -7 7 -13 9 -13 3 -1 -5 -7 2 -15 16 -7 14 -22 25 -32 25 -10 0 -17
6 -16 13 3 11 -10 17 -31 13 -15 -3 -70 22 -91 42 -12 11 -28 16 -42 12 -12
-3 -28 1 -35 8 -7 8 -19 12 -27 9 -8 -3 -11 0 -7 6 4 6 -7 15 -26 21 -18 5
-87 28 -153 51 -128 45 -368 115 -448 131 -113 23 -204 51 -229 69 -138 101
-592 268 -1052 387 -102 26 -161 36 -213 36 -40 -1 -73 3 -73 8 0 9 10 11 205
34 78 9 143 22 147 28 5 8 42 12 100 13 51 1 172 9 268 18 221 20 361 20 438
1 343 -88 1177 -503 1409 -701 l42 -36 30 29 30 30 203 -38 c233 -44 242 -45
234 -24 -7 18 -7 18 119 0 55 -8 107 -15 115 -15 40 0 270 214 270 252 0 3 -9
10 -20 13 -11 3 -20 11 -20 16 0 6 -4 8 -9 4 -5 -3 -13 4 -16 16 -5 15 -11 18
-23 13 -10 -4 -44 -8 -76 -8 -49 1 -60 4 -62 19 -2 16 -41 66 -56 73 -5 2 -8
8 -8 14 0 5 -15 28 -34 50 -19 22 -42 57 -51 77 -136 296 -415 738 -569 898
-48 51 -94 93 -100 93 -6 0 -23 10 -37 23 -14 12 -33 27 -42 32 -9 6 -92 61
-184 124 -217 148 -554 354 -777 475 -37 21 -81 51 -97 67 -25 26 -26 30 -11
38 13 8 13 10 3 11 -8 0 -12 2 -10 5 6 5 69 -5 183 -29 43 -10 80 -15 82 -13
9 9 -9 37 -19 30 -5 -3 -7 -1 -4 4 7 10 -82 181 -111 215 -7 9 -11 21 -8 26 3
5 -3 21 -14 34 -12 16 -17 33 -13 49 5 23 5 23 -10 4 -14 -19 -15 -18 -11 10
4 28 3 28 -7 -4 -9 -29 -8 -35 10 -47 24 -18 18 -42 -15 -55 -15 -5 -24 -17
-24 -30 0 -11 -3 -19 -7 -17 -93 42 -234 123 -291 167 -41 31 -92 68 -114 83
-22 15 -49 35 -60 45 -18 16 -18 18 -1 24 17 7 16 8 -2 8 -11 1 -26 5 -34 10
-12 8 -12 12 -2 25 7 8 11 19 8 23 -9 15 12 53 30 53 15 0 16 2 3 10 -24 16
-40 12 -50 -12 -8 -22 -9 -22 -9 5 -1 29 -32 67 -56 67 -8 0 -15 7 -15 15 0
11 8 13 30 9 36 -8 49 14 32 52 -14 30 -57 33 -72 5 -5 -11 -19 -22 -29 -26
-29 -9 -36 -43 -15 -66 21 -24 7 -25 -23 -1 -20 16 -21 20 -10 60 6 23 16 42
23 42 10 0 21 20 38 73 3 9 14 17 24 17 10 0 22 4 27 9 6 5 27 11 47 12 48 4
83 -21 134 -97 61 -90 60 -88 35 -81 -15 4 -30 -3 -50 -21 -37 -36 -46 -62
-21 -62 25 0 60 -46 60 -81 0 -16 -9 -37 -22 -49 l-22 -20 43 0 c67 0 323 -73
358 -102 22 -18 14 4 -9 23 -11 11 -18 19 -15 19 4 0 -9 25 -28 55 l-35 55 38
6 c70 11 81 100 15 125 -15 5 -60 17 -100 26 -64 14 -76 20 -93 48 -11 18 -36
43 -55 56 -19 13 -35 30 -35 37 0 6 -5 12 -11 12 -19 0 -89 63 -89 81 0 25
-11 49 -22 49 -5 0 -21 9 -35 20 -14 11 -33 20 -43 20 -47 0 -66 91 -38 183
11 38 13 39 19 16 4 -14 6 -3 5 29 -1 29 4 56 9 60 6 4 11 18 13 32 1 14 10
32 18 40 15 14 15 13 5 -7 -15 -29 -15 -54 0 -33 9 13 10 13 6 -1 -3 -9 -1
-35 5 -58 9 -34 15 -41 34 -41 13 0 24 -3 24 -8 0 -4 10 -12 23 -17 12 -6 26
-20 32 -32 5 -13 22 -25 40 -29 16 -3 35 -10 40 -14 6 -4 25 -11 42 -15 18 -3
36 -11 39 -17 5 -7 2 -8 -5 -3 -10 5 -10 3 -1 -12 8 -11 22 -18 39 -17 14 1
31 -3 38 -8 6 -5 25 -10 42 -10 17 -1 31 -5 31 -10 0 -4 7 -8 15 -8 8 0 15 -4
15 -9 0 -5 -9 -7 -20 -4 -11 3 -20 8 -20 12 0 3 -10 7 -22 7 -46 3 -78 9 -78
15 0 6 -72 13 -134 11 -44 -1 -45 -1 -70 -76 -18 -53 -18 -57 -2 -75 11 -12
13 -20 6 -23 -7 -2 -2 -12 12 -23 16 -14 19 -15 9 -3 -19 25 -7 35 51 41 40 4
76 -2 148 -24 52 -15 108 -31 123 -34 29 -6 69 -58 61 -80 -3 -7 0 -16 6 -20
13 -8 42 13 35 25 -3 5 -2 11 3 14 5 3 15 30 22 60 7 31 17 53 22 50 21 -13 5
17 -19 36 -17 13 -23 24 -17 28 6 4 14 14 18 22 3 8 4 3 1 -12 -5 -26 2 -33
28 -29 4 0 7 -6 7 -15 0 -8 5 -12 11 -8 7 4 7 -1 -1 -16 -11 -20 -10 -21 9
-15 17 5 20 2 18 -22 -3 -36 27 -43 54 -12 22 25 22 25 10 -18 -7 -26 -7 -31
5 -26 8 3 14 9 14 14 0 5 14 9 31 9 28 0 30 -2 25 -28 -6 -27 -6 -27 39 -24
28 3 45 0 45 -7 0 -6 9 -11 20 -11 16 0 20 -7 20 -30 0 -28 2 -30 20 -20 18 9
20 8 20 -15 0 -22 4 -25 39 -25 29 0 42 6 54 23 l15 22 26 -28 c14 -15 26 -34
26 -41 0 -16 22 -26 55 -26 17 0 24 -7 29 -31 7 -38 32 -34 28 5 -1 14 2 26 9
26 6 0 8 7 5 16 -3 8 -2 12 4 9 6 -3 10 -13 10 -21 0 -8 3 -14 8 -14 4 0 5
-22 4 -50 -3 -43 -7 -50 -25 -51 -17 -1 -18 -2 -4 -6 9 -2 17 -10 17 -18 0
-17 -27 -38 -39 -30 -6 3 -25 -2 -43 -12 -18 -9 -37 -16 -41 -15 -5 1 -6 -2
-3 -7 3 -5 -22 -42 -56 -83 -33 -40 -115 -145 -181 -233 l-119 -159 38 -13
c22 -8 95 -30 164 -49 133 -39 323 -101 353 -116 14 -7 30 0 69 28 l52 37 17
-22 c10 -12 19 -21 21 -20 9 5 64 -38 61 -48 -2 -6 1 -15 8 -19 8 -4 9 -3 5 4
-12 20 5 14 42 -14 23 -18 30 -29 22 -34 -8 -5 -7 -9 5 -13 9 -4 13 -3 10 3
-3 6 -2 10 2 10 10 0 129 -119 126 -125 -2 -3 -1 -4 2 -2 11 6 83 -77 80 -94
-3 -17 27 -36 48 -31 5 1 6 -2 2 -8 -3 -5 1 -10 10 -10 9 0 22 -6 30 -12 7 -7
25 -22 41 -33 15 -11 47 -36 70 -55 24 -19 54 -43 69 -53 14 -11 24 -21 21
-24 -3 -3 4 -24 16 -45 18 -32 20 -42 10 -58 -7 -11 -12 -30 -11 -42 1 -22 1
-22 9 2 5 14 6 -12 3 -62 -6 -86 -5 -88 20 -108 15 -12 24 -27 21 -35 -4 -8 2
-29 13 -47 10 -18 30 -62 43 -98 13 -36 25 -67 27 -69 7 -9 112 -11 117 -2 4
5 -1 17 -11 26 -14 14 -14 18 -2 26 11 7 11 9 -3 9 -10 0 -18 4 -18 9 0 5 -3
17 -6 26 -4 9 -3 15 2 14 21 -4 35 2 29 11 -3 6 0 10 9 10 8 0 16 5 18 12 8
22 -88 452 -148 668 -79 282 -134 402 -276 613 -33 49 -56 92 -52 99 4 6 3 8
-4 4 -12 -7 -44 33 -36 46 3 5 0 7 -7 6 -6 -2 -14 3 -17 11 -3 9 0 11 8 6 9
-5 11 -4 6 4 -4 6 -11 9 -16 6 -5 -3 -19 9 -31 27 -12 18 -27 38 -34 43 -6 6
-30 35 -54 65 -24 30 -57 71 -75 90 -64 73 -67 78 -57 84 6 4 23 -10 38 -31
26 -35 41 -45 68 -46 6 0 11 -14 10 -31 0 -28 3 -31 28 -28 15 1 27 -2 27 -8
0 -9 -14 -14 -32 -11 -4 0 -4 -7 -1 -16 4 -11 8 -13 11 -5 2 7 8 12 13 12 4 0
6 -7 3 -15 -4 -10 0 -13 16 -10 13 2 20 2 18 -1 -3 -2 8 -19 24 -36 20 -21 28
-38 24 -52 -5 -21 -5 -21 9 -2 15 20 15 20 16 0 0 -10 3 -13 6 -6 9 22 21 13
27 -23 4 -19 12 -37 18 -41 7 -5 9 0 6 14 -4 12 -2 20 3 16 5 -3 9 -11 9 -18
0 -14 53 -56 70 -56 6 0 8 -4 5 -10 -3 -5 -1 -10 4 -10 6 0 11 -7 11 -15 0
-12 4 -13 19 -6 22 12 34 2 50 -42 11 -29 31 -37 31 -12 0 23 17 18 48 -15 16
-16 37 -30 46 -30 9 0 16 -4 16 -10 0 -5 11 -10 25 -10 16 0 23 -5 19 -13 -6
-18 33 -58 51 -51 16 6 37 -11 48 -38 7 -20 37 -24 54 -7 9 9 20 5 45 -12 18
-13 35 -26 38 -29 8 -10 70 -30 70 -23 0 15 29 -33 30 -48 0 -24 40 -33 40 -9
0 11 5 22 10 25 6 3 10 -1 10 -9 0 -9 5 -16 10 -16 6 0 10 -9 10 -21 0 -12 11
-30 25 -40 15 -13 22 -26 18 -37 -5 -14 -4 -14 9 2 8 11 22 16 34 13 17 -4 16
-5 -3 -6 -38 -2 -26 -18 24 -35 31 -11 49 -13 51 -6 2 6 16 3 33 -7 16 -10 27
-23 25 -29 -3 -7 3 -10 15 -7 13 4 25 -2 35 -16 9 -12 21 -21 27 -20 7 1 19 1
27 0 12 -1 12 -4 -2 -12 -32 -18 -21 -45 22 -58 22 -6 40 -16 40 -21 0 -6 6
-10 13 -10 6 0 26 -13 43 -29 22 -21 38 -28 53 -24 24 6 29 -15 9 -35 -9 -9
-5 -12 21 -12 22 0 42 -9 64 -30 18 -16 38 -30 45 -30 16 0 16 -17 0 -22 -19
-7 13 -35 43 -40 16 -2 24 -9 23 -21 -2 -18 30 -24 41 -7 3 6 15 10 26 10 10
0 19 -4 19 -10 0 -5 -4 -10 -10 -10 -20 0 -10 -41 13 -50 34 -14 57 -36 57
-53 0 -8 7 -18 16 -21 13 -5 15 -2 11 14 -4 18 0 20 34 20 21 0 39 -4 39 -9 0
-5 12 -11 28 -13 35 -4 37 -33 2 -32 -25 1 -50 -16 -50 -35 0 -16 17 -13 24 4
3 10 19 15 45 15 30 0 40 -4 44 -20 3 -12 14 -20 27 -20 14 0 24 -8 28 -22 5
-18 8 -13 13 22 l6 45 1 -42 c2 -39 4 -42 34 -45 26 -2 33 -8 40 -35 5 -18 17
-37 28 -43 10 -5 21 -19 25 -30 4 -11 21 -23 42 -29 38 -11 103 -66 103 -88 0
-7 6 -13 13 -13 16 0 67 -52 67 -68 0 -7 5 -12 11 -12 6 0 30 -14 55 -31 24
-16 49 -27 54 -24 6 3 10 1 10 -6 0 -6 20 -31 45 -55 33 -33 52 -44 75 -44 20
0 30 -5 30 -15 0 -15 57 -75 71 -75 5 0 9 -8 9 -18 0 -11 11 -24 25 -30 14 -7
22 -17 19 -25 -3 -8 2 -20 11 -27 14 -12 18 -11 25 0 5 8 13 11 17 6 4 -5 2
-11 -5 -13 -21 -8 -13 -20 26 -37 53 -22 82 -50 82 -79 0 -29 15 -44 50 -49
14 -1 26 -11 28 -20 2 -13 -2 -16 -17 -13 -11 2 -23 -1 -27 -6 -4 -7 13 -10
47 -8 l54 3 3 -37 c2 -20 8 -37 15 -37 8 0 8 -3 -1 -12 -20 -20 -14 -37 15
-44 15 -4 34 -13 41 -21 7 -7 21 -13 30 -14 14 0 14 -2 -2 -8 -17 -7 -15 -10
17 -30 21 -13 34 -27 31 -33 -3 -5 4 -20 16 -33 13 -14 20 -31 17 -40 -5 -12
-1 -14 16 -10 19 5 26 0 39 -28 9 -19 15 -43 14 -53 -2 -11 -1 -14 1 -8 4 12
63 28 71 19 3 -3 -2 -5 -11 -5 -25 0 -21 -13 13 -49 19 -19 39 -31 53 -30 72
6 83 1 107 -52 28 -60 65 -89 114 -91 40 -1 50 -18 11 -18 -14 0 -25 -4 -25
-8 0 -14 23 -32 42 -32 10 0 23 -9 30 -20 16 -24 48 -27 48 -3 0 15 2 14 19
-3 23 -24 20 -30 -21 -38 -40 -8 -25 -20 40 -31 23 -4 42 -11 42 -16 0 -5 9
-9 20 -9 17 0 20 -7 20 -39 0 -30 4 -40 20 -44 18 -5 20 0 20 39 0 26 5 44 11
44 8 0 10 -13 6 -38 -6 -50 22 -94 47 -73 20 17 21 31 1 31 -9 0 -12 6 -9 15
8 19 24 19 24 0 0 -8 6 -15 13 -15 8 0 19 -11 25 -25 6 -14 18 -25 27 -25 17
0 21 -26 4 -32 -7 -2 -9 -13 -4 -27 5 -17 10 -20 15 -11 6 9 16 4 40 -19 18
-17 37 -28 42 -25 5 3 6 -5 3 -18 -7 -26 6 -42 40 -51 11 -4 4 -5 -16 -4 -44
3 -42 -9 5 -40 20 -13 42 -20 55 -16 15 4 21 1 21 -11 0 -9 -7 -16 -15 -16
-19 0 -19 -5 3 -31 48 -59 62 -59 62 -3 0 24 -5 34 -15 34 -8 0 -15 5 -15 10
0 6 7 10 15 10 18 0 20 31 3 48 -9 9 -9 12 0 12 9 0 12 700 12 3120 l0 3120
-9600 0 -9600 0 0 -6000z m9975 5690 c61 -5 145 -10 188 -10 58 0 77 -3 77
-14 0 -10 21 -15 76 -18 42 -3 79 -10 83 -15 3 -5 34 -16 69 -23 34 -7 65 -17
68 -21 3 -5 25 -9 50 -9 26 0 52 -6 60 -14 8 -8 34 -18 59 -22 25 -3 48 -10
51 -15 3 -5 14 -9 25 -9 10 0 19 -4 19 -8 0 -11 84 -40 137 -48 25 -4 51 -16
64 -30 12 -13 45 -31 73 -40 28 -9 64 -26 81 -38 41 -29 97 -48 109 -36 6 6
14 2 20 -11 11 -21 42 -42 81 -54 16 -5 17 -8 5 -15 -11 -7 -8 -11 15 -20 17
-7 40 -12 52 -12 13 0 21 -4 18 -8 -7 -11 29 -40 61 -49 30 -8 45 -31 20 -31
-9 0 -16 -5 -16 -10 0 -7 20 -10 49 -9 37 2 55 -3 77 -20 16 -13 29 -26 29
-29 0 -4 9 -16 21 -28 16 -18 28 -22 60 -18 43 5 78 -10 56 -24 -9 -7 -10 -15
-3 -35 12 -30 31 -36 31 -9 1 16 1 16 14 0 7 -10 21 -18 30 -18 10 0 16 -8 16
-21 0 -14 5 -19 14 -16 10 4 12 0 8 -15 -4 -18 -2 -19 15 -10 25 14 43 -2 43
-35 0 -13 5 -23 10 -23 6 0 10 4 10 9 0 16 39 19 52 4 17 -21 90 -70 111 -74
10 -2 17 -7 15 -11 -4 -9 43 -58 58 -58 6 0 18 -9 25 -21 8 -11 26 -22 41 -22
19 -2 29 -9 33 -25 4 -18 10 -22 25 -17 15 5 23 0 29 -17 6 -13 10 -17 10 -10
1 6 5 12 10 12 5 0 9 -6 8 -12 -1 -40 4 -49 22 -43 14 4 23 0 30 -13 6 -11 8
-22 4 -25 -3 -3 7 -9 22 -13 15 -4 48 -19 74 -33 l46 -26 -30 -4 c-28 -3 -27
-4 21 -20 49 -16 114 -61 114 -79 0 -5 18 -15 40 -22 32 -11 40 -18 40 -38 0
-16 4 -22 14 -19 7 3 19 0 25 -6 8 -8 15 -6 26 9 11 15 15 16 16 4 1 -8 3 -19
4 -25 2 -5 3 -14 4 -20 1 -5 7 1 12 14 7 18 6 27 -3 33 -10 6 -8 8 5 8 14 0
17 10 19 53 1 44 2 46 5 14 4 -40 -10 -110 -51 -259 -13 -47 -22 -89 -18 -92
3 -3 1 -6 -5 -6 -6 0 -23 -20 -37 -44 -17 -29 -35 -46 -53 -51 -15 -3 -37 -17
-50 -31 -12 -13 -28 -24 -35 -24 -7 0 -31 25 -52 55 -53 73 -73 90 -125 103
-49 12 -62 8 -119 -37 -32 -25 -56 -86 -77 -191 -13 -65 -18 -66 -66 -23 -26
24 -66 47 -99 58 -30 10 -61 20 -69 23 -8 3 2 -10 23 -29 26 -24 38 -44 40
-69 2 -19 1 -26 -1 -15 -6 26 -31 45 -50 38 -8 -3 -23 4 -34 16 -21 22 -63 28
-74 11 -3 -5 -11 -10 -16 -10 -23 0 24 46 59 58 l37 12 -40 -6 c-55 -8 -91
-37 -111 -89 -22 -58 -8 -113 36 -147 17 -13 50 -42 74 -65 24 -23 56 -45 72
-48 16 -3 59 -20 96 -37 53 -25 68 -37 72 -57 33 -171 36 -175 107 -169 47 5
49 4 74 -34 28 -42 90 -77 137 -78 l26 0 0 -122 c1 -151 -4 -180 -26 -174 -10
2 -37 8 -62 12 -40 6 -43 5 -31 -10 7 -9 21 -16 29 -16 10 0 13 -3 6 -10 -15
-15 -104 -23 -104 -9 0 6 6 9 14 6 9 -4 16 3 19 20 4 24 3 25 -35 19 -22 -4
-52 -13 -67 -20 -15 -8 -51 -15 -81 -17 -77 -3 -90 -12 -90 -59 0 -21 -5 -42
-11 -46 -8 -5 -8 -9 1 -14 7 -4 9 -13 6 -19 -4 -6 -12 -8 -18 -5 -7 4 -8 2 -4
-4 14 -22 -5 -34 -25 -16 -23 21 -24 40 -3 48 15 6 15 4 3 -11 -13 -16 -12
-17 4 -4 23 18 22 31 -3 31 -11 0 -27 -12 -37 -26 -14 -22 -15 -29 -3 -47 12
-21 12 -21 -6 -6 -30 26 -104 60 -114 54 -6 -3 -10 -2 -10 3 0 5 -37 25 -82
45 -111 49 -141 59 -133 47 3 -6 13 -10 21 -10 9 0 12 -5 8 -12 -5 -7 -3 -8 5
-3 15 9 63 -14 55 -27 -5 -8 8 -11 41 -9 15 1 17 0 7 -7 -11 -7 -7 -11 15 -16
15 -4 29 -7 31 -6 1 0 10 -6 19 -15 8 -9 22 -14 30 -11 8 3 11 2 8 -4 -4 -7
25 -31 45 -36 20 -5 39 -17 35 -24 -3 -4 3 -7 13 -6 9 0 16 -5 15 -11 -2 -8 6
-12 20 -10 12 1 21 -3 20 -9 -1 -7 3 -11 10 -11 32 1 48 -4 42 -13 -3 -5 -2
-10 3 -10 6 0 13 7 16 16 6 16 -18 43 -38 44 -5 0 -7 2 -5 5 12 11 284 -146
363 -210 46 -38 60 -44 119 -50 37 -4 67 -11 67 -16 0 -8 -11 -31 -28 -58 -1
-3 -13 6 -26 18 -13 12 -30 23 -37 24 -12 2 -97 63 -138 100 -21 18 -80 54
-131 79 -25 12 -56 30 -69 40 -13 10 -27 15 -31 13 -5 -3 -11 -1 -15 5 -7 11
-25 4 -25 -10 0 -5 9 -12 20 -15 11 -4 18 -11 15 -16 -6 -8 8 -13 28 -10 4 0
7 -3 7 -8 0 -4 19 -21 43 -36 65 -44 154 -125 198 -181 39 -51 51 -76 26 -55
-8 6 -18 7 -22 3 -5 -4 -6 -2 -2 3 3 6 -1 18 -8 28 -11 16 -13 16 -19 2 -3 -9
-2 -13 4 -10 22 13 8 -8 -20 -32 -16 -13 -30 -31 -30 -39 0 -8 -5 -14 -11 -14
-6 0 -9 -6 -6 -13 3 -8 -4 -14 -16 -15 -18 -1 -19 1 -7 9 10 7 11 9 2 7 -8 -2
-13 -7 -12 -12 1 -5 -4 -12 -10 -16 -9 -5 -9 -9 -1 -14 6 -4 11 -3 11 3 0 5
12 7 28 4 15 -3 35 -6 44 -7 10 -1 21 -6 25 -10 5 -5 -4 -7 -19 -4 -23 4 -31
-1 -50 -28 -21 -31 -49 -50 -32 -21 6 9 5 9 -8 0 -8 -7 -18 -10 -21 -6 -11 10
-8 43 4 43 5 0 7 -4 4 -10 -3 -5 -2 -10 4 -10 5 0 12 4 16 9 7 12 -34 41 -57
41 -12 0 -18 8 -18 25 0 17 -4 23 -14 19 -8 -3 -17 -1 -20 5 -11 16 -33 2 -46
-30 -7 -16 -11 -31 -9 -33 45 -33 68 -45 63 -32 -3 9 -1 16 4 16 6 0 14 -9 17
-20 4 -11 19 -27 35 -35 34 -17 44 -19 35 -5 -4 6 1 7 11 3 14 -5 13 -8 -7
-20 -13 -8 -17 -12 -8 -10 8 3 26 -1 40 -9 37 -21 45 -17 59 26 8 23 17 37 22
32 5 -5 2 -21 -6 -37 -15 -29 -12 -55 8 -55 18 -1 69 -47 58 -54 -5 -3 -22 1
-38 9 -15 7 -32 11 -37 8 -6 -3 -7 -1 -4 4 4 6 -6 13 -24 17 -19 3 -28 10 -23
17 4 7 0 9 -13 5 -12 -4 -25 -1 -33 9 -7 8 -17 12 -22 9 -6 -4 -5 -10 3 -14 9
-6 8 -12 -5 -25 -13 -13 -20 -15 -29 -6 -6 6 -19 11 -28 11 -10 0 -19 5 -21
12 -2 6 -10 9 -18 6 -9 -3 -1 -12 22 -26 41 -25 61 -27 80 -9 17 17 45 18 45
1 0 -7 -4 -11 -8 -9 -4 3 -19 -1 -33 -9 l-26 -13 43 -19 c23 -10 51 -29 62
-41 11 -13 28 -23 38 -23 9 0 17 -4 17 -8 0 -5 25 -19 55 -32 30 -13 55 -29
55 -35 0 -7 17 -15 38 -18 50 -9 83 -50 97 -124 4 -18 10 -33 15 -33 4 0 11
-7 14 -16 5 -13 1 -14 -27 -9 -17 4 -37 12 -44 17 -8 6 -15 3 -22 -11 -17 -31
-13 -43 12 -37 12 3 16 3 10 0 -19 -8 -16 -24 5 -25 11 0 12 -2 4 -6 -7 -3
-19 1 -28 7 -8 7 -17 10 -21 6 -4 -3 8 -12 25 -18 18 -7 31 -17 29 -23 -2 -5
25 -29 60 -53 34 -23 63 -44 63 -46 0 -7 -83 5 -170 24 -91 20 -231 42 -246
39 -15 -4 -88 11 -107 22 -10 5 -22 7 -27 4 -6 -4 -10 -1 -10 4 0 6 -11 11
-24 11 -58 0 -226 113 -269 181 -11 16 -24 29 -30 29 -7 0 -30 23 -52 50 -22
27 -45 47 -52 45 -7 -2 -15 4 -18 15 -3 10 -17 26 -31 35 -14 9 -22 21 -18 27
5 7 2 8 -5 3 -8 -4 -22 1 -35 13 -60 58 -78 72 -92 72 -8 0 -17 6 -20 14 -3 8
-22 22 -42 31 -39 18 -137 81 -160 103 -12 11 -20 13 -54 16 -7 1 -20 9 -28
19 -8 10 -22 20 -30 21 -39 9 -60 19 -60 28 0 6 -10 8 -21 5 -14 -4 -33 3 -53
17 -30 22 -98 56 -113 57 -5 0 -12 7 -16 15 -4 8 -17 14 -27 14 -10 0 -22 5
-25 10 -3 6 -13 10 -22 10 -8 0 -24 11 -35 25 -11 14 -23 23 -28 20 -4 -3 -13
2 -20 10 -7 8 -19 15 -26 15 -8 0 -22 9 -31 20 -10 11 -23 20 -31 20 -7 0 -10
5 -6 12 4 6 3 8 -4 4 -13 -8 -88 30 -105 53 -6 10 -27 23 -45 29 -33 11 -62
34 -62 49 0 4 -15 14 -32 21 -18 8 -44 18 -58 25 -95 42 -194 77 -217 77 -12
0 -26 6 -30 14 -18 30 -271 42 -383 18 -36 -8 -85 -15 -110 -16 -25 0 -51 -5
-58 -10 -9 -5 -19 -3 -29 7 -18 17 -10 37 15 37 14 0 14 2 3 9 -8 5 -24 5 -35
1 -12 -5 -30 -11 -41 -15 -12 -4 -15 -9 -8 -13 8 -5 8 -11 0 -23 -15 -20 -58
-31 -73 -18 -12 10 -47 2 -40 -10 3 -4 19 -8 37 -9 18 -1 34 -4 36 -6 11 -10
-125 -47 -163 -44 -24 2 -44 0 -44 -5 0 -4 -15 -14 -32 -22 -29 -12 -30 -14
-10 -15 14 0 21 -4 16 -11 -3 -6 -16 -8 -28 -5 -14 3 -30 -1 -42 -13 -34 -31
-62 -43 -68 -28 -3 7 -7 3 -11 -10 -4 -13 -15 -23 -26 -23 -11 0 -19 -5 -19
-11 0 -7 13 -10 34 -7 24 3 32 0 29 -9 -3 -9 4 -13 20 -13 14 0 27 -5 29 -11
3 -9 10 -9 27 0 12 7 30 9 39 5 18 -8 120 -23 188 -28 23 -2 47 -7 53 -10 6
-4 36 -10 66 -13 30 -3 55 -9 55 -13 0 -6 35 -18 75 -25 17 -3 49 -16 77 -31
14 -8 35 -14 46 -14 11 0 27 -6 34 -13 17 -17 98 -49 99 -39 0 4 4 -2 9 -14 4
-11 26 -26 50 -34 22 -7 46 -22 51 -32 6 -11 16 -17 22 -15 14 4 30 -11 40
-36 4 -10 12 -17 19 -16 29 3 40 -2 34 -16 -3 -8 -1 -15 4 -15 4 0 13 -15 19
-33 6 -18 21 -37 33 -42 13 -6 24 -18 26 -28 6 -28 -21 -107 -35 -107 -7 0
-13 -5 -13 -11 0 -6 -7 -9 -15 -5 -9 3 -15 0 -15 -8 0 -11 -53 -45 -80 -51 -3
-1 -13 -5 -22 -9 -10 -5 -41 -5 -70 -2 -29 3 -130 6 -224 8 -130 2 -175 0
-187 -10 -8 -7 -21 -12 -29 -11 -43 5 -118 -2 -112 -12 3 -6 -1 -10 -12 -9
-11 1 -32 1 -49 0 -26 -1 -27 -3 -10 -10 17 -6 15 -8 -15 -13 -19 -3 -42 -6
-50 -6 -33 1 -137 -11 -177 -21 -38 -9 -57 -15 -138 -46 -11 -4 -25 -8 -32 -9
-14 -4 -186 -68 -235 -89 -21 -9 -38 -21 -38 -26 0 -6 -11 -8 -26 -4 -18 5
-25 3 -20 -4 3 -6 -6 -13 -24 -17 -16 -4 -30 -10 -30 -14 0 -3 -27 -15 -60
-24 -33 -10 -60 -20 -60 -23 0 -3 10 -3 23 1 17 5 19 4 6 -4 -8 -6 -33 -12
-55 -14 -21 -3 -38 -10 -37 -15 2 -6 -23 -16 -55 -22 -31 -7 -61 -16 -67 -20
-9 -7 -58 -22 -80 -24 -46 -6 -96 -19 -101 -28 -3 -5 -15 0 -26 12 -24 25 -18
78 13 121 10 15 19 34 19 43 0 9 7 16 15 16 8 0 15 6 15 14 0 8 7 22 16 30 8
9 13 20 10 25 -3 5 3 7 14 4 14 -4 20 0 20 11 0 9 4 16 9 16 5 0 12 12 15 26
4 15 21 41 39 60 18 18 37 38 44 46 21 23 39 35 61 42 12 4 22 14 22 23 0 8 9
17 20 20 11 3 20 9 20 14 0 5 7 9 15 9 8 0 37 21 64 47 34 32 59 47 77 48 23
0 29 6 36 33 8 29 28 46 28 22 0 -5 -4 -10 -10 -10 -5 0 -10 -9 -10 -20 0 -11
3 -20 8 -20 11 1 43 70 37 81 -4 5 5 20 19 34 29 29 33 45 11 45 -8 0 -15 7
-15 15 0 9 7 18 15 21 8 4 15 16 16 28 0 11 3 15 6 8 2 -6 9 -10 14 -6 14 8
11 24 -5 24 -22 0 -8 36 20 51 13 7 20 15 15 19 -6 3 -6 11 -1 20 8 13 11 12
22 -3 13 -17 14 -17 15 4 1 13 8 26 15 30 44 26 52 37 39 53 -12 14 -11 16 8
16 11 0 21 -5 21 -10 0 -6 14 2 30 17 17 15 28 33 26 40 -3 7 -1 13 5 13 16 0
39 26 39 44 0 9 4 16 9 16 5 0 17 3 27 7 12 4 15 3 10 -5 -4 -7 -2 -12 4 -12
7 0 9 7 6 15 -3 10 1 18 12 22 9 3 25 13 34 22 31 29 47 41 55 41 4 0 19 9 33
20 14 11 37 20 52 20 16 0 33 8 40 19 6 10 18 17 25 14 7 -3 29 7 49 22 19 15
53 29 75 32 22 3 42 9 45 14 2 4 11 6 18 3 7 -3 16 2 19 10 4 9 15 16 25 16
11 0 25 7 33 16 7 9 22 14 35 11 14 -2 25 2 28 9 3 8 15 14 26 14 12 0 19 4
16 8 -8 13 33 31 74 34 29 3 35 7 34 26 0 12 5 22 11 22 7 0 18 7 25 15 7 8
27 17 46 21 19 3 38 11 42 18 10 16 91 58 100 52 4 -3 14 -1 22 5 10 6 11 9 3
9 -7 0 -13 5 -13 10 0 7 6 7 18 1 20 -11 62 -4 62 10 0 5 -3 8 -7 7 -5 0 -24
6 -43 15 l-35 15 30 7 c17 3 38 11 48 16 25 14 87 44 117 57 23 10 22 10 -10
5 -131 -20 -308 -85 -475 -172 -304 -160 -309 -163 -297 -176 4 -5 2 -5 -5 -1
-6 3 -27 -2 -46 -13 -19 -10 -45 -25 -58 -33 -13 -7 -35 -22 -49 -32 l-25 -19
30 7 c25 5 27 4 12 -5 -10 -6 -29 -8 -42 -5 -15 4 -27 0 -36 -11 -12 -14 -12
-16 0 -8 10 6 12 4 7 -4 -5 -7 -14 -10 -22 -7 -8 3 -23 -3 -34 -14 -11 -11
-20 -17 -20 -14 0 4 -7 1 -15 -6 -13 -11 -13 -15 -3 -22 9 -7 7 -8 -7 -4 -12
3 -30 -3 -45 -15 -14 -11 -19 -17 -11 -13 9 4 12 3 7 -4 -4 -6 -12 -9 -19 -7
-7 3 -38 -14 -69 -38 -32 -23 -89 -64 -127 -92 -41 -29 -68 -55 -66 -63 3 -7
0 -10 -6 -7 -22 14 -181 -131 -289 -265 -25 -30 -47 -57 -51 -60 -3 -3 -34
-43 -68 -90 -103 -138 -194 -281 -201 -314 -4 -20 -12 -31 -23 -31 -10 0 -21
-6 -26 -14 -10 -15 -15 -8 -25 32 -4 16 -13 27 -24 27 -9 1 -147 2 -307 4
-303 3 -397 12 -675 62 -321 58 -523 117 -1155 338 l-160 56 -41 98 c-82 197
-211 420 -292 504 -42 44 -80 63 -152 79 -30 6 -61 20 -69 29 -10 12 -46 24
-101 33 -47 8 -99 21 -117 28 -28 12 -36 10 -83 -14 l-51 -27 -97 15 c-109 17
-217 42 -187 44 11 0 43 -5 72 -13 35 -10 69 -11 105 -6 43 6 47 8 18 9 -25 1
-31 4 -20 10 22 13 70 1 70 -17 0 -13 2 -13 18 1 10 10 26 17 35 17 9 0 31 6
49 14 37 16 89 39 101 44 4 2 7 -1 7 -7 0 -6 -7 -11 -15 -11 -8 0 -15 -4 -15
-10 0 -5 6 -10 14 -10 8 0 18 5 21 10 3 6 33 10 66 10 32 0 59 4 59 10 0 5
-19 8 -42 6 -24 -2 -33 -2 -20 1 12 2 22 11 22 19 0 10 13 14 46 14 25 0 43 4
40 8 -3 5 -24 8 -46 7 -26 -1 -39 2 -37 9 2 6 28 11 58 12 39 0 53 4 51 13 -5
23 19 41 44 35 19 -5 24 -2 24 14 0 25 18 38 32 24 13 -13 38 9 38 32 0 9 5
16 10 16 6 0 27 7 48 17 20 9 40 16 43 15 4 -1 15 8 24 18 10 11 24 20 31 20
8 0 21 11 30 25 9 14 22 25 29 25 8 0 11 8 8 19 -3 10 0 22 6 25 7 4 11 -1 11
-14 0 -18 4 -20 40 -14 27 4 40 3 40 -5 0 -6 4 -11 10 -11 22 0 -5 31 -31 37
-36 7 -38 23 -4 23 15 0 25 6 25 14 0 8 18 21 40 30 22 9 40 20 40 26 0 5 18
10 40 10 25 0 40 -5 40 -12 0 -7 14 4 31 25 17 20 35 37 41 37 6 0 19 7 29 16
9 8 29 16 43 18 26 3 49 16 28 16 -28 0 -8 19 39 38 28 12 60 33 71 47 11 14
28 25 38 25 27 0 52 38 40 61 -15 27 -13 30 20 27 19 -1 38 6 54 21 14 13 31
21 39 18 11 -4 13 0 10 14 -3 10 -1 19 5 19 17 0 72 50 72 65 0 19 47 65 65
65 8 0 15 6 15 14 0 8 8 17 19 21 25 8 59 45 41 45 -21 0 2 20 29 25 29 5 51
23 51 41 0 8 3 14 8 14 4 0 12 10 17 23 6 13 18 21 30 20 13 -1 24 7 32 23 6
13 7 24 2 24 -31 0 21 59 53 60 10 0 15 6 13 13 -8 19 43 67 73 68 21 2 17 4
-13 9 -30 5 -33 8 -13 9 37 2 58 11 58 26 0 6 9 20 20 30 11 10 20 24 20 32 0
7 8 13 18 13 10 0 29 8 42 17 14 10 27 18 30 18 3 0 5 6 5 14 0 8 6 16 13 19
6 2 12 15 12 28 0 14 7 27 16 31 20 8 64 51 64 63 0 6 7 10 15 10 8 0 15 5 15
11 0 16 31 38 52 39 9 0 24 10 32 21 8 13 25 22 40 22 15 0 26 5 26 13 0 7 9
18 20 24 11 6 20 18 20 26 0 10 6 14 14 11 9 -4 13 -1 11 6 -4 11 84 77 102
77 5 0 14 9 21 20 7 11 21 20 32 20 11 0 25 9 32 20 7 11 23 20 35 20 14 0 23
6 23 15 0 8 5 15 10 15 6 0 9 3 8 8 -4 21 17 42 42 42 15 0 30 6 33 13 6 17
125 87 148 87 11 0 19 4 19 9 0 5 19 18 43 30 23 12 34 21 25 21 -10 0 -18 6
-18 13 0 9 9 12 29 9 20 -3 33 2 42 16 8 10 31 22 52 26 22 4 37 13 37 21 0
10 10 15 28 15 15 0 34 5 42 10 13 8 12 10 -4 10 -19 0 -19 1 2 20 12 11 32
20 46 20 14 0 27 4 30 9 3 5 15 7 25 4 11 -3 28 4 40 16 12 12 27 21 35 21 7
0 19 7 26 15 7 8 21 15 31 15 11 0 19 4 19 9 0 5 24 17 53 27 28 9 56 23 60
30 4 8 23 14 41 14 20 0 40 8 50 19 10 11 31 23 47 26 16 4 29 12 29 18 0 15
217 82 303 94 20 3 37 9 37 13 0 9 74 26 100 23 8 -1 18 4 22 10 4 7 33 12 68
12 38 0 64 5 69 13 5 9 65 14 212 19 112 3 213 9 224 14 11 4 31 6 45 4 14 -3
75 -9 135 -15z m2951 -360 c64 -45 121 -91 165 -133 16 -16 29 -25 29 -21 0 5
7 -2 16 -14 8 -12 12 -27 8 -34 -4 -7 -3 -8 5 -4 14 9 43 -12 35 -25 -7 -12
21 -40 31 -31 4 4 6 1 3 -7 -2 -8 4 -23 14 -33 10 -10 18 -25 18 -34 0 -12 -9
-8 -37 15 -21 17 -49 40 -63 51 -14 11 -46 35 -71 53 -158 110 -189 134 -194
150 -6 16 -29 21 -97 20 -14 0 -18 9 -18 34 0 18 5 33 11 33 5 0 7 5 4 10 -4
6 11 10 39 10 36 0 56 -8 102 -40z m-180 -1540 c8 0 14 -7 14 -17 0 -9 3 -13
7 -10 3 4 12 2 18 -3 9 -7 22 -7 41 0 l29 10 -25 -20 -25 -20 26 9 c22 8 47 2
68 -15 2 -2 -10 -15 -27 -29 -17 -14 -39 -44 -48 -65 -12 -27 -20 -36 -26 -27
-6 9 -8 8 -8 -3 0 -8 -4 -21 -9 -29 -8 -13 -27 -5 -80 35 -5 4 24 50 53 85 11
14 0 3 -26 -23 -43 -44 -77 -57 -65 -24 4 9 -3 11 -20 8 -14 -3 -28 -1 -32 5
-3 5 -21 16 -39 25 l-34 16 35 26 c48 37 129 76 145 70 8 -2 20 -4 28 -4z
m1748 -537 c30 -32 76 -85 102 -117 27 -33 76 -87 109 -121 103 -105 326 -438
423 -630 79 -159 269 -621 259 -631 -1 -1 -49 89 -106 201 -72 142 -127 235
-182 308 -70 94 -279 309 -463 478 -32 30 -74 77 -91 104 -18 28 -52 76 -76
107 -24 31 -66 89 -94 128 -27 39 -58 78 -67 87 -10 9 -15 20 -11 26 3 5 -13
-1 -35 -13 -23 -13 -42 -28 -42 -32 0 -5 -4 -7 -8 -4 -12 7 -53 -37 -96 -104
-20 -30 -68 -88 -106 -127 -92 -94 -81 -73 54 109 56 76 150 166 168 160 11
-3 113 76 113 88 0 5 4 12 9 17 5 5 6 3 2 -4 -10 -18 -2 -16 36 7 18 11 37 20
41 20 4 0 32 -26 61 -57z m-11661 -118 c226 -45 719 -180 795 -218 15 -8 113
-40 217 -71 376 -114 714 -233 1041 -367 108 -44 198 -79 200 -77 2 2 -7 15
-19 29 -27 30 -32 50 -12 43 8 -4 13 -10 10 -14 -7 -12 32 -23 47 -14 7 4 10
4 6 0 -3 -4 13 -29 37 -54 24 -25 42 -49 39 -54 -3 -4 8 -15 23 -25 44 -27
217 -158 333 -251 58 -46 187 -162 287 -258 100 -96 187 -174 193 -174 6 0 10
-6 7 -12 -4 -13 80 -142 268 -408 188 -265 238 -340 231 -340 -2 0 -35 42 -72
93 -38 50 -79 103 -91 117 -13 14 -23 31 -23 38 0 7 -5 10 -10 7 -6 -4 -9 -3
-8 2 4 13 -54 93 -63 87 -5 -3 -9 1 -9 9 0 8 -11 26 -25 41 -13 14 -26 30 -27
34 -2 4 -6 6 -10 5 -5 -2 -8 1 -8 6 0 17 -63 111 -71 106 -4 -3 -11 4 -14 16
-6 17 -9 19 -17 8 -7 -10 -8 -9 -4 6 3 11 1 27 -4 35 -7 11 -10 11 -10 2 0 -7
-4 -11 -10 -7 -5 3 -6 13 -3 22 5 11 3 14 -6 8 -8 -4 -11 -18 -7 -36 4 -23 2
-27 -12 -22 -16 5 -16 5 -1 -8 23 -19 35 -89 16 -89 -10 0 -14 -17 -14 -65 0
-35 -5 -70 -11 -77 -8 -10 -8 -26 0 -56 6 -24 8 -46 4 -49 -8 -8 -46 27 -46
43 0 7 -6 17 -14 21 -12 7 -40 44 -94 123 -9 14 -19 27 -23 30 -3 3 -12 15
-18 28 -7 13 -36 51 -64 85 -29 34 -60 73 -69 87 -9 14 -51 75 -92 135 -42 61
-80 117 -86 125 -6 8 -32 50 -58 92 -50 82 -95 134 -182 212 -55 49 -177 135
-238 168 -89 49 -108 58 -119 58 -7 0 -13 5 -13 10 0 12 -26 14 -33 3 -2 -5
-3 -3 -1 3 3 13 -43 40 -52 31 -4 -4 4 -11 17 -16 17 -7 19 -10 7 -10 -10 -1
-18 -4 -18 -8 0 -5 -12 -9 -26 -10 -28 -1 -21 12 11 21 11 3 -4 3 -32 0 -56
-5 -68 1 -30 16 l22 9 -23 0 c-13 1 -33 6 -44 12 -15 8 -23 8 -32 -2 -8 -9 -7
-11 6 -6 10 3 20 2 23 -3 3 -4 0 -10 -6 -12 -6 -2 5 -12 25 -23 20 -11 36 -26
36 -33 0 -8 6 -12 15 -8 8 3 15 1 15 -4 0 -16 42 -60 57 -60 8 0 12 -4 9 -9
-3 -5 1 -14 9 -21 8 -7 15 -9 15 -4 0 5 7 -2 16 -14 8 -12 20 -19 26 -16 6 4
8 3 5 -3 -3 -5 15 -34 41 -64 82 -93 136 -169 126 -178 -5 -5 -35 -16 -67 -26
-47 -15 -78 -17 -172 -12 -63 4 -125 11 -137 18 -13 6 -84 51 -158 100 -485
318 -514 338 -496 345 14 5 5 15 -44 47 -67 44 -68 63 -2 58 148 -12 197 1
232 62 14 25 13 28 -15 57 -30 31 -73 61 -62 42 6 -9 -15 -8 -71 4 -13 2 -21
8 -18 12 7 11 -15 14 -156 17 -70 2 -130 0 -133 -4 -2 -5 5 -21 17 -36 17 -22
19 -29 7 -36 -21 -13 -43 -11 -65 6 -10 8 -26 15 -36 15 -9 0 -69 38 -133 85
-64 47 -145 104 -178 127 -34 23 -80 57 -102 75 -23 20 -47 32 -57 29 -10 -2
-16 0 -13 4 3 5 -9 19 -27 31 -25 18 -30 19 -25 6 4 -11 2 -14 -9 -10 -8 3
-13 12 -10 19 3 8 0 11 -9 8 -30 -12 -26 -38 12 -78 154 -163 436 -412 454
-400 7 4 9 3 5 -4 -6 -10 146 -141 218 -187 16 -11 23 -21 17 -23 -7 -2 11
-20 41 -39 58 -39 91 -68 43 -38 -57 35 -135 88 -135 91 0 2 8 1 18 -2 15 -4
15 -4 -1 8 -149 106 -342 259 -382 302 -6 6 -33 31 -60 55 -28 24 -116 108
-196 186 -97 95 -155 145 -175 149 -92 20 -188 47 -194 55 -7 9 -30 8 -31 -2
-1 -5 58 -71 130 -147 128 -134 204 -192 233 -174 7 4 8 3 4 -4 -5 -8 1 -12
14 -12 12 0 48 -23 80 -52 33 -28 70 -56 83 -62 43 -20 286 -170 282 -174 -4
-5 -203 103 -472 255 -111 63 -141 86 -190 141 -32 37 -72 83 -90 102 -17 19
-41 47 -53 63 -12 15 -26 24 -32 21 -6 -4 -8 -2 -5 3 7 12 -81 98 -90 89 -6
-6 15 -31 156 -184 47 -52 85 -98 83 -104 -1 -5 2 -7 7 -4 10 7 51 -44 51 -63
0 -6 -5 -11 -12 -11 -9 0 -9 -3 0 -12 14 -14 16 -38 2 -38 -5 0 -7 7 -3 16 5
14 1 16 -20 12 -14 -3 -28 0 -31 6 -3 7 -5 7 -5 -1 -1 -7 7 -17 17 -22 41 -24
56 -43 58 -71 2 -35 -6 -38 -26 -11 -7 11 -17 18 -22 15 -4 -3 -8 0 -8 5 0 6
-6 11 -14 11 -8 0 -16 6 -18 12 -5 15 -40 17 -50 3 -5 -6 -12 -5 -17 5 -13 20
7 32 42 24 24 -5 27 -3 27 19 0 17 -7 26 -21 30 -15 4 -20 11 -16 21 4 9 2 16
-4 16 -5 0 -9 6 -7 13 1 6 -12 27 -29 46 -18 19 -30 38 -27 43 3 5 -8 7 -24 6
l-30 -2 22 -31 c11 -16 24 -31 29 -33 4 -2 7 -10 7 -18 0 -8 4 -14 9 -14 6 0
9 -9 8 -20 -1 -18 -3 -18 -25 7 -13 15 -32 42 -43 60 -11 18 -25 33 -30 33 -6
0 -9 6 -8 13 3 20 -12 47 -27 47 -8 0 -14 5 -14 10 0 12 -10 13 -29 1 -13 -8
-13 -12 0 -28 13 -17 13 -17 -4 -4 -10 8 -15 21 -12 29 3 8 -6 25 -22 40 -16
14 -27 27 -25 29 8 9 -33 73 -47 73 -9 0 -24 11 -33 24 -17 23 -17 24 5 30 12
3 43 6 70 6 51 0 62 15 21 30 -15 6 -22 15 -18 21 9 15 95 6 257 -26z m10737
-258 c0 -5 -14 2 -32 14 -17 13 -29 18 -25 13 3 -6 -3 -10 -16 -10 -12 1 -21
-4 -20 -11 2 -6 -13 -26 -32 -44 -28 -27 -32 -35 -22 -48 10 -12 9 -14 -8 -9
-51 14 -50 15 -49 -27 0 -22 4 -48 8 -58 18 -40 -26 -2 -70 59 -25 35 -47 64
-49 64 -2 0 -10 -7 -18 -14 -13 -13 -14 -12 -14 10 0 13 4 27 10 31 6 4 7 1 2
-7 -5 -8 -3 -11 6 -8 8 2 18 14 24 26 12 28 39 30 30 3 -6 -21 1 -28 46 -41
27 -8 29 -7 24 11 -5 14 -3 19 7 18 21 -5 58 20 68 46 6 16 15 22 27 19 10 -2
32 0 48 4 25 7 32 5 42 -12 7 -12 12 -25 13 -29z m-666 15 c3 -5 6 -31 7 -59
2 -42 5 -49 20 -46 23 6 59 -14 59 -34 0 -15 -2 -15 -62 4 -10 3 -18 0 -18 -6
0 -6 -15 -11 -32 -11 -18 0 -28 4 -23 8 6 4 11 15 13 26 3 16 -2 18 -31 14
-28 -3 -34 -1 -29 12 3 8 2 12 -3 8 -4 -4 -14 -3 -21 3 -7 6 -22 8 -34 4 -16
-5 -20 -15 -20 -51 0 -24 5 -44 10 -44 6 0 10 11 10 25 0 14 3 25 8 25 4 -1
31 -23 61 -49 54 -48 54 -49 33 -66 l-20 -18 21 -44 21 -43 -32 -30 c-17 -17
-30 -27 -27 -24 5 7 2 10 -85 85 -36 31 -75 61 -87 68 -33 17 -94 7 -115 -19
-15 -18 -19 -19 -24 -7 -10 26 15 57 60 77 40 17 43 21 60 84 l18 66 45 0 c27
0 42 -4 38 -10 -4 -6 8 -10 29 -10 20 0 36 -5 36 -11 0 -23 20 4 26 36 9 48
27 44 21 -4 -4 -36 -2 -40 22 -44 14 -3 27 -5 27 -4 1 1 4 19 8 40 6 33 5 37
-13 37 -11 0 -23 5 -26 10 -3 6 5 10 19 10 14 0 27 -4 30 -8z m-9601 -430 c25
-22 22 -81 -8 -117 -19 -23 -25 -26 -25 -12 0 24 -42 22 -65 -3 -10 -11 -13
-20 -7 -20 7 0 12 -4 12 -10 0 -5 -7 -10 -15 -10 -8 0 -15 -7 -15 -15 0 -8 -6
-15 -13 -15 -10 0 -13 14 -12 51 2 43 -1 53 -16 56 -11 3 -16 9 -13 15 3 5
-13 16 -35 25 -30 12 -38 19 -31 28 5 6 7 15 3 19 -4 3 9 4 28 0 23 -4 30 -3
20 4 -8 6 -9 12 -3 16 6 3 13 2 16 -3 3 -5 15 -7 26 -4 14 4 20 0 20 -11 0
-20 52 -47 70 -36 7 4 13 22 12 38 0 25 3 30 16 25 9 -3 25 -13 35 -21z
m10202 -247 c17 -33 35 -65 42 -72 15 -17 29 -17 14 0 -6 8 -13 24 -15 38 -3
13 -5 24 -6 24 -1 0 -3 15 -5 33 -3 32 -2 33 17 15 16 -14 21 -15 28 -4 18 30
97 -72 243 -314 79 -132 152 -253 161 -270 9 -16 28 -48 41 -70 49 -80 78
-142 116 -248 40 -115 73 -178 111 -214 85 -80 110 -108 128 -143 l20 -40 -32
-14 c-29 -13 -160 -73 -180 -84 -5 -2 -8 3 -8 10 0 8 -12 25 -26 39 -44 41
-107 139 -174 272 -36 70 -70 127 -76 127 -6 0 -19 26 -28 58 -9 33 -73 173
-142 313 -191 384 -284 579 -284 596 0 30 26 5 55 -52z m-617 -10 c13 -21 30
-35 42 -35 13 0 22 -9 26 -27 14 -58 46 -121 65 -126 39 -10 9 -76 -42 -92
-18 -6 -27 -1 -43 21 -73 100 -82 109 -118 114 -27 4 -45 16 -72 49 -20 24
-35 49 -33 55 4 13 116 75 137 76 8 0 25 -16 38 -35z m-11081 -262 c19 -9 37
-22 40 -30 7 -18 -16 -63 -32 -63 -17 0 -56 -36 -53 -48 4 -15 -9 -16 -43 -2
-25 11 -27 15 -17 28 10 12 10 14 1 8 -9 -5 -13 1 -13 18 0 14 -3 26 -7 27 -5
0 -16 2 -25 4 -10 2 -18 -2 -18 -8 0 -15 -20 14 -20 29 0 6 10 9 23 7 13 -3
30 1 38 9 45 41 74 46 126 21z m3296 -88 c-4 -20 -2 -24 16 -20 12 2 19 0 16
-6 -4 -5 7 -21 24 -35 17 -14 31 -31 31 -37 0 -6 -15 3 -32 20 -32 31 -33 31
-55 14 -12 -10 -19 -21 -16 -25 4 -3 1 -6 -5 -6 -6 0 -14 5 -17 10 -3 6 -12
10 -18 10 -19 -1 25 -30 45 -30 10 0 18 -7 18 -16 0 -8 4 -13 8 -10 4 2 13 -4
20 -14 14 -23 -5 -41 -20 -19 -8 11 -9 10 -4 -3 3 -12 0 -18 -9 -18 -9 0 -12
6 -9 15 5 11 -1 15 -20 15 -27 0 -36 15 -13 23 6 2 0 3 -15 1 -15 -2 -30 1
-33 6 -4 6 -12 8 -18 4 -7 -3 -4 1 6 9 18 15 18 16 -1 26 -11 6 -35 8 -52 4
-31 -6 -32 -5 -21 16 12 21 15 22 49 25 24 1 72 27 72 38 0 4 9 8 20 8 11 0
20 5 20 10 0 6 4 10 9 10 4 0 6 -11 4 -25z m9277 -180 c257 -179 717 -523 754
-564 26 -29 12 -26 -59 10 -383 197 -821 409 -844 409 -6 0 -11 8 -11 18 0 15
-2 15 -10 2 -8 -12 -10 -9 -6 10 3 14 8 43 11 65 4 22 13 54 20 70 7 17 16 38
19 49 6 17 8 17 39 -6 17 -14 57 -42 87 -63z m-10996 -35 c7 -48 50 -99 104
-125 22 -11 38 -23 36 -27 -3 -4 1 -5 8 -3 7 3 49 1 93 -3 44 -5 81 -6 83 -3
1 4 20 5 41 3 37 -4 40 -2 72 51 27 44 38 55 54 51 11 -2 111 -22 223 -44 168
-33 210 -38 245 -30 38 8 44 7 59 -13 25 -31 68 -124 68 -146 0 -20 43 -65 53
-54 11 10 8 43 -4 43 -5 0 -7 5 -3 11 7 13 -35 109 -48 109 -5 0 -6 5 -3 10 3
6 3 20 0 31 -6 17 -9 18 -16 8 -4 -7 -12 -10 -16 -5 -4 4 2 15 15 23 32 22 28
34 -23 66 -25 16 -45 31 -45 34 0 3 11 -2 25 -11 14 -9 36 -23 50 -32 32 -21
44 -11 20 16 -10 11 -14 20 -8 20 15 0 44 -36 36 -45 -5 -4 1 -5 12 -1 26 7
50 -8 40 -25 -6 -11 -5 -12 6 -1 7 6 16 12 21 12 4 0 5 -6 3 -12 -3 -8 19 -24
55 -40 33 -15 60 -32 60 -38 0 -5 5 -10 10 -10 6 0 33 -15 60 -34 58 -40 144
-113 115 -98 -11 6 -31 21 -46 34 -31 28 -49 40 -119 77 -30 16 -90 50 -134
75 -43 26 -80 45 -82 43 -3 -2 26 -24 63 -48 161 -105 310 -226 372 -304 7 -9
33 -72 57 -141 64 -182 77 -202 145 -219 24 -6 33 -23 85 -168 l59 -161 154
-33 c84 -18 172 -41 196 -53 25 -12 60 -20 86 -19 63 1 130 -7 159 -19 37 -16
126 -103 225 -219 48 -57 91 -103 96 -103 15 0 10 -19 -8 -35 -10 -7 -62 -46
-116 -86 -78 -57 -101 -69 -108 -58 -5 8 -9 17 -9 22 0 4 -23 7 -51 7 -28 0
-76 7 -106 16 -53 16 -82 12 -53 -6 10 -6 -23 -10 -93 -10 -125 0 -147 -8
-147 -51 0 -30 -2 -31 -32 -26 -61 11 -178 20 -178 13 0 -3 16 -12 36 -21 19
-8 33 -19 29 -24 -3 -6 8 -17 25 -26 17 -9 28 -19 26 -24 -3 -4 1 -16 8 -27
10 -13 11 -24 3 -41 -8 -18 -7 -27 5 -40 9 -10 19 -28 22 -40 6 -20 44 -56 97
-94 14 -10 20 -20 14 -28 -5 -9 -36 15 -104 83 -53 53 -101 93 -105 89 -5 -4
-6 1 -2 13 5 17 -19 47 -137 165 l-143 144 133 -130 c73 -71 133 -125 133
-120 0 15 -285 297 -293 290 -4 -3 -5 -2 -2 2 7 9 -16 34 -25 28 -5 -3 -12 0
-16 6 -5 8 -2 10 7 5 8 -4 6 -1 -5 8 -13 11 -17 24 -14 50 9 77 -42 18 -59
-68 -4 -20 -3 -27 5 -22 6 4 9 13 5 21 -3 8 -1 15 5 15 5 0 12 -9 15 -20 3
-11 1 -20 -4 -20 -24 0 -3 -39 64 -121 l74 -90 21 -116 c12 -65 20 -119 17
-121 -2 -2 -29 10 -60 27 -106 58 -316 151 -430 191 l-115 39 -187 153 c-104
84 -276 224 -383 311 -107 88 -199 164 -205 171 -5 7 -40 29 -77 50 l-68 38
-54 -16 c-88 -26 -430 -259 -538 -367 -99 -99 -111 -126 -78 -171 13 -18 18
-33 13 -37 -6 -3 -19 -26 -30 -51 -11 -25 -32 -58 -47 -73 -14 -15 -26 -32
-26 -36 0 -5 -19 -5 -42 0 -23 6 -47 8 -54 5 -14 -5 -54 -77 -54 -96 0 -14 25
-40 39 -40 28 0 26 -107 -4 -208 -29 -97 -29 -47 1 156 6 34 4 42 -9 42 -28 0
-38 -37 -67 -258 -15 -119 -28 -199 -29 -177 -1 57 26 293 44 378 8 40 15 76
15 80 0 15 -231 -112 -354 -195 -169 -113 -292 -214 -431 -353 -410 -409 -646
-872 -746 -1465 -20 -117 -23 -173 -25 -428 0 -161 -5 -296 -9 -300 -5 -4 -5
-2 -2 4 9 15 -19 111 -51 177 -2 4 3 7 12 7 22 0 20 17 -4 30 -15 8 -18 17
-13 40 4 22 1 31 -11 36 -9 3 -16 12 -16 20 0 8 -6 14 -14 14 -8 0 -17 8 -21
18 -6 16 -7 16 -21 -2 -18 -26 -28 -14 -29 35 0 36 -3 41 -28 46 -38 8 -43 21
-10 29 48 10 49 12 6 13 -31 1 -43 5 -43 16 0 11 -11 15 -35 15 -20 0 -41 4
-48 10 -72 58 -73 59 -49 60 29 0 28 16 -3 36 -27 17 -33 52 -13 72 9 9 9 15
0 24 -7 7 -12 22 -12 34 0 13 -8 25 -19 29 -10 3 -26 14 -36 25 -16 18 -16 20
-2 20 10 0 14 5 11 15 -4 8 -16 15 -29 15 -29 0 -48 23 -40 49 4 14 -1 24 -20
37 -29 19 -33 44 -7 44 16 1 16 1 -1 14 -12 10 -17 27 -17 66 0 39 5 56 17 66
16 12 15 13 -14 14 -32 0 -33 2 -33 40 0 34 3 40 21 40 16 0 20 5 16 19 -7 28
11 53 34 46 11 -4 19 -2 19 4 0 6 -13 11 -30 11 -25 0 -30 4 -30 25 0 14 6 25
13 25 7 0 18 10 26 22 12 19 11 24 -9 40 -12 10 -29 18 -37 18 -12 0 -12 2 1
15 8 8 31 15 50 15 45 0 46 18 3 45 -18 11 -32 27 -32 35 0 8 14 24 32 35 18
11 32 25 33 32 0 7 12 11 28 10 25 -2 27 1 30 41 3 40 2 42 -25 42 l-28 1 28
24 c36 32 47 31 47 0 0 -14 5 -25 11 -25 6 0 9 18 8 48 -3 43 -1 49 28 67 37
23 43 45 12 45 -18 0 -19 2 -9 15 7 8 18 15 25 15 6 0 18 18 25 40 9 27 19 40
28 38 21 -4 27 -28 8 -28 -17 0 -21 -26 -8 -48 6 -8 13 1 21 30 24 83 34 98
63 98 30 0 34 11 29 96 -2 37 0 41 21 40 19 -1 24 6 31 49 l8 50 44 2 c34 1
52 8 77 32 18 17 39 31 46 31 6 0 12 8 12 18 1 9 7 28 15 42 l13 25 7 -27 c10
-38 28 -23 23 18 -3 23 0 34 9 34 7 0 13 11 13 24 0 17 9 28 35 40 19 10 39
15 44 12 5 -3 12 5 15 18 3 13 9 31 12 40 4 11 1 16 -10 16 -9 0 -16 -5 -16
-11 0 -5 -5 -7 -11 -4 -6 5 -2 13 13 23 13 9 27 22 31 29 5 9 14 10 24 5 27
-16 61 -2 72 29 5 16 15 29 20 29 6 0 11 6 11 14 0 14 55 30 71 20 5 -3 9 1 9
10 0 8 -5 16 -12 18 -8 3 -9 11 -3 24 8 18 9 18 12 -3 3 -15 12 -23 24 -23 15
0 19 7 19 32 0 43 31 123 41 107 11 -19 39 8 39 37 0 19 7 26 31 31 17 3 40
18 52 35 12 16 27 26 35 23 11 -4 47 15 82 42 2 2 -1 8 -8 12 -24 15 11 72 52
86 35 12 36 12 36 -12 0 -15 4 -22 11 -18 6 4 8 13 5 21 -3 8 0 14 6 14 25 0
48 34 48 71 0 21 5 41 10 44 6 3 10 -1 10 -10 0 -14 3 -14 26 2 23 15 24 18 9
23 -16 6 -15 9 9 27 14 12 26 24 26 27 0 12 53 56 91 76 19 10 41 26 48 34 19
22 52 21 45 -1 -5 -17 -5 -17 9 0 8 9 22 17 31 17 11 0 16 9 16 30 0 17 5 39
12 49 9 15 15 17 30 7 15 -9 21 -8 28 4 8 13 10 12 10 -2 0 -14 8 -18 33 -17
23 1 26 3 10 6 -13 2 -23 8 -23 13 0 12 29 40 41 40 6 0 17 7 25 15 9 8 11 15
5 15 -21 0 -11 15 26 39 25 16 38 20 41 12 3 -9 7 -9 18 0 20 16 17 29 -5 29
-14 0 -18 5 -14 20 5 20 7 20 24 4 18 -16 20 -15 34 19 20 49 32 53 27 9 l-5
-37 22 19 c11 11 21 25 21 33 0 7 4 13 8 13 4 0 19 18 32 40 14 22 31 40 39
40 9 0 12 10 9 36 -3 29 0 38 13 41 10 3 20 15 23 28 4 16 16 26 38 30 31 7
41 11 89 36 16 8 24 8 29 -1 5 -9 10 -6 14 9 3 11 9 30 12 41 4 17 1 20 -22
20 -22 0 -25 3 -16 12 10 10 17 10 32 0 11 -6 26 -12 35 -12 17 0 30 41 22 69
-3 12 4 28 19 42 13 12 24 27 24 34 0 6 8 22 18 35 l17 25 5 -35 6 -35 27 53
c19 36 33 52 47 52 24 0 67 76 47 83 -9 3 -9 8 2 20 9 12 29 17 62 17 42 0 49
3 49 20 0 15 -7 20 -24 20 -14 0 -28 5 -32 12 -4 6 -3 8 4 4 27 -16 26 87 -2
129 -11 16 -26 25 -43 25 -14 0 -23 3 -20 7 8 7 -11 33 -25 33 -5 0 -7 -3 -5
-7 3 -5 -20 -8 -51 -8 -32 0 -68 -4 -82 -8 -19 -6 -21 -6 -10 2 24 17 -20 13
-50 -4 -14 -8 -35 -14 -46 -15 -12 0 -25 -7 -28 -16 -3 -9 -12 -14 -19 -11
-16 6 -49 -12 -42 -23 3 -5 0 -12 -6 -16 -8 -4 -9 -3 -5 4 13 22 -5 12 -35
-17 -16 -16 -29 -34 -29 -40 0 -6 -5 -11 -11 -11 -6 0 -8 -7 -5 -16 5 -14 4
-15 -8 -5 -12 10 -17 7 -30 -16 -8 -15 -23 -34 -34 -42 -11 -8 -19 -19 -18
-25 2 -6 1 -8 -1 -3 -3 4 -9 4 -14 1 -6 -3 -5 -12 3 -22 11 -14 10 -15 -5 -9
-11 4 -24 1 -33 -8 -9 -8 -12 -15 -7 -15 4 -1 -4 -8 -19 -16 -16 -8 -28 -21
-28 -28 0 -8 -7 -16 -15 -20 -8 -3 -15 -12 -15 -21 0 -8 -6 -14 -12 -13 -7 2
-12 -3 -10 -9 1 -7 -3 -13 -9 -13 -5 0 -8 -4 -5 -9 8 -12 -31 -44 -43 -36 -6
3 -12 1 -12 -4 -1 -6 -2 -17 -3 -23 0 -7 -8 -13 -17 -13 -19 0 -50 -30 -53
-50 -1 -9 -6 -16 -12 -16 -5 0 -15 -5 -21 -11 -7 -6 -13 -7 -13 -3 0 4 27 35
59 69 33 33 76 79 96 101 103 110 304 322 330 348 72 70 233 119 416 126 35 1
37 -1 43 -39z m3121 -290 c210 -115 457 -240 475 -240 6 0 8 -5 4 -12 -4 -7
-3 -8 5 -4 6 4 35 -1 64 -12 28 -11 84 -25 122 -32 39 -7 74 -15 80 -18 5 -3
28 -7 51 -8 22 -1 50 -6 60 -12 16 -10 13 -11 -16 -7 -30 4 -31 3 -10 -4 14
-5 43 -10 65 -11 39 -2 39 -3 10 -10 -30 -8 -30 -8 8 -9 21 0 36 -5 33 -10 -6
-10 37 -31 63 -31 10 0 28 -9 41 -20 13 -11 31 -20 42 -20 10 0 18 -7 18 -15
0 -8 9 -15 20 -15 11 0 28 -4 38 -9 9 -6 54 -21 100 -35 45 -14 103 -35 128
-46 24 -12 49 -18 54 -15 6 4 13 -1 16 -10 4 -9 13 -14 21 -11 8 3 28 -1 45
-10 16 -8 32 -13 36 -10 3 3 11 1 17 -4 7 -6 33 -12 59 -14 26 -3 53 -9 59
-15 7 -5 34 -15 60 -22 27 -6 44 -15 37 -19 -6 -4 15 -12 47 -20 64 -14 137
-55 127 -71 -4 -7 2 -6 16 1 18 10 25 9 39 -4 10 -11 12 -19 5 -24 -5 -4 -27
-20 -47 -35 -20 -16 -41 -26 -47 -22 -5 3 -10 -1 -10 -9 0 -19 -16 -21 -26 -4
-5 7 -3 8 6 3 9 -5 11 -4 6 4 -6 9 -11 9 -21 1 -10 -8 -15 -8 -20 0 -4 7 -21
10 -37 8 -21 -4 -27 -1 -24 9 4 8 -3 13 -17 13 -13 0 -28 5 -33 10 -6 6 -26
12 -45 14 -40 4 -99 26 -117 44 -16 14 -32 16 -32 2 0 -5 -7 -7 -15 -4 -8 4
-12 10 -9 15 3 5 -2 9 -12 9 -9 0 -23 8 -30 18 -11 14 -13 14 -14 2 -1 -13 -2
-13 -13 0 -14 17 -73 42 -102 43 -11 0 -23 6 -27 11 -4 6 -11 11 -15 12 -29 3
-79 21 -148 55 -44 21 -96 44 -115 52 -136 56 -263 117 -584 279 -21 11 -123
66 -225 122 -102 56 -201 109 -218 117 -18 8 -33 17 -33 21 0 5 -7 8 -15 8 -8
0 -15 4 -15 8 0 4 -25 21 -55 37 -30 15 -55 31 -55 34 0 3 -12 12 -27 19 -16
7 -39 21 -53 33 -23 18 79 -32 205 -101z m-1539 61 c32 -21 70 -49 83 -61 l24
-23 -23 -19 c-12 -10 -36 -18 -54 -18 -39 0 -81 44 -90 95 -4 19 -11 35 -16
35 -5 0 -7 7 -4 15 9 21 14 20 80 -24z m5889 -321 c20 -15 106 -30 167 -30 35
0 78 -4 96 -9 18 -6 45 -6 61 -1 20 5 31 5 34 -3 2 -7 8 -7 18 -1 8 5 59 9
114 10 55 0 159 4 230 7 172 9 133 -7 -55 -22 -80 -7 -201 -18 -270 -26 -69
-8 -217 -19 -330 -24 -113 -6 -251 -13 -307 -16 -83 -5 -103 -3 -103 8 0 7 11
20 25 27 14 7 25 19 25 26 0 18 24 24 103 25 54 1 63 3 37 8 -34 6 -33 7 19
14 30 3 59 11 64 16 10 10 53 5 72 -9z m-345 -7 c-1 -8 -66 -57 -259 -195 -52
-38 -103 -68 -113 -68 -10 0 -18 -7 -18 -17 0 -15 -2 -14 -15 3 -9 12 -14 14
-15 6 0 -7 -4 -10 -10 -7 -5 3 -16 3 -22 -2 -25 -15 -48 -12 -60 7 -16 26 -61
26 -102 1 -24 -15 -45 -19 -96 -16 -36 2 -121 6 -190 8 -69 2 -137 7 -152 12
-24 6 -26 9 -16 31 9 19 8 28 -7 44 -21 23 -34 25 -70 8 -32 -14 -35 -49 -4
-43 12 3 29 1 37 -4 12 -7 9 -12 -16 -25 -41 -21 -46 -20 -62 9 -8 16 -19 24
-28 20 -10 -4 -13 0 -9 14 3 14 0 17 -13 14 -11 -3 -17 1 -17 13 0 22 29 52
45 46 7 -2 12 1 12 6 0 16 169 51 320 67 74 8 171 19 215 25 44 5 139 15 210
21 72 6 166 14 210 18 108 11 245 13 245 4z m766 -172 c-10 -15 33 -27 104
-29 41 -2 173 -7 294 -13 l218 -10 87 -73 c48 -40 96 -81 107 -92 12 -10 78
-70 147 -132 70 -63 127 -116 127 -119 0 -2 -5 -13 -10 -23 -7 -13 -7 -21 0
-25 5 -3 10 -19 10 -35 0 -17 7 -33 18 -39 13 -8 14 -10 2 -11 -13 0 -13 -1 0
-10 29 -19 1 -10 -44 14 -25 13 -42 27 -38 32 4 4 1 4 -5 0 -7 -4 -133 41
-280 100 -475 189 -787 305 -843 314 -57 8 -160 41 -160 51 0 3 42 30 94 60
81 47 101 54 135 51 23 -2 39 -7 37 -11z m-52 -217 c87 -28 113 -40 98 -45
-13 -5 -37 1 -68 17 -52 25 -213 78 -220 72 -2 -3 29 -15 69 -27 121 -39 187
-72 187 -93 0 -15 -5 -18 -22 -13 -13 3 -18 3 -13 -2 18 -14 60 -77 45 -68
-20 12 -62 13 -83 3 -14 -7 -29 -3 -58 17 -21 15 -37 31 -34 35 2 3 -1 7 -8 7
-21 0 -81 32 -109 58 -26 24 -29 41 -19 107 1 4 27 -2 59 -12 31 -10 110 -35
176 -56z m-5078 -79 c27 -4 60 -7 74 -8 14 -1 27 -5 30 -9 3 -4 21 -9 41 -11
19 -2 39 -6 44 -9 6 -3 48 -14 95 -23 114 -23 235 -62 250 -80 7 -8 16 -15 21
-15 8 0 107 -61 134 -83 44 -35 361 -245 470 -312 44 -27 112 -68 150 -92 39
-24 127 -78 198 -121 70 -42 127 -80 127 -84 0 -7 -74 33 -166 90 -29 18 -65
32 -83 32 -17 0 -39 4 -49 9 -9 5 -50 15 -90 22 -39 7 -70 14 -68 17 5 4 133
-15 169 -24 30 -9 19 12 -16 28 -18 9 -130 75 -247 148 -242 149 -344 210
-443 265 -67 36 -69 36 -89 18 -12 -10 -18 -12 -14 -5 9 16 -7 15 -49 -2 -48
-21 -44 -11 7 15 l43 22 -55 24 c-30 13 -163 61 -295 105 -132 45 -244 86
-250 91 -7 7 -6 8 1 4 6 -4 33 -9 60 -12z m7304 -73 c-1 -108 -168 -533 -290
-740 -111 -187 -257 -358 -552 -647 -178 -175 -430 -406 -436 -400 -2 2 41 48
95 102 157 157 295 304 337 358 48 60 62 76 51 55 -10 -21 187 180 256 260 97
114 163 227 222 382 l37 98 0 173 0 173 30 34 c16 19 29 41 30 48 0 6 4 12 10
12 5 0 27 15 47 33 21 19 53 40 71 48 17 8 32 17 32 20 0 3 14 6 30 7 22 0 30
-4 30 -16z m135 -64 c8 -37 41 -87 135 -205 36 -45 72 -94 80 -110 8 -15 29
-48 46 -73 16 -25 34 -54 38 -65 6 -16 9 -17 17 -5 9 13 9 13 7 0 -3 -13 58
-148 72 -160 3 -3 11 -17 17 -32 8 -19 17 -26 28 -22 20 8 19 27 -5 66 -28 45
-25 59 4 23 13 -16 22 -33 20 -36 -2 -4 2 -9 10 -12 8 -3 12 -14 10 -24 -3
-10 6 -35 20 -55 l24 -36 -24 -6 c-14 -4 -22 -11 -19 -16 3 -6 3 -15 0 -21 -5
-8 -125 171 -125 187 0 10 -144 229 -232 353 -57 80 -104 151 -106 158 -2 7
-7 13 -11 13 -12 0 -31 48 -31 80 0 40 17 38 25 -2z m-4585 -136 c206 -88 393
-168 415 -180 l40 -21 -135 3 c-134 3 -135 3 -70 -10 36 -7 103 -16 150 -20
47 -3 89 -8 93 -11 4 -3 34 -8 66 -13 39 -5 111 -33 215 -81 86 -39 159 -76
162 -81 3 -5 3 -20 0 -34 -8 -30 -25 -30 -119 -4 -437 122 -688 187 -715 185
-11 -1 -19 2 -16 7 4 6 -30 12 -38 6 -2 -1 -12 3 -23 9 -33 17 -75 24 -75 13
0 -5 58 -54 130 -107 90 -67 126 -100 117 -106 -8 -6 -6 -7 6 -3 10 3 38 -10
74 -34 31 -22 50 -40 42 -41 -183 -11 -208 -11 -304 -1 -52 5 -69 11 -67 21 2
9 -3 11 -15 6 -10 -4 -27 -9 -38 -11 l-20 -4 20 9 c17 8 14 10 -17 10 -20 1
-49 6 -64 11 -21 8 -29 7 -39 -6 -11 -15 -12 -15 -19 2 -7 17 -9 17 -19 3 -13
-17 -87 -15 -87 3 0 5 -5 6 -10 3 -6 -4 -17 -2 -24 4 -10 8 -17 7 -26 -4 -7
-8 -18 -15 -26 -15 -33 0 -114 -23 -109 -31 3 -4 -14 -6 -39 -4 -35 4 -47 1
-55 -12 -8 -14 -12 -15 -25 -4 -11 9 -16 10 -16 2 0 -6 -7 -11 -15 -11 -8 0
-15 -4 -15 -10 0 -5 -7 -10 -16 -10 -8 0 -22 -7 -30 -15 -9 -8 -26 -15 -40
-15 -13 0 -24 -4 -24 -10 0 -5 -24 -9 -54 -9 -66 2 -265 -33 -320 -56 -14 -6
-17 -5 -14 6 3 8 11 13 17 12 6 -2 11 4 11 13 0 8 4 13 9 9 12 -7 33 29 23 40
-4 5 -1 5 6 1 7 -4 12 -1 12 8 0 9 4 16 8 16 4 0 16 15 27 33 23 38 20 35 92
117 76 87 407 415 512 507 46 40 91 73 100 73 9 0 185 -71 391 -158z m1135 78
c22 -11 47 -20 56 -20 9 0 42 -15 73 -32 56 -33 57 -33 51 -73 -7 -49 -10 -51
-30 -31 -9 9 -25 16 -35 16 -10 0 -41 15 -69 34 -28 19 -60 38 -71 41 -16 5
-20 15 -20 46 0 21 1 39 3 39 1 0 20 -9 42 -20z m-6791 -25 c-21 -19 -33 -34
-26 -35 34 -1 -242 -240 -278 -240 -9 0 -23 6 -29 14 -19 23 74 104 265 230
54 37 101 66 103 66 2 0 -13 -16 -35 -35z m117 -66 c16 -17 29 -36 29 -41 0
-10 17 -8 53 7 12 5 17 3 15 -5 -2 -7 8 -16 22 -20 57 -16 118 -58 342 -232
129 -101 437 -340 684 -532 247 -192 510 -397 584 -455 142 -111 351 -294 435
-381 28 -29 111 -97 185 -152 74 -56 147 -112 161 -125 15 -13 33 -25 41 -27
13 -1 129 -118 124 -124 -6 -5 -595 223 -606 236 -3 3 4 2 15 -2 14 -4 10 1
-10 18 -16 13 -33 22 -37 20 -11 -7 -363 239 -550 383 -58 46 -128 94 -154
108 -26 14 -43 25 -38 25 5 0 1 5 -8 11 -10 5 -21 9 -24 9 -4 -1 -10 2 -13 7
-9 12 -78 63 -86 63 -3 0 -43 26 -88 57 -45 31 -109 75 -142 98 -178 123 -464
315 -470 315 -3 0 -3 -4 0 -10 10 -16 -1 -11 -16 7 -10 11 -10 14 -1 9 6 -4
12 -5 12 -1 0 3 -9 9 -19 13 -10 4 -81 66 -156 137 -177 167 -184 172 -273
185 -82 11 -179 41 -235 73 -31 17 -41 19 -57 9 -24 -14 -35 0 -20 27 15 29
13 33 -12 25 -18 -5 -14 3 21 45 83 99 233 251 248 251 8 0 28 -14 44 -31z
m10711 -30 c90 -34 228 -88 307 -121 136 -58 142 -62 120 -74 -13 -7 -32 -13
-41 -14 -10 0 -18 -5 -18 -10 0 -6 -6 -10 -12 -9 -23 3 -41 -1 -35 -7 9 -9
-27 -41 -40 -36 -7 2 -13 8 -13 13 0 4 7 6 15 3 8 -4 15 -1 15 6 0 7 8 19 18
26 16 12 16 13 -3 19 -34 12 -78 30 -115 49 -19 9 -26 14 -15 10 62 -20 75
-22 75 -13 0 5 -9 9 -20 9 -11 0 -20 5 -20 10 0 6 -5 10 -10 10 -6 0 -45 16
-86 35 -41 20 -81 32 -87 29 -7 -4 -9 -4 -5 1 5 5 -48 27 -116 49 -69 23 -128
45 -133 50 -4 5 -2 7 7 4 8 -3 42 -13 75 -23 33 -10 75 -24 93 -32 18 -8 40
-13 50 -11 9 2 -26 21 -78 42 -89 36 -111 46 -97 46 3 0 79 -27 169 -61z
m-3831 -46 c-9 -4 0 -12 25 -23 29 -14 42 -16 52 -7 11 8 16 7 24 -7 8 -15 12
-16 20 -5 7 10 8 9 4 -6 -2 -11 -7 -35 -11 -52 -4 -18 -10 -35 -13 -37 -4 -2
-38 6 -77 19 l-70 23 3 38 c3 37 23 65 46 63 6 0 5 -3 -3 -6z m414 -87 c66
-21 70 -24 77 -59 4 -21 15 -50 25 -65 l17 -27 -28 25 -29 25 5 -27 c3 -18 1
-25 -6 -21 -6 4 -33 8 -61 8 -58 2 -77 6 -87 20 -4 6 -8 2 -8 -9 0 -12 -5 -16
-15 -12 -8 3 -22 9 -30 12 -8 3 -15 2 -15 -2 0 -5 -4 -15 -9 -22 -14 -23 -71
12 -71 43 0 20 5 25 24 25 13 0 39 6 57 14 28 12 36 12 55 0 20 -14 22 -13 31
13 13 39 10 69 -5 65 -8 -1 -11 2 -7 8 3 5 7 10 8 10 1 0 33 -11 72 -24z
m-4442 -196 c-28 -16 -57 -31 -65 -32 -7 -2 -15 -5 -18 -8 -17 -19 -102 -60
-113 -54 -6 4 -9 3 -4 -1 7 -9 -17 -23 -211 -127 l-114 -60 4 28 c2 22 21 40
93 90 89 62 113 75 99 52 -4 -7 -3 -8 5 -4 6 4 9 11 6 16 -3 5 9 17 27 26 18
9 43 25 54 36 16 15 24 16 29 7 6 -8 4 -10 -5 -4 -8 5 -11 4 -7 -3 8 -12 67 6
67 21 0 4 -9 3 -19 -3 -25 -13 -36 3 -14 21 14 12 16 12 8 0 -6 -11 -4 -13 8
-8 11 4 22 -2 33 -18 14 -22 17 -23 34 -7 11 9 17 18 15 20 -3 3 -11 -1 -19
-7 -9 -8 -16 -8 -20 -2 -4 6 3 15 14 21 16 9 24 8 36 -4 14 -14 20 -13 62 9
66 34 77 31 15 -5z m4753 -25 c22 -9 48 -20 59 -25 11 -5 45 -20 77 -34 60
-26 91 -61 67 -78 -11 -7 -11 -8 1 -6 8 1 27 -5 41 -15 14 -10 73 -36 130 -58
99 -39 106 -41 157 -31 50 11 58 9 167 -32 63 -23 118 -46 122 -50 9 -9 -147
-166 -165 -166 -8 0 -51 12 -97 26 -78 24 -85 25 -113 10 -17 -9 -37 -16 -44
-16 -7 0 -63 19 -125 41 -86 32 -114 47 -122 66 -13 29 -14 36 -2 29 18 -12
62 138 50 169 -7 18 -8 18 -8 2 -1 -10 -5 -16 -9 -13 -5 3 -19 -24 -31 -59
-13 -36 -26 -65 -28 -65 -3 0 -41 16 -85 36 -44 20 -87 34 -96 32 -15 -4 -17
6 -14 101 2 115 8 151 21 151 5 0 26 -7 47 -15z m1651 -22 c-1 -21 7 -54 17
-75 17 -34 17 -38 0 -70 -18 -36 -122 -148 -166 -179 -26 -19 -27 -19 -110 10
-45 16 -99 33 -118 38 l-35 9 33 14 c18 9 32 22 32 32 0 9 5 20 12 24 7 5 9 2
4 -7 -5 -8 -2 -8 6 2 7 9 19 14 27 11 8 -2 11 0 8 5 -9 14 23 55 39 49 8 -3
11 0 7 10 -4 10 0 12 11 8 11 -4 16 -1 16 10 0 12 6 15 25 10 20 -5 38 3 83
36 31 24 67 56 80 72 13 15 25 28 26 28 2 0 3 -17 3 -37z m-6320 -39 c-3 -4 0
-19 9 -35 10 -21 12 -39 6 -62 -8 -32 -10 -32 -168 -78 -87 -25 -161 -44 -163
-42 -11 9 48 55 108 83 36 17 80 44 96 60 17 15 40 31 51 34 12 4 29 15 39 26
10 11 20 20 23 20 3 0 3 -3 -1 -6z m2751 -214 c-7 -11 -16 -20 -20 -20 -3 0
-24 -18 -45 -41 -51 -54 -80 -65 -203 -74 -262 -19 -362 -21 -550 -10 -129 8
-436 9 -483 1 -10 -1 -18 -6 -19 -12 -2 -10 23 -22 452 -231 157 -76 301 -147
320 -158 l35 -20 -27 -3 c-33 -4 -138 17 -263 53 -153 43 -443 116 -574 143
-80 17 -147 36 -152 44 -12 17 -3 56 33 151 23 60 34 77 49 77 11 0 17 5 14
10 -3 6 1 13 10 17 10 3 20 1 24 -4 4 -7 27 -8 66 -3 33 5 157 16 275 25 188
14 466 35 845 64 61 4 136 9 168 10 55 1 57 0 45 -19z m-6333 -135 c-7 -28
-20 -71 -29 -98 l-15 -47 22 11 c11 7 34 12 49 11 15 0 30 3 33 8 8 13 55 -11
55 -28 0 -9 7 -6 20 9 25 31 25 21 1 -28 -18 -36 -72 -155 -120 -268 -12 -27
-25 -45 -29 -40 -4 6 -16 15 -27 21 -11 6 -21 21 -23 33 -3 22 -4 22 -19 4 -8
-10 -12 -12 -8 -5 5 10 0 11 -19 6 -14 -3 -26 -2 -26 2 1 51 130 478 141 467
5 -5 2 -31 -6 -58z m3981 5 c59 -57 74 -65 116 -61 10 1 25 -2 35 -8 14 -8 11
-10 -20 -16 -26 -5 -44 -3 -61 8 -47 31 -139 50 -243 51 -55 1 -99 4 -97 7 2
3 22 19 45 35 29 20 60 31 98 35 31 3 58 7 60 8 2 0 32 -26 67 -59z m-507 3
c0 -5 -19 -23 -42 -42 l-42 -34 -95 6 c-92 5 -160 21 -147 34 4 3 75 14 159
23 84 10 156 18 161 19 4 0 7 -2 6 -6z m5709 -18 c39 -11 72 -21 72 -25 0 -3
-20 -28 -45 -57 -45 -52 -55 -69 -32 -58 6 4 3 -1 -7 -9 -22 -18 -36 -19 -112
-10 -61 8 -61 14 -7 106 18 31 33 62 33 68 0 7 6 10 13 8 6 -3 45 -13 85 -23z
m-1628 0 c44 -23 70 -62 70 -106 0 -23 -5 -39 -11 -39 -7 0 -43 9 -80 20 -61
19 -69 24 -69 46 0 38 27 94 45 94 9 0 29 -7 45 -15z m5633 -26 c43 -7 77 -18
77 -24 0 -14 -252 -54 -300 -47 -48 7 -83 -30 -43 -45 9 -4 34 -24 56 -45 22
-21 47 -38 57 -38 25 0 31 -11 15 -27 -10 -9 -26 -12 -47 -8 -18 3 -49 7 -68
9 -60 7 -86 22 -173 100 -47 42 -90 76 -95 76 -13 0 -28 20 -37 49 l-7 24 243
-6 c134 -3 279 -11 322 -18z m-9259 -98 c13 -5 -54 -32 -235 -94 -140 -47
-264 -89 -276 -92 -35 -10 -63 11 -63 46 0 26 9 35 70 75 59 38 83 47 157 58
95 15 316 19 347 7z m-3744 -82 c0 -12 5 -17 10 -14 6 4 18 1 27 -7 13 -10 17
-10 20 0 3 6 9 12 15 12 6 0 8 -7 5 -14 -4 -10 -1 -13 9 -9 8 3 14 2 13 -3 -1
-5 3 -21 9 -36 6 -15 10 -33 8 -40 -1 -7 -1 -10 1 -5 8 13 33 7 33 -8 0 -20 6
-19 29 4 11 11 16 23 13 27 -4 4 -1 4 6 0 8 -5 10 -12 4 -19 -5 -7 -12 -20
-15 -30 -6 -15 -3 -17 14 -12 11 4 26 2 34 -5 7 -6 19 -10 27 -9 29 4 48 -2
45 -13 -1 -7 9 -13 22 -14 13 -1 27 -7 31 -14 5 -8 20 -11 39 -8 25 4 31 1 31
-14 0 -21 12 -23 42 -7 18 10 24 8 39 -12 10 -13 19 -18 19 -11 0 6 8 12 18
12 13 0 14 -2 4 -9 -9 -5 19 -14 77 -26 50 -10 91 -21 91 -24 0 -4 22 -13 50
-21 27 -7 51 -19 54 -27 3 -7 16 -13 29 -13 14 0 30 -7 37 -15 7 -8 20 -15 29
-15 9 0 25 -7 35 -15 11 -8 28 -15 38 -15 10 0 21 -7 24 -15 4 -8 12 -15 20
-15 7 0 28 -6 46 -14 18 -8 49 -21 68 -29 95 -41 216 -99 230 -111 8 -7 42
-28 75 -46 33 -18 67 -38 75 -46 8 -7 27 -16 43 -19 15 -4 27 -11 27 -16 0 -5
6 -9 14 -9 8 0 21 -8 28 -18 7 -10 27 -24 43 -30 123 -45 359 -155 370 -172 3
-5 18 -11 34 -15 16 -3 32 -13 35 -21 3 -8 13 -14 23 -14 23 0 95 -59 87 -71
-3 -5 -2 -9 3 -8 29 5 35 -2 29 -33 -5 -28 -4 -30 6 -13 6 11 12 22 14 24 5 5
78 -56 204 -168 283 -254 352 -325 250 -257 -22 14 -48 26 -59 26 -10 0 -24 6
-30 14 -7 8 -27 17 -46 20 -19 4 -35 11 -35 15 0 5 -14 14 -30 20 -17 5 -33
17 -36 25 -3 8 -11 13 -17 10 -15 -5 -30 5 -46 31 -9 15 -11 16 -7 3 3 -12 0
-18 -9 -18 -8 0 -15 4 -15 9 0 5 -14 11 -31 15 -18 3 -28 10 -24 17 4 5 1 10
-6 9 -21 -3 -59 11 -54 19 2 4 -9 5 -26 3 -21 -3 -29 0 -29 11 0 11 -6 13 -21
10 -19 -5 -21 -3 -15 20 5 20 3 27 -9 27 -8 0 -15 -4 -15 -9 0 -6 -9 -9 -20
-8 -11 1 -20 5 -20 9 0 4 -11 8 -25 8 -29 0 -105 29 -123 47 -7 7 -24 13 -38
13 -14 0 -23 5 -22 13 2 6 -6 12 -17 13 -41 2 -45 4 -45 24 0 23 -10 26 -28 8
-9 -9 -17 -5 -35 15 -22 26 -45 38 -32 17 13 -21 -16 -9 -37 15 -11 13 -25 22
-30 19 -4 -3 -22 6 -39 20 -17 15 -34 24 -39 21 -4 -3 -13 2 -20 10 -7 8 -17
12 -22 9 -5 -3 -18 2 -29 12 -15 14 -22 15 -28 6 -5 -9 -11 -4 -20 14 -8 18
-17 25 -30 21 -11 -2 -26 3 -35 14 -9 11 -21 19 -28 19 -9 0 -8 -3 2 -10 10
-6 11 -10 3 -10 -7 0 -18 9 -25 20 -7 11 -22 20 -34 20 -12 0 -27 7 -34 15 -7
8 -16 12 -22 9 -5 -3 -17 3 -26 13 -9 10 -24 17 -34 15 -9 -2 -23 7 -32 20
-13 19 -18 20 -25 9 -8 -12 -12 -12 -25 2 -9 9 -16 20 -16 24 1 4 -3 9 -9 11
-6 2 -11 -1 -11 -6 0 -6 -9 -8 -20 -5 -10 3 -19 8 -18 12 3 25 -3 29 -32 18
-20 -7 -25 -14 -17 -19 8 -5 7 -8 -5 -8 -20 0 -23 11 -8 26 12 12 3 44 -12 44
-5 0 -12 -9 -15 -20 -4 -14 -13 -20 -32 -19 -25 0 -25 0 -3 9 12 5 22 15 22
21 0 8 -5 7 -17 -2 -15 -13 -16 -11 -9 14 8 32 -4 35 -29 7 -10 -11 -25 -20
-34 -19 -12 0 -11 2 3 8 18 7 18 8 3 14 -10 4 -16 12 -15 19 2 9 -8 13 -29 12
-27 -1 -33 2 -33 19 0 19 -1 19 -18 4 -25 -23 -29 -22 -36 15 -5 24 -9 29 -18
20 -15 -15 -32 -16 -23 -2 3 6 -1 10 -9 10 -9 0 -16 7 -16 15 0 8 -4 15 -10
15 -5 0 -10 -4 -10 -8 0 -4 -8 -8 -18 -9 -11 -1 -18 6 -19 19 -2 28 -10 33
-27 19 -11 -9 -17 -9 -28 2 -7 7 -26 17 -41 21 -15 3 -27 13 -27 21 0 17 -16
20 -25 5 -3 -5 -11 -10 -16 -10 -6 0 -7 5 -3 12 5 8 2 9 -10 5 -14 -5 -17 -3
-13 8 4 8 2 17 -3 20 -6 4 -10 1 -10 -4 0 -6 -11 -11 -25 -11 -18 0 -25 5 -25
20 0 11 -7 20 -15 20 -8 0 -15 -4 -15 -10 0 -5 -5 -10 -10 -10 -6 0 -9 14 -8
30 1 17 8 30 15 30 25 0 12 18 -17 24 -24 4 -30 11 -30 32 0 23 -3 25 -26 20
-16 -4 -23 -3 -20 3 4 6 -10 13 -31 17 -21 4 -43 11 -49 15 -6 5 -25 7 -42 5
-19 -2 -30 1 -29 8 1 6 -8 10 -20 8 -13 -2 -23 2 -23 9 0 7 -10 9 -25 7 -13
-3 -22 -1 -19 3 3 5 -7 9 -23 10 -15 0 -41 3 -58 5 -16 2 -41 5 -54 5 -13 1
-31 7 -39 15 -16 16 -7 47 45 164 37 81 93 123 93 69z m3740 -127 c0 -4 -39
-25 -87 -45 -49 -21 -124 -55 -168 -76 l-80 -38 56 -8 c51 -6 62 -4 118 24 57
29 65 31 96 20 30 -11 34 -17 32 -43 l-2 -30 199 -23 c206 -25 224 -30 316
-88 54 -34 76 -43 66 -27 -9 15 12 35 30 28 12 -5 14 -10 7 -17 -24 -24 6 -54
163 -160 89 -61 168 -118 176 -127 12 -16 11 -16 -7 -1 -11 9 -36 25 -55 34
-32 16 -34 16 -21 1 12 -14 12 -16 -4 -10 -13 5 -16 4 -11 -4 4 -7 2 -12 -3
-12 -6 0 -11 -6 -11 -12 0 -13 -22 -37 -197 -224 -46 -48 -83 -93 -83 -101 0
-7 -3 -13 -6 -13 -19 0 -353 93 -373 104 -12 7 -99 109 -192 226 l-168 214
-103 -3 c-57 -1 -119 -4 -138 -7 -57 -8 -16 16 83 51 86 29 86 29 108 10 31
-27 16 -4 -48 77 -55 70 -61 85 -40 107 6 8 -46 -16 -117 -53 -98 -50 -131
-64 -138 -54 -13 21 -9 97 6 126 31 60 44 64 309 113 275 51 287 53 287 41z
m9407 -8 c84 -27 161 -72 182 -107 10 -15 7 -19 -18 -28 -32 -11 -48 -51 -36
-89 4 -12 72 -92 152 -178 80 -86 164 -183 186 -214 22 -32 42 -56 44 -55 1 2
-14 36 -33 76 -20 39 -34 74 -32 76 2 3 38 -16 79 -41 393 -242 688 -676 775
-1139 20 -107 29 -368 16 -482 -13 -107 -35 -158 -89 -200 -52 -41 -75 -52
-130 -62 -53 -10 -147 1 -170 21 -13 10 -12 14 5 27 23 19 62 127 62 174 0 17
-2 50 -6 72 -5 34 -2 43 20 64 24 23 26 31 26 110 0 70 -4 94 -22 128 -20 38
-21 46 -9 75 7 18 13 42 12 53 0 11 4 30 10 41 10 19 3 36 -45 120 -31 54 -56
109 -56 121 0 34 -75 177 -102 195 -13 10 -73 112 -143 246 -66 127 -121 229
-122 228 -1 -1 6 -26 17 -54 11 -29 17 -52 13 -52 -3 0 1 -8 10 -17 8 -10 21
-37 29 -61 8 -27 18 -40 26 -37 7 3 10 0 7 -5 -3 -6 -3 -16 1 -22 5 -7 7 -29
7 -48 l-2 -35 9 30 c8 30 8 30 7 -6 -1 -22 -5 -35 -11 -33 -15 6 -96 133 -96
150 0 8 -4 14 -9 14 -5 0 -13 10 -16 23 -4 12 -15 31 -25 42 -9 11 -32 49 -50
85 -18 36 -40 74 -49 84 -13 16 -13 18 -1 12 8 -4 6 -1 -5 6 -10 7 -33 29 -50
47 -16 19 -56 62 -87 95 -56 58 -82 110 -91 179 -2 21 -40 63 -144 165 -143
138 -169 176 -143 207 16 19 37 19 97 -1z m588 -184 c130 -62 286 -165 416
-277 432 -371 689 -931 689 -1499 0 -209 -60 -515 -137 -694 -56 -129 -84
-181 -94 -174 -8 5 -9 3 -4 -5 4 -8 -3 -23 -17 -39 -35 -38 -64 -86 -47 -77 8
3 7 1 -2 -7 -8 -7 -41 -48 -72 -90 -284 -386 -685 -644 -1145 -737 -328 -66
-667 -46 -981 59 -138 46 -223 84 -213 95 4 5 2 5 -5 1 -17 -10 -95 32 -87 46
5 8 1 9 -10 5 -11 -5 -15 -3 -10 5 5 7 2 9 -8 6 -17 -7 -78 26 -78 42 0 6 -5
8 -12 4 -7 -4 -8 -3 -4 4 7 11 -7 17 -29 12 -5 -1 -7 2 -3 6 5 4 -14 22 -41
40 -27 19 -52 38 -56 44 -3 5 -11 10 -16 10 -6 0 -7 -6 -3 -12 5 -9 3 -9 -9 1
-9 7 -15 17 -12 21 4 7 -19 22 -37 24 -5 1 -8 5 -7 9 0 12 -54 53 -66 49 -5
-2 -7 0 -2 4 10 11 -23 45 -37 37 -6 -3 -8 -3 -4 2 4 4 -27 40 -68 80 -41 40
-74 78 -74 85 0 6 -4 8 -10 5 -5 -3 -12 6 -16 20 -3 13 -10 23 -14 20 -4 -2
-16 11 -26 30 -10 19 -23 35 -28 35 -5 0 -6 3 -3 7 4 3 -2 13 -13 20 -11 8
-18 19 -15 24 4 5 2 9 -3 9 -5 0 -17 16 -28 35 -10 19 -22 35 -26 35 -5 0 -8
9 -8 20 0 11 -5 20 -12 20 -6 0 -8 3 -5 7 4 3 -5 22 -19 40 -14 19 -24 37 -20
40 3 3 -1 12 -9 20 -8 8 -15 23 -15 34 0 10 -5 19 -11 19 -5 0 -8 4 -5 8 3 5
-6 39 -20 76 -14 38 -23 70 -21 72 1 2 24 -48 51 -111 143 -338 400 -645 719
-858 204 -136 471 -238 757 -289 112 -20 469 -16 590 6 371 67 697 230 953
475 241 232 391 469 492 778 46 145 72 215 60 167 -3 -11 -7 -50 -9 -85 -3
-35 -8 -78 -12 -94 -15 -66 8 -13 27 61 35 135 50 224 59 369 30 464 -107 925
-388 1302 -54 74 -154 189 -201 232 -14 13 -51 47 -81 75 -108 101 -244 192
-427 286 -68 34 -123 64 -123 67 0 8 45 -9 145 -57z m-7178 -37 c-3 -5 54 -8
126 -8 150 0 201 -13 174 -43 -8 -9 -19 -30 -23 -46 -6 -25 -4 -27 12 -22 27
8 108 -41 172 -104 51 -51 53 -52 77 -36 32 21 40 20 42 -1 1 -10 13 -46 27
-80 25 -59 46 -167 38 -191 -2 -8 -43 -12 -134 -12 l-131 0 -29 30 c-29 31
-45 40 -32 18 5 -9 2 -8 -9 1 -14 11 -17 26 -14 74 4 53 8 62 31 74 14 7 26
15 26 17 0 7 -39 -1 -52 -11 -23 -18 -45 -22 -58 -10 -10 9 -11 7 -5 -13 7
-22 6 -23 -9 -11 -21 18 -20 28 2 35 10 4 19 12 20 19 0 6 6 32 12 56 15 62 5
62 -15 0 -11 -32 -20 -47 -25 -39 -6 10 -18 7 -48 -10 -23 -13 -39 -27 -36
-32 3 -4 2 -8 -3 -8 -12 0 -35 16 -34 24 1 3 -2 7 -6 8 -16 5 -45 34 -54 53
-8 16 -8 15 -4 -7 3 -18 1 -28 -6 -28 -8 0 -6 -6 4 -17 8 -10 16 -22 17 -28 1
-5 10 -15 21 -21 19 -10 19 -11 -8 -25 -15 -7 -31 -18 -35 -24 -4 -5 -10 -2
-14 9 -5 13 -9 15 -15 5 -6 -10 -13 -7 -29 11 l-22 25 2 -40 c3 -56 1 -69 -7
-61 -4 3 -21 -8 -39 -25 l-33 -32 -130 6 c-83 5 -132 3 -136 -3 -14 -22 -25
-8 -25 33 0 55 26 143 44 150 18 7 66 94 66 120 0 20 0 20 23 -1 13 -12 27
-19 30 -15 4 3 7 1 7 -6 0 -7 19 6 43 29 44 43 149 110 172 110 7 0 21 -23 30
-51 9 -28 19 -49 21 -46 2 2 -3 37 -12 78 -10 51 -22 79 -36 90 -20 16 -20 17
-2 27 22 13 37 15 31 5z m-3143 -37 l26 -34 -53 -18 c-28 -9 -94 -36 -146 -60
-52 -24 -96 -44 -97 -44 -2 0 -4 11 -4 25 0 18 11 32 38 50 40 26 193 112 203
114 4 1 18 -14 33 -33z m9081 -320 c88 -173 161 -313 163 -311 2 2 -4 18 -14
37 -28 55 -2 21 31 -40 26 -50 33 -57 57 -54 14 2 29 -2 33 -8 5 -8 10 -8 20
0 8 7 19 9 25 5 5 -3 10 -5 11 -3 50 271 63 315 33 113 -9 -60 -23 -120 -30
-132 -12 -20 -10 -30 22 -100 76 -164 81 -184 19 -78 -21 36 -40 63 -43 61
-11 -12 85 -237 107 -251 19 -11 12 -31 -16 -42 l-28 -12 27 6 c24 4 27 1 33
-30 6 -29 14 -38 58 -58 45 -21 56 -32 79 -79 34 -72 118 -323 118 -355 0 -14
4 -25 8 -25 10 0 32 -45 32 -65 0 -8 -5 -15 -11 -15 -6 0 -8 7 -5 16 3 9 0 24
-8 35 -12 18 -14 18 -20 4 -3 -9 -6 -39 -6 -65 0 -27 -4 -51 -9 -55 -6 -3 -7
34 -5 92 4 79 3 94 -7 78 -20 -35 -72 -85 -87 -85 -9 0 -1 14 21 35 85 83 69
204 -36 264 -76 44 -163 23 -222 -55 -15 -19 -29 -33 -32 -30 -10 9 38 74 70
96 24 16 26 20 9 15 -25 -7 -113 29 -152 64 l-25 22 25 -13 c14 -7 28 -11 33
-10 4 1 7 -3 7 -8 0 -5 3 -9 8 -8 4 1 31 -6 61 -15 67 -21 61 -21 61 4 0 20
-79 199 -88 199 -2 0 -37 -20 -77 -44 -72 -44 -73 -44 -94 -25 -23 22 -19 46
10 54 10 3 29 8 40 11 15 4 19 3 14 -6 -9 -15 23 -6 78 21 30 16 37 25 37 49
0 17 -5 30 -11 30 -5 0 -7 5 -4 10 3 6 3 10 -2 10 -4 0 -16 17 -25 38 -10 20
-38 81 -63 134 -25 54 -45 101 -45 104 1 4 -2 10 -8 13 -5 3 -13 14 -18 23 -8
15 -15 14 -79 -13 -38 -16 -72 -29 -75 -29 -3 0 23 18 57 40 34 22 64 44 68
50 7 11 -72 182 -87 188 -4 2 -8 10 -8 18 0 24 -63 143 -73 137 -6 -3 -7 -1
-3 6 5 7 -20 69 -57 144 -36 73 -73 149 -81 171 -17 40 -13 64 8 47 6 -5 83
-151 171 -325z m-9839 190 c26 -30 34 -35 29 -18 -3 12 -5 22 -3 22 2 0 39
-34 83 -75 44 -42 108 -99 142 -127 34 -28 60 -55 57 -60 -3 -4 -10 -5 -16 -2
-7 4 -8 2 -4 -5 4 -6 11 -9 15 -6 5 2 27 -12 50 -31 33 -29 39 -39 31 -53 -7
-14 -1 -25 28 -52 l37 -34 -33 36 c-18 19 -30 38 -26 42 7 7 94 -91 94 -106 0
-6 -10 -2 -22 8 -13 10 -6 1 15 -19 21 -20 42 -34 47 -31 5 3 20 -11 33 -32
32 -52 41 -72 23 -49 -9 11 -24 20 -34 21 -17 1 -51 35 -194 187 -16 16 -28
24 -28 19 0 -5 4 -13 10 -16 5 -3 15 -16 22 -28 10 -20 10 -21 -6 -8 -23 19
-104 129 -123 166 -13 26 -9 24 37 -20 29 -27 49 -44 45 -36 -4 7 -26 30 -48
50 -140 124 -192 174 -189 183 1 5 -1 7 -6 4 -5 -3 -22 8 -37 24 -21 22 -31
27 -37 18 -6 -9 -8 -7 -6 7 2 14 -2 19 -14 17 -16 -3 -23 9 -19 31 1 5 -9 17
-21 28 l-23 20 28 -17 c15 -9 43 -35 63 -58z m9503 17 c6 -16 22 -48 35 -73
14 -24 22 -48 20 -52 -3 -4 -2 -8 3 -8 8 0 26 -36 38 -77 3 -13 10 -23 15 -23
4 0 11 -12 14 -26 4 -15 18 -42 31 -62 13 -19 22 -39 19 -44 -3 -4 -1 -8 4 -8
8 0 23 -35 21 -49 0 -2 4 -7 9 -10 9 -6 19 -26 81 -163 11 -26 21 -58 21 -69
0 -21 -1 -21 -20 -4 -10 9 -25 34 -31 54 -7 20 -47 110 -91 200 -43 90 -78
165 -78 167 0 2 -27 62 -60 134 -65 142 -64 140 -51 140 5 0 14 -12 20 -27z
m-12015 -73 c36 -16 66 -34 66 -39 0 -13 96 -61 105 -53 3 4 3 -1 0 -10 -6
-14 -11 -15 -33 -5 -15 7 -39 20 -54 30 -22 15 -30 16 -47 6 -11 -7 -22 -22
-25 -33 -5 -21 19 -56 39 -56 6 0 22 -11 35 -25 l24 -26 13 23 c10 18 12 19
13 6 0 -10 18 -28 40 -40 66 -38 49 -53 -20 -18 -47 24 -50 24 -50 6 0 -12 -6
-13 -30 -4 -67 23 -105 -49 -60 -112 l20 -28 -65 -11 c-36 -6 -94 -16 -130
-22 -41 -7 -65 -16 -62 -23 2 -6 41 -21 88 -34 46 -13 90 -25 98 -28 18 -6
-72 -66 -96 -64 -32 4 -40 1 -71 -27 -66 -60 -93 -101 -96 -143 -4 -51 -49
-119 -94 -140 -56 -27 -113 -174 -86 -225 19 -37 7 -108 -27 -158 -25 -37 -29
-51 -29 -117 0 -56 5 -84 19 -110 53 -95 54 -99 47 -220 -3 -51 -6 -57 -42
-81 -22 -15 -69 -43 -106 -63 -57 -31 -78 -37 -128 -37 -98 -1 -183 39 -215
102 -34 64 -41 365 -14 559 67 479 379 937 819 1204 41 25 78 46 82 46 3 0 36
-13 72 -30z m7806 -56 c81 -4 140 -14 200 -32 92 -28 95 -29 110 -31 18 -2 10
-29 -25 -81 -19 -29 -35 -57 -35 -62 0 -6 -10 -8 -22 -5 -61 15 -549 90 -590
91 -43 1 -47 3 -42 21 9 27 8 27 39 15 56 -21 125 26 125 86 0 14 8 16 63 10
34 -3 114 -8 177 -12z m-4878 -186 c32 -42 61 -79 65 -81 5 -3 44 6 88 18 279
79 451 127 459 129 5 0 11 -5 14 -13 3 -8 0 -11 -6 -7 -24 15 -270 -67 -288
-95 -3 -5 -14 -9 -25 -9 -10 0 -19 -4 -19 -9 0 -5 -11 -11 -25 -13 -13 -3 -22
-2 -20 3 3 4 -4 5 -15 2 -11 -3 -18 -9 -15 -13 4 -6 -23 -18 -55 -24 -14 -3
-30 -18 -26 -25 3 -3 -5 -7 -16 -7 -14 0 -38 24 -75 73 -30 40 -60 71 -65 70
-6 -1 -12 6 -13 15 -2 10 -13 29 -24 44 -12 15 -21 32 -21 38 1 13 5 8 82 -96z
m1708 5 c25 -22 49 -33 68 -33 27 0 33 5 52 53 11 28 18 40 15 25 -3 -14 -8
-33 -11 -42 -5 -14 -2 -15 17 -8 18 7 32 3 57 -14 18 -12 28 -24 23 -26 -5 -1
-86 -70 -181 -153 -159 -138 -175 -155 -202 -215 -27 -58 -103 -148 -116 -136
-2 3 1 19 7 36 9 29 9 31 -9 25 -11 -4 -20 -3 -20 2 0 4 -3 18 -6 31 -5 16 -2
22 9 22 8 0 55 44 103 98 48 53 122 132 163 174 68 70 97 118 71 118 -6 0 -10
-6 -10 -14 0 -16 -26 -40 -32 -29 -3 4 -4 3 -2 -3 4 -16 -40 -56 -51 -47 -4 5
-5 3 -2 -3 3 -6 -36 -52 -87 -102 -101 -99 -101 -99 -191 -78 -41 9 -49 15
-47 31 2 10 11 25 20 33 10 7 11 10 4 7 -11 -6 -11 -3 0 14 14 23 43 39 33 18
-4 -6 1 -3 9 7 15 19 16 18 16 -12 0 -19 8 -40 21 -53 18 -18 23 -19 42 -6 28
18 34 69 11 88 -10 8 -15 9 -11 2 5 -8 1 -11 -12 -10 -12 1 -17 6 -13 16 4 10
1 12 -9 6 -8 -5 -3 5 11 20 45 50 58 63 79 74 22 12 38 15 28 4 -10 -10 44
-55 59 -49 9 3 11 -1 8 -12 -3 -11 -1 -9 8 4 7 12 19 19 27 16 9 -3 11 0 6 8
-6 10 -3 12 10 6 18 -7 18 -6 1 13 -23 25 -14 58 16 57 38 -2 29 18 -27 58
-30 22 -55 41 -55 43 0 8 63 -33 100 -64z m7136 -90 c41 -87 79 -168 85 -179
14 -28 5 -54 -26 -77 -23 -17 -25 -16 -49 8 -13 13 -36 27 -51 31 -27 7 -27 7
-21 75 7 67 7 69 -19 81 -22 10 -27 9 -40 -8 -8 -10 -15 -26 -15 -35 0 -17
-25 -43 -52 -52 -9 -3 -19 -19 -23 -36 -6 -27 -10 -30 -33 -25 -15 4 -31 10
-36 14 -10 10 20 93 45 122 12 13 19 37 19 62 1 23 6 54 13 69 11 26 102 107
120 107 5 0 42 -71 83 -157z m-8486 113 c0 -9 -26 -20 -72 -31 -40 -10 -89
-24 -109 -30 -31 -11 -40 -10 -80 9 -24 11 -45 29 -47 38 -4 19 26 22 216 26
73 2 92 -1 92 -12z m5440 -49 c0 -7 -5 -18 -10 -23 -6 -6 -12 -38 -14 -71 -2
-43 -9 -69 -25 -92 -48 -68 -65 -136 -65 -278 -1 -72 2 -135 7 -139 4 -4 30 2
57 13 28 12 47 16 43 10 -3 -7 -42 -65 -86 -129 -71 -104 -84 -118 -109 -118
-24 0 -28 4 -28 28 0 25 -6 31 -39 40 -21 7 -52 12 -70 12 -17 0 -31 5 -31 11
0 13 24 70 51 121 10 20 19 46 19 58 0 11 4 28 9 38 35 69 40 97 47 261 6 152
9 171 25 176 10 3 28 22 39 41 19 29 27 34 63 35 23 1 56 5 72 9 44 11 45 11
45 -3z m627 -13 c9 -25 -45 -220 -103 -368 -70 -180 -158 -379 -174 -395 -9
-9 -33 -43 -55 -76 -74 -116 -112 -172 -269 -395 -177 -251 -227 -319 -299
-403 l-50 -58 -27 33 c-16 18 -24 35 -19 36 5 2 9 10 9 18 0 8 4 14 10 14 5 0
25 14 44 31 27 23 37 42 46 87 18 86 108 265 155 307 6 6 19 23 29 39 14 23
20 26 28 15 6 -10 7 -7 3 10 -5 16 -4 21 4 17 7 -5 9 -1 5 8 -9 22 -11 21 -40
-25 -14 -22 -28 -38 -31 -35 -5 5 64 106 73 106 2 0 1 -7 -2 -15 -4 -8 -1 -15
5 -15 6 0 11 6 12 13 0 9 2 9 6 -1 3 -9 12 -7 33 8 20 14 27 26 23 37 -5 12
-3 14 7 8 10 -6 12 -4 7 9 -4 10 -3 15 3 11 6 -4 16 7 23 24 7 17 16 28 20 24
4 -3 7 1 7 10 0 9 5 16 12 14 6 -1 14 7 16 18 6 31 37 56 51 42 8 -8 11 -6 12
8 0 12 3 15 6 7 3 -9 10 -7 24 9 10 12 19 18 19 14 0 -19 46 36 98 115 63 95
105 191 128 289 20 85 69 248 100 331 13 36 24 71 24 78 0 17 20 15 27 -4z
m-2934 -160 c7 -2 22 -26 33 -52 16 -37 18 -51 9 -59 -24 -23 -107 -235 -101
-259 4 -14 2 -24 -4 -24 -16 0 -99 41 -106 52 -4 5 8 2 26 -7 58 -30 52 -10
-9 29 -54 36 -80 44 -73 23 1 -5 -3 -5 -9 -2 -7 5 -8 10 0 18 7 7 -3 25 -31
58 -32 38 -44 46 -55 38 -9 -9 -13 -8 -13 0 0 6 10 15 23 20 29 11 92 67 92
82 0 6 25 31 55 55 52 42 58 44 103 39 26 -3 53 -8 60 -11z m404 -63 c45 -38
88 -71 95 -74 10 -4 10 -8 1 -14 -8 -6 -6 -15 8 -32 10 -13 19 -20 19 -15 0 4
5 3 12 -4 9 -9 9 -15 -1 -24 -11 -10 -13 -10 -7 0 17 29 -20 8 -67 -38 -27
-27 -59 -52 -69 -56 -15 -4 -17 -9 -8 -20 10 -11 1 -18 -45 -39 -72 -31 -75
-31 -75 3 0 30 -74 248 -91 269 -7 8 -3 25 14 55 19 34 31 44 58 49 67 12 74
9 156 -60z m4835 -99 c8 2 39 -8 69 -21 82 -36 91 -39 132 -46 29 -5 37 -10
38 -28 0 -20 2 -19 11 6 10 27 31 36 43 16 4 -5 12 -8 18 -6 25 9 47 -14 47
-49 0 -45 -26 -107 -42 -102 -15 5 -18 43 -3 43 19 0 35 16 35 36 0 22 -19 25
-39 7 -11 -11 -13 -10 -8 3 7 22 -40 17 -57 -7 -12 -16 -14 -15 -20 9 -3 15
-11 27 -16 27 -13 0 -13 -43 -1 -56 6 -5 12 -22 15 -39 3 -16 14 -55 25 -85
21 -61 18 -100 -10 -141 -10 -14 -16 -29 -12 -33 3 -3 1 -6 -5 -6 -16 0 -15 4
8 47 20 38 26 79 12 99 -9 14 -216 134 -231 134 -16 0 -21 14 -36 102 -19 106
-19 114 -1 99 8 -7 21 -11 28 -9z m478 -142 c0 -5 -8 -10 -17 -12 -10 -2 15
-4 56 -4 47 -1 76 -6 81 -14 4 -7 16 -9 27 -6 13 4 26 -1 37 -13 18 -19 17
-20 -81 -16 -54 2 -111 8 -127 15 -16 6 -31 8 -34 6 -6 -7 2 -10 113 -41 102
-30 136 -50 65 -39 -38 5 -115 21 -209 42 -16 3 -22 1 -17 -7 4 -6 1 -11 -8
-11 -26 0 -13 53 14 56 5 1 15 2 20 3 6 1 6 8 -1 20 -7 10 -9 25 -6 34 5 13
12 13 46 5 23 -6 41 -14 41 -18z m-7990 10 c0 -5 -6 -10 -14 -10 -9 0 -12 -8
-8 -25 2 -14 8 -25 13 -25 5 0 9 -8 9 -17 0 -14 9 -18 46 -19 40 -1 45 1 41
17 -3 11 -1 19 4 19 5 0 9 11 9 25 0 19 -5 25 -22 25 -16 0 -19 3 -11 11 7 7
23 9 38 5 23 -6 25 -9 14 -23 -8 -9 -14 -42 -14 -83 0 -38 -4 -67 -9 -67 -21
4 -17 -31 4 -38 20 -6 21 -8 4 -26 -9 -10 -27 -18 -38 -18 -16 1 -17 2 -4 6 9
2 19 11 22 19 7 17 2 18 -24 2 -32 -20 -54 1 -61 58 -3 27 -7 43 -7 35 -4 -29
-14 -1 -17 44 -2 26 -8 52 -14 58 -16 16 -14 25 7 30 29 8 32 7 32 -3z m960
-10 c98 -8 150 -16 160 -26 12 -12 11 -14 -12 -14 -15 0 -30 5 -33 10 -11 19
-71 11 -99 -13 -22 -19 -64 -29 -255 -61 -223 -36 -230 -37 -289 -22 -133 35
-142 12 -14 -37 53 -20 175 -66 271 -102 177 -68 191 -70 265 -48 14 4 16 2
10 -8 -6 -11 -5 -12 7 -3 8 6 21 11 29 11 9 0 28 3 43 7 15 3 27 2 27 -3 0
-10 47 -25 70 -22 11 1 10 -2 -3 -10 -14 -8 -26 -7 -54 6 -24 12 -38 14 -45 7
-6 -6 -16 -8 -23 -6 -7 3 -17 -8 -24 -27 -7 -22 -15 -29 -26 -25 -8 3 -15 1
-15 -4 0 -5 -13 -7 -28 -4 -23 5 -32 1 -45 -20 -25 -38 -7 -41 -419 61 -37 9
-66 19 -63 21 7 7 -58 62 -72 62 -7 0 -13 4 -13 9 0 6 -14 18 -30 28 -17 10
-28 23 -26 30 3 7 -1 10 -10 6 -16 -6 -20 12 -4 22 16 10 12 40 -10 68 -22 27
-26 47 -10 47 5 0 7 -6 4 -14 -9 -25 46 -36 97 -19 55 19 57 20 34 37 -18 13
-18 14 3 20 13 4 36 0 59 -12 l38 -19 135 43 c103 34 146 43 180 39 25 -2 110
-9 190 -15z m6098 -58 c-11 -28 -10 -34 2 -42 8 -6 21 -8 27 -5 17 6 83 -23
111 -48 24 -23 31 -77 9 -77 -7 0 -26 -13 -42 -30 -29 -30 -38 -76 -21 -112 6
-14 4 -18 -12 -18 -22 0 -145 99 -162 130 -10 18 13 95 65 214 20 47 41 36 23
-12z m-7676 -181 c32 -25 73 -56 91 -68 18 -12 46 -33 63 -47 18 -14 36 -26
42 -26 6 0 13 -4 16 -9 12 -18 -76 -2 -111 21 -21 13 -63 36 -93 51 -38 18
-68 43 -97 81 -24 30 -43 58 -43 62 0 4 -10 19 -22 32 -30 32 70 -31 154 -97z
m8043 19 c-3 -5 0 -10 8 -10 8 0 19 -18 26 -41 7 -23 23 -52 37 -65 13 -14 28
-34 34 -45 13 -23 12 -24 -62 -107 -36 -40 -53 -70 -68 -121 -11 -38 -20 -71
-20 -75 0 -4 -12 -19 -27 -34 -15 -15 -21 -20 -14 -11 6 9 11 21 10 25 -4 24
2 55 10 50 5 -4 7 4 3 16 -3 14 -1 19 6 14 11 -7 22 21 27 68 1 11 3 24 4 28
0 3 13 21 28 39 24 28 25 31 6 20 -12 -6 -27 -19 -33 -29 -8 -12 -10 -12 -7
-2 3 13 31 36 112 94 19 14 19 14 -10 21 -16 4 -36 8 -42 11 -8 2 -13 21 -13
48 0 25 -4 48 -10 51 -5 3 -10 1 -10 -4 0 -6 -17 -11 -37 -10 -34 1 -35 2 -13
9 25 8 25 8 2 9 -21 1 -22 3 -8 16 8 8 23 15 33 16 10 0 13 3 6 6 -20 8 -15
23 8 23 11 0 17 -4 14 -10z m-370 -196 c-7 -8 -19 -45 -26 -84 l-12 -71 41
-42 41 -42 -30 -33 c-36 -41 -37 -75 -2 -108 l27 -25 -23 -45 c-14 -26 -31
-44 -41 -44 -11 0 -22 -12 -29 -31 -16 -45 -14 -62 8 -76 10 -6 21 -27 25 -47
11 -60 33 -77 109 -83 52 -5 72 -2 92 11 24 16 27 15 55 -6 36 -26 45 -54 33
-105 -10 -45 -41 -57 -126 -49 -106 10 -203 72 -247 156 -48 94 -74 396 -51
586 12 94 38 230 48 247 2 4 31 -16 63 -44 48 -43 56 -54 45 -65z m675 70 c0
-3 -5 -15 -12 -27 -6 -12 -13 -53 -14 -92 -1 -38 0 -56 3 -40 6 47 34 138 39
132 3 -3 -2 -29 -10 -58 -9 -29 -16 -68 -16 -86 0 -18 -4 -33 -10 -33 -5 0
-10 -18 -10 -40 0 -55 -22 -94 -86 -153 -46 -42 -52 -51 -40 -63 8 -8 21 -14
30 -14 8 0 18 -5 22 -11 4 -8 9 -7 15 2 8 11 14 9 30 -10 l20 -25 -6 25 c-6
24 -4 25 87 43 99 20 125 32 145 68 9 17 12 19 13 6 0 -15 -53 -68 -68 -68
-12 0 -156 -31 -160 -34 -1 -2 0 -10 4 -19 4 -10 32 -22 78 -32 70 -16 77 -15
227 9 85 13 206 32 269 41 63 10 134 23 158 30 23 7 42 9 42 4 0 -10 -50 -24
-155 -43 -44 -8 -69 -15 -56 -15 41 -2 236 30 246 40 15 14 29 10 16 -5 -14
-17 -5 -15 -387 -71 -303 -44 -313 -45 -370 -30 -45 12 -60 12 -66 3 -11 -20
28 -31 107 -31 39 0 196 19 350 43 289 44 360 50 408 37 l29 -8 -27 38 c-22
31 -23 33 -3 11 24 -29 51 -40 28 -13 -15 18 -4 20 15 2 7 -7 45 -35 84 -62
39 -27 69 -50 67 -53 -5 -5 -90 51 -123 81 -36 32 -35 15 1 -23 30 -33 56 -71
56 -84 0 -3 -9 -6 -19 -6 -11 0 -23 -4 -26 -10 -12 -20 -33 -9 -44 22 -8 24
-8 29 0 21 11 -11 49 -6 49 7 0 10 -31 35 -63 48 -37 16 -42 15 -26 -4 9 -12
3 -10 -21 5 -19 11 -51 21 -71 21 -40 0 -521 -69 -528 -76 -2 -2 11 -4 30 -5
27 0 16 -6 -56 -30 -106 -35 -136 -37 -209 -14 -39 12 -59 14 -73 7 -23 -13
-49 0 -38 19 6 11 5 12 -6 2 -24 -23 -49 -16 -49 13 0 22 -3 24 -14 15 -14
-12 -61 -6 -82 10 -7 5 -20 -1 -34 -16 -13 -14 -30 -23 -38 -20 -7 2 -11 1 -8
-4 5 -7 -54 -8 -74 -1 -3 1 -16 3 -30 3 -21 2 -25 8 -28 39 -2 20 4 50 12 66
19 38 124 147 133 139 4 -4 0 -13 -9 -20 -37 -30 -95 -137 -74 -137 27 0 140
105 130 121 -3 5 3 6 12 2 13 -5 15 -3 9 7 -5 9 -4 11 3 6 7 -4 12 -3 12 2 0
6 7 12 15 16 18 7 19 2 2 -16 -7 -7 -29 -37 -50 -66 -66 -93 -39 -113 45 -32
28 28 56 50 60 50 5 0 6 5 2 12 -4 6 -3 8 3 5 10 -7 59 41 102 99 19 27 23 45
25 130 2 97 27 204 47 204 5 0 9 -3 9 -6z m-8485 -114 c53 -11 105 -20 116
-20 10 0 30 -11 45 -25 15 -14 52 -42 83 -62 31 -20 58 -40 59 -45 2 -4 10 -8
18 -8 8 0 14 -4 14 -10 0 -5 7 -10 15 -10 8 0 15 -4 15 -9 0 -5 8 -12 19 -16
10 -3 38 -23 62 -45 24 -22 48 -40 52 -40 4 0 22 -14 40 -30 18 -17 44 -38 59
-47 14 -9 32 -27 39 -40 7 -13 16 -23 20 -23 4 0 45 -28 91 -63 124 -93 254
-186 317 -226 91 -58 94 -60 141 -82 25 -12 57 -28 72 -36 43 -22 185 -62 238
-67 26 -3 77 -12 114 -20 36 -9 79 -17 96 -18 21 -2 30 -7 30 -20 0 -28 -15
-30 -102 -13 -46 9 -110 21 -143 27 -222 41 -395 120 -646 294 -41 28 -144 98
-229 156 -85 57 -217 149 -293 202 -76 54 -215 147 -309 207 -94 60 -161 109
-150 109 11 0 64 -9 117 -20z m9525 -65 c30 -16 76 -72 66 -82 -3 -3 -1 -12 5
-19 13 -16 3 -87 -11 -79 -6 3 -7 -1 -4 -9 9 -24 -48 -72 -95 -80 -87 -14
-163 52 -170 147 -3 44 28 100 67 122 35 19 106 19 142 0z m606 -127 c13 -10
25 -84 17 -104 -8 -21 -46 -17 -83 9 -33 22 -40 36 -54 109 l-7 38 58 -22 c32
-12 63 -25 69 -30z m-1020 -15 c50 -65 66 -95 58 -103 -5 -5 -74 -21 -154 -35
-80 -13 -157 -27 -171 -30 -39 -9 -44 18 -13 81 24 49 28 52 51 43 34 -13 161
15 187 41 25 24 25 24 42 3z m-9127 -109 c41 -5 73 -20 142 -65 49 -32 89 -61
89 -64 0 -10 -57 -33 -98 -38 -24 -3 -52 -13 -62 -22 -13 -12 -30 -16 -52 -12
-21 3 -47 -2 -70 -14 -21 -11 -51 -19 -68 -19 l-31 0 5 58 c3 31 8 88 12 125
l6 68 36 -5 c20 -2 61 -8 91 -12z m-1149 -149 c0 -44 -26 -125 -51 -156 -15
-20 -55 -50 -87 -67 -108 -58 -195 -41 -351 69 -50 35 -90 66 -90 69 0 3 15
17 33 32 30 25 42 27 231 42 110 9 207 18 215 20 8 2 34 4 58 5 31 1 42 -3 42
-14z m6510 -14 c0 -6 -35 -61 -78 -123 -43 -62 -115 -167 -159 -233 -44 -66
-94 -132 -110 -147 l-29 -28 -33 34 -33 34 34 23 c45 32 59 48 215 261 120
163 142 187 166 188 15 0 27 -4 27 -9z m-4886 -136 c105 -72 108 -75 83 -86
-32 -15 -47 -48 -47 -109 0 -56 14 -74 69 -91 29 -9 55 -9 101 -1 71 13 90 25
90 58 0 22 9 18 108 -50 l107 -75 -3 -58 c-2 -37 -11 -70 -24 -92 -49 -78 -14
-171 81 -218 38 -19 57 -36 65 -56 10 -26 14 -28 46 -22 19 3 43 16 53 27 18
21 20 21 175 9 228 -17 217 -14 245 -75 13 -28 38 -73 55 -100 23 -36 32 -62
32 -91 0 -23 9 -100 19 -171 30 -201 31 -214 12 -215 -12 0 -11 -2 4 -8 19 -8
18 -9 -5 -13 -25 -5 -25 -5 3 -7 22 -1 27 -6 27 -25 0 -14 5 -28 11 -32 8 -4
7 -9 -2 -15 -11 -7 -9 -9 6 -10 17 -1 16 -2 -5 -9 -21 -7 -19 -8 18 -9 40 -1
42 -3 42 -31 0 -33 -15 -41 -23 -12 -4 19 -47 38 -47 21 0 -5 4 -9 9 -9 13 0
20 -50 7 -51 -6 0 -5 -3 3 -6 11 -5 11 -7 0 -14 -11 -7 -10 -9 3 -9 9 0 33 -9
52 -21 l36 -21 29 21 c16 12 40 21 53 22 22 0 22 1 3 9 -18 8 -18 9 5 10 l25
2 -25 8 -25 8 25 1 c22 1 28 -6 43 -45 l17 -46 -58 5 c-37 4 -48 3 -32 -2 l25
-9 -27 -1 c-23 -1 -26 -5 -22 -26 3 -16 0 -25 -8 -26 -7 -1 1 -5 17 -9 l30 -8
-30 -1 c-23 -1 -27 -3 -15 -11 13 -9 13 -11 0 -20 -13 -9 -13 -10 0 -11 10 0
8 -3 -5 -8 -15 -6 -3 -10 45 -16 56 -7 61 -10 35 -16 l-30 -7 33 -1 c28 -1 32
-4 32 -28 0 -16 -5 -48 -11 -73 -10 -41 -18 -79 -23 -105 -1 -5 -5 -16 -10
-23 -4 -7 -6 -18 -3 -25 5 -14 -11 -31 -30 -33 -65 -5 -68 -7 -28 -14 l40 -7
-37 -2 c-21 0 -38 -5 -38 -10 0 -6 17 -12 38 -14 37 -4 37 -4 -7 -5 -37 -2
-42 -4 -31 -17 15 -18 -1 -21 -29 -4 -11 8 -29 9 -47 4 -29 -9 -29 -9 -4 -12
92 -13 91 -12 70 -33 -11 -11 -20 -24 -20 -30 0 -5 -19 -11 -42 -12 -40 -1
-40 -2 -9 -5 36 -5 77 -33 47 -33 -9 0 -16 -4 -16 -8 0 -4 -15 -6 -34 -4 -18
2 -37 -1 -40 -7 -5 -7 7 -11 33 -11 23 0 41 -4 41 -8 0 -5 -13 -7 -30 -4 -16
2 -38 1 -47 -4 -14 -6 -7 -9 27 -14 l45 -7 -42 -1 c-50 -2 -57 -19 -10 -25 31
-4 31 -4 -5 -5 -21 -1 -38 -6 -38 -12 0 -5 17 -11 38 -12 l37 -1 -45 -7 c-45
-6 -41 -15 10 -23 17 -3 14 -5 -12 -6 -46 -1 -51 -20 -5 -22 l32 -2 -30 -4
c-54 -7 -62 -16 -20 -23 l40 -7 -37 -2 c-21 0 -38 -5 -38 -11 0 -5 17 -11 38
-11 33 -2 34 -2 7 -6 -55 -7 -61 -17 -15 -23 l45 -7 -42 -1 c-38 -2 -74 -22
-39 -22 9 0 16 -5 16 -11 0 -6 -7 -9 -15 -5 -9 3 -15 0 -15 -9 0 -7 8 -16 18
-19 10 -3 8 -4 -7 -3 -13 1 -26 -4 -28 -10 -3 -9 8 -14 34 -15 l38 -1 -37 -4
c-47 -5 -50 -23 -5 -24 l32 -2 -35 -6 c-20 -4 -34 -12 -32 -19 1 -9 -38 -12
-160 -11 -97 1 -153 4 -138 9 14 4 21 9 15 10 -5 1 -21 4 -35 6 -13 2 -31 2
-40 -2 -12 -5 -9 -9 10 -15 14 -4 -296 -7 -689 -6 -561 2 -715 5 -719 15 -4
14 -72 17 -72 2 0 -6 -27 -10 -61 -10 -37 0 -58 4 -54 10 4 6 -7 10 -26 10
-17 0 -49 5 -71 12 -33 10 -41 9 -54 -4 -14 -14 -11 -15 30 -13 25 2 48 -1 51
-6 4 -5 -18 -9 -49 -9 -31 0 -56 4 -56 9 0 5 -12 12 -27 14 -27 4 -26 4 4 6
41 1 54 21 14 21 -16 0 -33 4 -36 10 -3 5 2 9 12 8 40 -3 64 2 57 13 -3 6 -20
9 -37 6 -18 -2 -37 1 -44 9 -18 17 -16 24 5 25 14 0 14 2 -3 9 -11 4 -30 6
-42 3 -13 -3 -23 0 -23 5 0 6 -12 13 -27 15 -27 4 -26 4 4 6 48 2 51 21 4 21
-28 0 -41 -4 -41 -13 0 -19 -43 -37 -61 -26 -12 8 -12 10 1 8 29 -3 40 1 40
16 0 8 5 15 10 15 6 0 10 4 10 9 0 5 -34 12 -75 16 -41 4 -75 10 -75 14 0 4
17 5 39 3 21 -2 42 1 45 7 4 6 0 11 -11 11 -14 1 -13 4 7 15 14 8 19 14 13 15
-20 0 -15 20 5 21 11 1 8 4 -8 8 -31 9 -63 1 -35 -9 17 -6 17 -7 -3 -12 -12
-4 -25 -2 -28 3 -3 5 -22 9 -42 10 -20 1 -48 4 -62 8 l-25 7 30 6 c16 4 32 3
35 -2 10 -14 69 -17 74 -3 3 8 -2 13 -13 13 -10 0 -46 3 -81 7 -56 5 -63 4
-57 -10 4 -11 1 -17 -9 -17 -8 0 -12 5 -9 10 4 6 -10 10 -34 10 -41 0 -61 13
-40 26 8 4 9 3 5 -4 -5 -9 6 -12 38 -12 25 0 48 4 51 10 4 6 -8 10 -27 11 -18
0 -51 3 -73 8 -28 5 -7 7 70 7 69 0 118 5 130 13 16 10 5 11 -60 6 -44 -3
-100 -1 -125 4 -38 8 -33 9 33 4 67 -5 77 -3 77 11 0 9 5 16 10 16 6 0 10 -4
10 -10 0 -5 16 -10 35 -10 63 0 37 18 -36 25 -46 5 -74 4 -78 -3 -4 -7 -24 -7
-61 0 -30 5 -73 8 -94 5 -28 -4 -36 -3 -25 4 8 6 48 7 95 4 48 -4 84 -3 88 3
3 5 -24 12 -63 16 -38 3 -80 11 -93 16 -20 9 -19 10 12 6 141 -19 151 -19 165
0 8 11 14 14 15 7 0 -14 66 -18 74 -5 4 8 -168 32 -219 32 -16 0 -17 -2 -6 -9
10 -6 -1 -8 -30 -4 -56 7 -63 13 -16 13 70 0 46 18 -33 25 -44 4 -82 10 -84
14 -2 3 16 4 41 2 25 -2 49 1 55 7 7 7 -14 12 -65 17 -41 4 -80 11 -87 15 -7
4 8 6 32 3 25 -3 56 0 69 6 23 12 23 11 5 -3 -19 -15 -17 -16 30 -16 48 1 49
1 24 16 -23 14 -23 14 -2 9 13 -4 22 -2 22 4 0 6 -15 11 -34 11 -40 0 -54 14
-29 29 15 8 11 10 -21 11 -25 0 -44 -6 -53 -17 -13 -16 -13 -16 -3 5 6 12 7
22 3 22 -4 0 1 6 12 12 17 11 11 14 -50 24 l-70 12 75 -5 c41 -3 77 -7 79 -9
3 -2 -4 -10 -14 -18 -17 -12 -11 -14 56 -22 40 -4 77 -7 82 -6 4 1 7 -5 7 -13
0 -8 -4 -15 -10 -15 -5 0 -10 5 -10 10 0 12 -60 13 -79 1 -8 -5 19 -11 73 -16
80 -6 85 -8 76 -26 -10 -17 -7 -19 28 -19 25 0 45 -6 53 -17 12 -15 12 -16 -3
-10 -10 3 -18 2 -18 -3 0 -6 16 -10 35 -10 26 0 33 3 29 15 -4 10 0 15 11 15
9 0 14 -4 11 -8 -3 -5 13 -9 35 -10 70 -5 41 16 -33 23 -40 4 -79 12 -85 17
-7 6 -19 8 -28 5 -8 -4 -17 -2 -20 3 -4 6 9 10 29 10 19 0 38 -5 41 -10 8 -12
62 -13 69 -1 3 5 -28 12 -69 16 -71 6 -97 16 -76 29 5 4 12 2 16 -4 8 -13 62
-13 70 0 4 6 -9 10 -32 11 -21 1 -51 5 -68 10 -21 6 -10 7 40 5 39 -2 57 -1
40 1 -16 2 -34 9 -40 14 -12 12 -62 12 -70 -1 -7 -12 -95 -11 -95 1 0 4 -8 10
-17 12 -10 2 -8 3 5 2 12 -1 25 2 28 6 3 5 -10 9 -28 10 -18 0 -42 4 -52 8
-19 7 -19 8 2 13 12 4 22 3 22 -2 0 -4 50 -13 110 -20 61 -7 113 -17 116 -21
7 -12 61 -11 69 1 4 6 -5 10 -21 10 -15 0 -57 5 -93 11 -55 10 -62 13 -42 21
14 5 28 4 35 -1 16 -14 136 -26 136 -14 0 5 -16 9 -35 8 -19 0 -35 2 -35 6 0
4 -31 10 -68 14 -77 8 -104 18 -76 29 16 6 16 8 4 16 -13 8 -12 10 3 10 9 0
17 3 17 8 0 4 18 6 41 4 29 -3 43 0 53 13 10 15 14 15 24 2 10 -12 9 -16 -8
-20 -25 -6 -26 -34 -2 -40 9 -3 2 -5 -15 -6 -35 -1 -41 7 -21 27 9 9 4 12 -23
12 -23 0 -38 -6 -46 -19 -11 -18 -8 -20 60 -26 40 -4 80 -11 89 -16 10 -5 26
-5 40 0 21 9 19 10 -14 10 -39 1 -57 14 -36 28 9 5 3 10 -17 14 -28 6 -28 7
10 9 30 1 35 3 21 9 -19 7 -18 8 5 16 18 6 -2 11 -84 23 -96 14 -107 17 -101
34 4 15 0 18 -24 18 -17 0 -32 -5 -34 -11 -2 -6 -11 -7 -22 -3 -19 7 -19 8 0
15 14 6 11 8 -16 8 -37 1 -82 21 -48 21 9 0 21 8 27 17 5 10 13 15 17 11 4 -4
2 -14 -4 -21 -10 -11 6 -16 89 -27 55 -7 103 -10 106 -6 4 3 -9 6 -28 7 -19 1
-45 5 -59 9 l-25 8 27 1 c15 1 29 5 32 9 6 10 -262 48 -271 38 -3 -3 9 -6 28
-7 19 -1 45 -5 59 -10 16 -5 -1 -6 -45 -2 -68 5 -126 22 -80 23 11 0 26 9 33
20 7 11 20 20 29 20 15 0 15 -2 -2 -14 -17 -12 -11 -14 50 -21 52 -5 70 -4 76
7 15 22 10 28 -22 28 -23 0 -30 -4 -26 -14 3 -8 0 -13 -8 -12 -18 3 -32 16
-17 16 24 0 11 19 -15 23 -25 4 -24 4 7 6 30 2 32 4 15 12 -13 6 3 7 50 4 64
-4 66 -3 22 5 -47 8 -74 20 -48 20 7 0 31 18 53 40 34 33 48 40 82 40 30 0 37
3 26 10 -13 8 -12 10 3 10 9 0 17 5 17 10 0 6 -8 10 -17 10 -15 1 -14 4 7 21
21 18 33 20 75 15 60 -8 75 -11 98 -21 9 -4 25 -4 35 1 11 5 -15 13 -78 23
-82 13 -90 16 -60 22 23 4 27 7 12 8 -13 0 -21 5 -18 10 3 5 16 7 28 3 17 -4
20 -2 15 11 -3 9 -3 16 1 16 19 -3 25 2 12 11 -12 8 -10 10 10 10 20 0 22 2
10 10 -13 8 -12 10 4 10 11 0 17 3 13 6 -3 4 16 30 42 58 63 66 97 107 157
186 227 300 433 744 495 1068 11 60 13 62 43 62 17 1 42 7 56 15 14 8 42 14
62 15 21 0 52 9 69 19 21 13 42 18 60 14 19 -3 39 2 62 16 19 11 50 21 69 21
19 0 43 7 54 15 36 27 66 17 178 -60z m1076 -65 c91 -23 183 -43 205 -45 22
-2 42 -4 45 -6 3 -1 12 -2 20 -3 8 -1 16 -9 18 -19 4 -22 -38 -23 -94 -3 -22
7 -82 21 -134 30 -93 17 -272 68 -299 85 -31 20 82 1 239 -39z m9505 -207
c-116 -337 -314 -608 -602 -822 -182 -136 -400 -237 -627 -291 -157 -38 -269
-50 -431 -48 l-130 1 180 7 c509 21 942 220 1263 582 144 163 283 403 346 600
17 53 32 93 34 88 2 -5 -13 -58 -33 -117z m-14626 -56 c6 -8 7 -18 3 -22 -4
-5 -2 -5 4 -2 7 4 17 0 24 -8 8 -9 30 -15 58 -15 28 0 57 -8 80 -22 37 -23 29
-38 -9 -17 -19 10 -21 9 -16 -4 4 -11 2 -14 -9 -10 -7 3 -14 9 -14 14 0 5 -12
9 -26 9 -14 0 -23 4 -20 9 3 5 -7 11 -22 14 -35 7 -41 0 -11 -12 16 -7 19 -10
7 -10 -9 -1 -24 6 -32 15 -9 8 -24 14 -34 12 -9 -2 -22 3 -28 11 -8 11 -15 11
-30 3 -18 -11 -18 -11 4 -12 12 0 22 -4 22 -9 0 -6 -16 -7 -34 -4 -41 6 -89
-4 -81 -17 3 -5 -1 -7 -9 -4 -8 3 -23 1 -33 -6 -15 -9 -14 -10 7 -4 29 7 26 2
-9 -16 -15 -8 -21 -8 -17 -1 11 18 -9 13 -33 -8 -13 -11 -20 -25 -16 -30 4 -7
0 -8 -11 -4 -13 5 -15 3 -9 -8 5 -8 4 -11 0 -6 -5 4 -15 -3 -22 -15 -7 -13
-12 -17 -13 -11 -1 33 77 95 184 148 120 59 128 62 145 42z m1861 -152 c46
-44 70 -102 70 -172 0 -69 -16 -123 -36 -123 -8 0 -11 6 -7 16 5 13 2 15 -14
10 -14 -4 -23 -1 -27 9 -4 11 -13 14 -26 10 -10 -3 -28 -1 -39 4 -13 7 -22 8
-26 1 -16 -26 -27 -8 -21 35 8 50 -2 57 -34 25 -11 -11 -26 -20 -32 -20 -9 0
-10 3 -2 8 6 4 14 21 17 37 3 17 4 24 1 18 -3 -7 -12 -13 -19 -13 -8 0 -18 -7
-22 -15 -7 -12 -14 -10 -40 14 -18 16 -34 27 -36 25 -2 -3 -16 2 -30 9 -15 8
-24 17 -20 20 3 4 -1 7 -9 7 -11 0 -15 -7 -11 -22 4 -21 3 -22 -10 -5 -8 9
-19 17 -25 17 -6 0 -13 6 -16 13 -5 10 -7 10 -12 0 -7 -15 -34 -17 -34 -3 0 6
-4 10 -10 10 -5 0 -10 -7 -10 -16 0 -13 -7 -15 -30 -10 -19 3 -29 2 -25 -4 4
-6 -6 -10 -22 -10 -22 0 -25 2 -13 10 26 17 -16 12 -50 -5 -18 -9 -31 -11 -35
-5 -4 7 -13 7 -24 1 -10 -6 -31 -9 -47 -7 -16 1 -44 -3 -63 -11 -40 -15 -77
-17 -86 -3 -3 6 -18 8 -33 4 -24 -5 -25 -4 -8 7 14 9 27 9 56 -1 35 -11 42
-10 74 9 27 17 44 21 66 16 21 -5 39 -2 55 9 13 9 44 16 67 16 24 0 54 7 66
16 15 10 36 14 60 11 24 -3 50 2 76 15 21 11 50 18 64 15 14 -3 39 3 58 15 22
13 43 18 61 14 18 -4 41 0 64 12 54 27 112 22 149 -13z m11359 -50 c0 -16 -3
-36 -7 -43 -33 -52 -369 -51 -482 2 -19 9 -24 13 -10 9 14 -4 60 -6 103 -5 60
2 77 -1 77 -12 0 -21 75 -28 180 -16 88 10 129 20 82 20 -19 0 -52 33 -52 52
0 5 21 18 48 31 52 25 60 21 61 -38z m-10914 -22 c-28 -45 -64 -92 -139 -187
-39 -48 -71 -93 -71 -100 0 -6 -7 -11 -15 -11 -8 -1 -14 -6 -13 -12 3 -13
-123 -134 -200 -193 -31 -23 -54 -47 -50 -53 3 -6 1 -7 -5 -3 -7 4 -36 -8 -64
-27 -245 -161 -534 -267 -828 -302 -504 -62 -995 69 -1390 368 -89 68 -261
239 -255 254 2 8 1 12 -4 9 -4 -3 -17 4 -27 17 -19 21 -19 21 0 7 18 -13 19
-13 11 0 -5 8 -27 40 -50 70 -41 55 -97 144 -78 125 5 -5 32 -39 58 -75 303
-404 756 -669 1258 -735 369 -48 753 18 1092 187 140 69 315 184 400 262 33
30 63 55 67 56 13 0 199 214 254 291 53 75 86 110 49 52z m9590 -23 c26 -27
48 -40 65 -40 32 0 75 -42 66 -65 -3 -9 -2 -13 4 -10 6 3 10 -1 10 -9 0 -9 13
-25 29 -37 17 -12 27 -28 24 -35 -5 -14 -34 -20 -32 -6 3 19 -2 33 -11 27 -15
-9 7 -45 28 -46 14 0 13 -2 -3 -8 -11 -5 -21 -4 -23 0 -2 5 -12 9 -23 9 -19 0
-22 -19 -4 -32 6 -4 0 -8 -12 -8 -13 0 -23 5 -23 10 0 6 5 10 11 10 5 0 8 4 4
9 -3 6 2 14 11 19 14 8 12 12 -14 31 -36 25 -50 27 -31 5 16 -19 21 -44 9 -44
-5 0 -14 8 -20 18 -9 13 -12 14 -17 3 -4 -11 -7 -11 -14 0 -4 7 -11 11 -14 7
-4 -3 3 -16 15 -28 26 -26 18 -40 -11 -21 -25 15 -37 7 -21 -12 12 -14 7 -27
-10 -27 -5 0 -6 5 -3 10 4 6 -5 10 -19 10 -29 0 -35 -17 -10 -27 13 -5 13 -7
2 -14 -10 -7 -8 -9 6 -9 11 0 17 -2 14 -5 -12 -12 -57 7 -51 21 3 10 0 12 -10
8 -15 -5 -13 -34 2 -34 4 0 15 -15 26 -32 l18 -33 -22 20 c-64 56 -100 170
-81 259 12 56 63 146 84 146 7 0 30 -18 51 -40z m-9856 -87 c-284 -323 -657
-523 -1083 -579 -225 -30 -514 -2 -735 71 -217 72 -454 212 -605 359 -61 59
-63 61 -11 15 364 -320 777 -467 1235 -439 235 14 420 60 623 155 96 44 191
101 180 107 -4 3 -2 3 5 2 15 -4 105 56 147 99 17 17 24 27 16 22 -10 -5 -12
-4 -7 4 4 6 12 9 17 6 16 -10 33 6 18 17 -10 7 -7 8 11 4 24 -5 24 -4 6 9 -11
8 -16 15 -12 15 5 0 2 8 -5 18 -7 9 0 6 16 -8 16 -14 23 -17 16 -7 -12 15 -12
20 -1 30 8 8 11 8 7 1 -4 -7 -1 -17 6 -23 10 -8 32 8 92 69 79 79 111 105 64
53z m-2322 -323 c154 -108 300 -180 483 -239 69 -22 238 -60 280 -62 20 -1 18
-3 -10 -9 -22 -5 0 -7 60 -5 66 3 83 1 55 -4 l-40 -8 35 -1 c19 0 73 3 120 7
57 5 90 4 99 -3 10 -8 15 -8 18 2 3 7 22 12 48 12 23 0 82 7 131 15 399 70
707 229 989 510 60 60 95 91 77 68 -18 -23 -71 -78 -119 -123 -347 -325 -784
-500 -1250 -500 -152 0 -339 20 -288 30 18 4 1 7 -45 7 -41 0 -86 5 -100 12
-23 11 -23 11 10 6 93 -16 97 -13 12 10 -367 99 -683 299 -897 568 -21 27 24
-14 101 -90 78 -78 179 -167 231 -203z"/>
<path d="M11910 8244 c0 -3 10 -15 23 -25 22 -20 22 -20 0 -10 -12 6 -25 11
-29 11 -13 0 65 -57 96 -70 16 -7 30 -16 30 -20 0 -3 6 -7 13 -7 16 0 77 -43
77 -55 0 -4 6 -5 14 -2 8 3 26 -2 41 -12 23 -15 28 -15 36 -3 12 19 11 32 -3
50 -19 23 -86 59 -110 59 -21 0 -21 0 -2 -15 10 -8 29 -15 41 -15 12 0 25 -4
28 -10 8 -14 -9 -13 -48 3 -18 7 -38 13 -46 12 -13 0 -100 76 -95 84 2 1 19
-9 38 -24 40 -30 49 -24 14 8 -37 32 -118 61 -118 41z"/>
<path d="M8592 6364 c-17 -12 -22 -25 -22 -59 0 -51 24 -75 76 -75 39 0 74 38
74 80 0 57 -77 90 -128 54z"/>
<path d="M8113 5900 c-12 -5 -29 -20 -38 -34 -14 -21 -15 -31 -5 -61 7 -22 17
-34 24 -32 7 3 19 1 27 -5 11 -8 10 -9 -4 -4 -11 3 -16 2 -12 -4 3 -6 22 -10
41 -10 50 0 88 42 80 90 -9 58 -56 83 -113 60z"/>
<path d="M9976 4605 c-54 -30 -72 -46 -74 -65 -2 -14 -8 -30 -13 -36 -6 -8 1
-22 22 -42 29 -29 35 -30 98 -28 36 2 90 4 119 5 l52 1 -6 43 c-10 70 -44 147
-65 147 -11 0 -19 4 -19 9 0 19 -45 6 -114 -34z"/>
<path d="M9375 4610 c-3 -5 -3 -10 2 -11 4 0 -2 -4 -14 -9 -13 -5 -23 -16 -23
-25 0 -21 -27 -19 -40 3 -8 14 -9 11 -4 -13 3 -19 2 -25 -3 -17 -7 9 -14 7
-31 -8 -12 -12 -22 -27 -22 -35 0 -10 -11 -15 -32 -16 -63 -2 10 -16 117 -23
96 -6 101 -5 127 18 20 18 26 31 23 53 -2 15 -4 33 -4 40 -1 7 -11 17 -22 24
-15 8 -19 8 -15 0 4 -6 3 -11 -3 -11 -6 0 -7 -8 -4 -17 6 -15 5 -16 -9 -3 -11
11 -12 17 -4 22 7 5 5 8 -6 8 -9 0 -20 5 -24 12 -5 8 -2 9 10 5 10 -4 15 -3
11 3 -8 13 -22 13 -30 0z"/>
<path d="M9399 4221 c-35 -27 -77 -60 -92 -73 l-28 -23 48 -46 c26 -26 74 -61
105 -79 l58 -32 25 59 c69 155 68 149 55 187 -24 73 -82 75 -171 7z"/>
<path d="M9785 4221 l-25 -40 36 -98 c19 -54 41 -104 47 -110 17 -17 115 32
176 87 52 47 59 32 -64 139 -59 52 -75 61 -107 61 -33 0 -41 -5 -63 -39z"/>
<path d="M16006 3469 c3 -5 -10 -9 -28 -9 -45 1 -69 -2 -63 -8 3 -3 -2 -13
-11 -23 -17 -19 -22 -76 -11 -121 8 -29 62 -68 96 -68 33 0 93 35 118 68 21
28 24 46 12 67 -4 6 -9 22 -12 36 -4 15 -19 34 -33 44 -28 18 -77 28 -68 14z"/>
<path d="M13246 9175 c-10 -15 -16 -28 -14 -29 2 -1 19 -13 38 -27 65 -48 170
-100 174 -87 20 68 28 110 20 117 -12 10 -109 38 -160 46 -37 6 -43 3 -58 -20z"/>
</g>
</svg>
